<svg xmlns="http://www.w3.org/2000/svg" xmlns:xlink="http://www.w3.org/1999/xlink" viewBox="0 0 48 48"><defs><style>.cls-1{fill:url(#linear-gradient);}.cls-2,.cls-4{fill:#fff;}.cls-2{opacity:0.9;}.cls-3{opacity:0.5;}</style><linearGradient id="linear-gradient" x1="8.61" y1="8.61" x2="40.62" y2="40.62" gradientUnits="userSpaceOnUse"><stop offset="0" stop-color="#ff76b8"/><stop offset="0.23" stop-color="#e563cf"/><stop offset="0.54" stop-color="#c74de9"/><stop offset="0.81" stop-color="#b540f9"/><stop offset="1" stop-color="#ae3bff"/></linearGradient></defs><g id="Layer_1" data-name="Layer 1"><rect class="cls-1" x="4" y="4" width="40" height="40" rx="10"/><path class="cls-2" d="M17,33H31a2,2,0,0,0,2-2V21a2,2,0,0,0-2-2H29V17a2,2,0,0,0-2-2H21a2,2,0,0,0-2,2v2H17a2,2,0,0,0-2,2V31A2,2,0,0,0,17,33ZM28,21h2V31H28Zm-7-3.5a.5.5,0,0,1,.5-.5h5a.5.5,0,0,1,.5.5V19H21ZM18,21h2V31H18Z"/><g class="cls-3"><rect class="cls-4" x="18" y="21" width="2" height="10"/><rect class="cls-4" x="28" y="21" width="2" height="10"/></g></g></svg>