<?xml version="1.0" encoding="UTF-8"?><svg id="b" xmlns="http://www.w3.org/2000/svg" width="24" height="24" viewBox="0 0 24 24"><path d="m15,2.5h-6c-1.6543,0-3,1.3457-3,3v3c0,.55273.44775,1,1,1s1-.44727,1-1v-3c0-.55176.44873-1,1-1h6c.55176,0,1,.44824,1,1v3c0,.55273.44727,1,1,1s1-.44727,1-1v-3c0-1.6543-1.3457-3-3-3Z" fill="#22c55e" stroke-width="0"/><path d="m2,19.5c0,1.10455.89545,2,2,2h16c1.10455,0,2-.89545,2-2v-6.0741H2v6.0741Z" fill="#22c55e" stroke-width="0"/><path d="m20,7.5H4c-1.10455,0-2,.89539-2,2v3.9259h20v-3.9259c0-1.10461-.89545-2-2-2Z" fill="#bef264" stroke-width="0"/></svg>