<?xml version="1.0" encoding="utf-8"?>
<!-- Generator: Adobe Illustrator 26.5.0, SVG Export Plug-In . SVG Version: 6.00 Build 0)  -->
<svg version="1.1" id="Layer_1" xmlns="http://www.w3.org/2000/svg" xmlns:xlink="http://www.w3.org/1999/xlink" x="0px" y="0px"
	 viewBox="0 0 40 40" style="enable-background:new 0 0 40 40;" xml:space="preserve">
<style type="text/css">
	.st0{fill:url(#SVGID_1_);}
	.st1{opacity:0.9;fill:#FFFFFF;enable-background:new    ;}
	.st2{opacity:0.5;fill:#FFFFFF;enable-background:new    ;}
</style>
<linearGradient id="SVGID_1_" gradientUnits="userSpaceOnUse" x1="-1.818989e-12" y1="9.094947e-13" x2="28.599" y2="28.599">
	<stop  offset="0" style="stop-color:#3FD6FF"/>
	<stop  offset="1" style="stop-color:#42BA96"/>
</linearGradient>
<path class="st0" d="M10,0h20c5.5,0,10,4.5,10,10v20c0,5.5-4.5,10-10,10H10C4.5,40,0,35.5,0,30V10C0,4.5,4.5,0,10,0z"/>
<g>
	<path class="st1" d="M18.5,23.1c-1.5-1.3-2.5-2.8-3.1-3.6L15,18.8c0.2-0.2,1.2-1.3,1.6-1.9c0.5-0.8-0.3-1.4-0.3-1.4
		s-2.3-2.3-2.9-2.8c-0.5-0.5-1.2-0.2-1.2-0.2c-1.1,0.7-2.3,1.4-2.3,4.4c0,2.8,2.2,5.8,4.5,8c2.3,2.5,5.5,5.1,8.6,5.1
		c3.1-0.1,3.7-1.3,4.4-2.3c0,0,0.3-0.6-0.2-1.2s-2.9-3-2.9-3s-0.7-0.8-1.4-0.3c-0.5,0.5-1.6,1.4-1.8,1.6
		C21.2,24.9,19.5,24,18.5,23.1z"/>
	<path class="st2" d="M18.7,15.1L18.7,15.1c-0.4,0.4-0.8,0.4-1.2,0l-3.4-3.4c-0.4-0.4-0.4-0.8,0-1.2l0,0c0.6-0.6,1.7-0.6,2.3,0
		l2.3,2.3C19.3,13.4,19.3,14.4,18.7,15.1z"/>
	<path class="st2" d="M29.5,25.9L29.5,25.9c-0.4,0.4-0.8,0.4-1.2,0l-3.4-3.4c-0.4-0.4-0.4-0.8,0-1.2l0,0c0.6-0.6,1.7-0.6,2.3,0
		l2.3,2.3C30.1,24.2,30.1,25.2,29.5,25.9z"/>
</g>
</svg>
