<svg xmlns="http://www.w3.org/2000/svg" xmlns:xlink="http://www.w3.org/1999/xlink" viewBox="0 0 48 48"><defs><style>.cls-1{fill:url(#linear-gradient);}.cls-2,.cls-3{fill:#fff;}.cls-2{opacity:0.9;}.cls-3{opacity:0.5;}</style><linearGradient id="linear-gradient" x1="8.61" y1="8.61" x2="40.62" y2="40.62" gradientUnits="userSpaceOnUse"><stop offset="0" stop-color="#64688c"/><stop offset="0.07" stop-color="#5f6286"/><stop offset="0.45" stop-color="#454668"/><stop offset="0.77" stop-color="#353556"/><stop offset="1" stop-color="#2f2f4f"/></linearGradient></defs><g id="Layer_1" data-name="Layer 1"><rect class="cls-1" x="4" y="4" width="40" height="40" rx="10"/><path class="cls-2" d="M16,25a27.33,27.33,0,0,0,8,.92A27,27,0,0,0,32,25V18.7c-2.16,1.08-5.6,1.3-8,1.3s-5.84-.22-8-1.3Z"/><ellipse class="cls-3" cx="24" cy="16" rx="8" ry="2"/><path class="cls-2" d="M16,32c0,1.1,3.58,2,8,2s8-.9,8-2V27.12a36.44,36.44,0,0,1-8,.8,37.05,37.05,0,0,1-8-.79Z"/></g></svg>