<?xml version="1.0" encoding="UTF-8"?><svg id="b" xmlns="http://www.w3.org/2000/svg" width="24" height="24" viewBox="0 0 24 24"><path d="m16.13062,5.20998l1.21198.60699c.36401.18103.65997.47705.841.84003l.60699,1.21301c.05823.11597.19952.16278.31549.10449.04517-.02264.08185-.05933.10449-.10449l.60602-1.21301c.18213-.36359.47717-.65833.841-.84003l1.21301-.60699c.11597-.05823.16278-.19946.10449-.31543-.02271-.04523-.05933-.08185-.10449-.10455l-1.21301-.60699c-.3634-.18182-.65814-.47656-.84003-.84003l-.60699-1.21295c-.05823-.11603-.19946-.16278-.31543-.10455-.04523.02271-.08185.05933-.10455.10455l-.60699,1.21295c-.18188.36346-.47656.6582-.84003.84003l-1.21295.60699c-.11603.05829-.16278.19952-.10455.31549.02271.04517.05933.08185.10455.10449Z" fill="#fde047" stroke-width="0"/><path d="m15.69757,11.51003l-2.82996-1.41504c-.849-.42456-1.53748-1.11298-1.96204-1.96198l-1.41498-2.83002c-.05298-.10583-.13879-.19165-.24463-.24463-.27063-.1355-.59985-.026-.73535.24463l-1.41504,2.83002c-.4245.84906-1.11298,1.53748-1.96198,1.96198l-2.83002,1.41504c-.10663.0531-.19299.13947-.24615.24609-.13495.27094-.02472.59991.24615.73486l2.83002,1.414c.849.4245,1.53748,1.11298,1.96198,1.96204l1.41504,2.82996c.0531.10663.13947.19305.24609.24615.27094.13495.59991.02478.73486-.24615l1.414-2.82996c.4245-.84906,1.11298-1.53754,1.96204-1.96204l2.82996-1.41498c.10583-.05298.19165-.13879.24463-.24463.13556-.27063.026-.59985-.24463-.73535Z" fill="#a855f7" stroke-width="0"/><path d="m21.87061,18.78999l-1.21301-.60602c-.36359-.18207-.65833-.47717-.84003-.841l-.60699-1.21295c-.05823-.11603-.19946-.16278-.31543-.10455-.04523.02271-.08185.05933-.10455.10455l-.60699,1.21295c-.18188.36346-.47656.6582-.84003.84003l-1.21295.60699c-.11603.05829-.16278.19952-.10455.31549.02271.04517.05933.08185.10455.10449l1.21198.60602c.36401.18201.65997.47803.841.841l.60699,1.21301c.05823.11597.19952.16278.31549.10449.04517-.02264.08185-.05933.10449-.10449l.60602-1.21301c.18213-.36359.47717-.65833.841-.84003l1.21301-.60699c.11597-.05823.16278-.19946.10449-.31543-.02271-.04523-.05933-.08185-.10449-.10455Z" fill="#fde047" stroke-width="0"/></svg>