<svg xmlns="http://www.w3.org/2000/svg" xmlns:xlink="http://www.w3.org/1999/xlink" viewBox="0 0 48 48"><defs><style>.cls-1{fill:url(#linear-gradient);}.cls-2,.cls-3{fill:#fff;}.cls-2{opacity:0.9;}.cls-3{opacity:0.5;}</style><linearGradient id="linear-gradient" x1="8.61" y1="8.61" x2="40.62" y2="40.62" gradientUnits="userSpaceOnUse"><stop offset="0" stop-color="#3fbcff"/><stop offset="0.1" stop-color="#3fb3ff"/><stop offset="0.46" stop-color="#3f95ff"/><stop offset="0.78" stop-color="#3f83ff"/><stop offset="1" stop-color="#3f7cff"/></linearGradient></defs><g id="Layer_1" data-name="Layer 1"><rect class="cls-1" x="4" y="4" width="40" height="40" rx="10"/><path class="cls-2" d="M24,13A11,11,0,1,0,35,24,11,11,0,0,0,24,13ZM15.06,25h3a15.83,15.83,0,0,0,1.8,7A9,9,0,0,1,15.06,25Zm3-2h-3a9,9,0,0,1,4.77-7A15.83,15.83,0,0,0,18,23Zm5,9.67c-1.44-.94-2.77-3.8-3-7.67h3ZM23,23H20c.2-3.87,1.53-6.73,3-7.67Zm2,9.67V25h3C27.77,28.87,26.44,31.73,25,32.67ZM25,23V15.33c1.44.94,2.77,3.8,3,7.67Zm3.17,9A15.83,15.83,0,0,0,30,25h3A9,9,0,0,1,28.17,32ZM30,23a15.83,15.83,0,0,0-1.8-7,9,9,0,0,1,4.77,7Z"/><path class="cls-3" d="M25,32.67c1.44-.94,2.78-3.8,3-7.67H25Z"/><path class="cls-3" d="M28.17,16A15.83,15.83,0,0,1,30,23h3A9,9,0,0,0,28.17,16Z"/><path class="cls-3" d="M25,15.33V23h3C27.78,19.13,26.44,16.27,25,15.33Z"/><path class="cls-3" d="M30,25a15.83,15.83,0,0,1-1.8,7,9,9,0,0,0,4.77-7Z"/><path class="cls-3" d="M15.06,25a9,9,0,0,0,4.77,7A15.83,15.83,0,0,1,18,25Z"/><path class="cls-3" d="M15.06,23h3a15.83,15.83,0,0,1,1.8-7A9,9,0,0,0,15.06,23Z"/><path class="cls-3" d="M23,32.67V25H20C20.22,28.87,21.56,31.73,23,32.67Z"/><path class="cls-3" d="M23,15.33c-1.44.94-2.78,3.8-3,7.67h3Z"/></g></svg>