<?xml version="1.0" encoding="UTF-8"?><svg id="b" xmlns="http://www.w3.org/2000/svg" width="24" height="24" viewBox="0 0 24 24"><path d="m21.81364,2.06959c-.97858-.37195-2.63239-.75696-4.94312-.46912-3.39813.42322-5.59778,2.41046-6.72223,4.20508l2.97223,5.69446c4.52777,0,6.37872-3.40192,6.75-4.91766.54529-2.22601,1.38788-3.20941,2.04144-3.64355.33099-.21985.27313-.72803-.09833-.8692Z" fill="#bef264" stroke-width="0"/><path d="m10.57756,5.79298c-2.22852-2.22852-7.15283-2.29297-7.70703-2.29297-.55225,0-1,.44775-1,1,0,.5542.06445,5.47852,2.29297,7.70703,1.76099,1.76099,5.88367,2.7558,7.70703,3.12354v6.16943c0,.55225.44775,1,1,1s1-.44775,1-1v-7c0-.22119-.0376-5.45166-3.29297-8.70703Z" fill="#22c55e" stroke-width="0"/></svg>