<?xml version="1.0" encoding="UTF-8"?><svg id="b" xmlns="http://www.w3.org/2000/svg" width="24" height="24" viewBox="0 0 24 24"><circle cx="12" cy="12" r="10" fill="#22c55e" stroke-width="0"/><path d="m15.99588,12.60961l-4.70869,5.17788c-.47519.52199-1.24677.006-1.08718-.72598l.92758-4.2671c.07025-.32383-.13532-.6433-.45915-.71355-.04154-.00901-.08393-.01358-.12644-.01364h-2.08675c-.60479,0-.88558-.86398-.42839-1.31997l4.5611-4.5599c.48959-.48839,1.23357.0516,1.05958.76918l-.87358,3.61672c-.0782.322.11944.64643.44144.72463.04641.01127.09399.01696.14175.01695h2.18755c.58919,0,.87838.82678.45239,1.29597l-.0012-.0012Z" fill="#bef264" stroke-width="0"/></svg>