<?xml version="1.0" encoding="UTF-8"?><svg id="b" xmlns="http://www.w3.org/2000/svg" width="24" height="24" viewBox="0 0 24 24"><path d="m18.78882,14.89435l-.68237-.34119c-.56946-.28473-.73138-1.02197-.33368-1.5191l1.92749-2.40936c.5238-.65479.05762-1.62469-.78088-1.62469H5.08063c-.8385,0-1.30469.96991-.78088,1.62469l1.92749,2.40936c.39771.49713.23578,1.23438-.33368,1.5191l-.68237.34119c-1.35516.67749-2.21118,2.06256-2.21118,3.57764v2.52802c0,.55225.44769,1,1,1h3v-3c0-.55231.44769-1,1-1s1,.44769,1,1v3h6v-3c0-.55231.44769-1,1-1s1,.44769,1,1v3h3c.55231,0,1-.44775,1-1v-2.52802c0-1.51508-.85602-2.90015-2.21118-3.57764Z" fill="#22c55e" stroke-width="0"/><path d="m8,7v2c0,2.20911,1.79083,4,4,4s4-1.79089,4-4v-2h-8Z" fill="#bef264" stroke-width="0"/><path d="m18.3623,6.93213c-.1123.04346-2.78711,1.06787-6.3623,1.06787s-6.25-1.02441-6.3623-1.06787c-.51465-.2002-.76855-.77832-.56934-1.29297.19922-.51416.78223-.76953,1.29297-.57178.01215.00482.68097.25476,1.75714.49487.29187-1.03473,1.08575-3.56226,1.88153-3.56226.52393,0,1.04779.27448,1.42792.53583.34698.23859.79718.23859,1.14417,0,.38013-.26135.90399-.53583,1.42792-.53583.7962,0,1.59064,2.5304,1.88208,3.56403,1.07715-.24048,1.74292-.49133,1.75562-.49615.5127-.19971,1.09473.0542,1.29395.56982.2002.51465-.05469,1.09424-.56934,1.29443Z" fill="#22c55e" stroke-width="0"/></svg>