<?xml version="1.0" encoding="utf-8"?>
<!-- Generator: Adobe Illustrator 26.5.0, SVG Export Plug-In . SVG Version: 6.00 Build 0)  -->
<svg version="1.1" id="Layer_1" xmlns="http://www.w3.org/2000/svg" xmlns:xlink="http://www.w3.org/1999/xlink" x="0px" y="0px"
	 viewBox="0 0 40 40" style="enable-background:new 0 0 40 40;" xml:space="preserve">
<style type="text/css">
	.st0{fill:url(#SVGID_1_);}
	.st1{opacity:0.5;fill:#FFFFFF;enable-background:new    ;}
	.st2{fill:#FFFFFF;}
</style>
<linearGradient id="SVGID_1_" gradientUnits="userSpaceOnUse" x1="-1.818989e-12" y1="9.094947e-13" x2="28.599" y2="28.599">
	<stop  offset="0" style="stop-color:#3FD6FF"/>
	<stop  offset="1" style="stop-color:#42BA96"/>
</linearGradient>
<path class="st0" d="M10,0h20c5.5,0,10,4.5,10,10v20c0,5.5-4.5,10-10,10H10C4.5,40,0,35.5,0,30V10C0,4.5,4.5,0,10,0z"/>
<path class="st1" d="M20,8.6C13.7,8.6,8.6,13.7,8.6,20S13.7,31.4,20,31.4S31.4,26.3,31.4,20S26.3,8.6,20,8.6z M20,29.3
	c-5.2,0-9.3-4.2-9.3-9.3s4.2-9.3,9.3-9.3s9.3,4.2,9.3,9.3S25.2,29.3,20,29.3z"/>
<path class="st2" d="M20,10.7c-5.2,0-9.3,4.2-9.3,9.3s4.2,9.3,9.3,9.3s9.3-4.2,9.3-9.3S25.2,10.7,20,10.7z M23.8,22.8
	c-0.3,0.4-0.7,0.8-1.1,1c-0.5,0.3-1.1,0.4-1.7,0.5v1c0,0.1,0,0.2-0.1,0.2s-0.1,0.1-0.2,0.1h-1.2c-0.1,0-0.2,0-0.2-0.1
	c-0.1-0.1-0.1-0.2-0.1-0.2v-1c-0.7-0.1-1.3-0.3-1.8-0.5c-0.5-0.3-0.8-0.6-1.1-1c-0.2-0.4-0.4-0.8-0.4-1.2c0-0.1,0-0.1,0.1-0.2
	s0.1-0.1,0.2-0.1H18c0.1,0,0.2,0,0.3,0.1c0.1,0,0.1,0.1,0.2,0.2s0.2,0.3,0.3,0.4c0.1,0.1,0.3,0.2,0.5,0.3c0.2,0.1,0.5,0.1,0.8,0.1
	c0.5,0,1-0.1,1.2-0.2c0.3-0.2,0.4-0.4,0.4-0.7c0-0.2-0.1-0.4-0.2-0.5s-0.4-0.2-0.7-0.4c-0.3-0.1-0.8-0.2-1.3-0.3
	c-0.7-0.1-1.3-0.3-1.8-0.6c-0.5-0.2-0.9-0.6-1.1-0.9c-0.3-0.4-0.4-0.9-0.4-1.4c0-0.8,0.3-1.4,0.8-1.9s1.3-0.8,2.2-1v-1
	c0-0.1,0-0.2,0.1-0.2c0.1-0.1,0.1-0.1,0.2-0.1h1.2c0.1,0,0.2,0,0.2,0.1c0.1,0.1,0.1,0.2,0.1,0.2v1c0.6,0.1,1.2,0.3,1.6,0.6
	s0.8,0.6,1,1s0.3,0.7,0.4,1c0,0.1,0,0.1-0.1,0.2c0,0.1-0.1,0.1-0.2,0.1h-1.9c-0.1,0-0.2,0-0.3-0.1c-0.1,0-0.1-0.1-0.2-0.2
	c-0.1-0.2-0.2-0.4-0.4-0.5c-0.2-0.2-0.6-0.2-0.9-0.2c-0.4,0-0.7,0.1-1,0.2c-0.2,0.1-0.3,0.4-0.3,0.7c0,0.2,0.1,0.3,0.2,0.5
	c0.1,0.1,0.3,0.3,0.6,0.4c0.3,0.1,0.7,0.2,1.2,0.3c0.8,0.2,1.5,0.4,2,0.6s0.9,0.5,1.2,0.9c0.2,0.4,0.4,0.8,0.4,1.4
	C24.2,21.9,24.1,22.4,23.8,22.8z"/>
</svg>
