<svg id="Layer_1" data-name="Layer 1" xmlns="http://www.w3.org/2000/svg" xmlns:xlink="http://www.w3.org/1999/xlink" viewBox="0 0 48 48"><defs><style>.cls-1{fill:url(#linear-gradient);}.cls-2,.cls-3{fill:#fff;}.cls-2{opacity:0.5;}.cls-3{opacity:0.9;}</style><linearGradient id="linear-gradient" x1="8.61" y1="8.61" x2="40.62" y2="40.62" gradientUnits="userSpaceOnUse"><stop offset="0" stop-color="#ff99f3"/><stop offset="0.11" stop-color="#ff87e0"/><stop offset="0.38" stop-color="#ff5eb7"/><stop offset="0.63" stop-color="#ff4199"/><stop offset="0.85" stop-color="#ff2f87"/><stop offset="1" stop-color="#ff2980"/></linearGradient></defs><rect class="cls-1" x="4" y="4" width="40" height="40" rx="10"/><path class="cls-2" d="M32,32v1a1,1,0,0,1-1,1H17a1,1,0,0,1-1-1V32a4,4,0,0,1,4-4h8A4,4,0,0,1,32,32Z"/><path class="cls-3" d="M30,22c-2-1-2-4-2-4a4,4,0,0,0-8,0s0,3-2,4a8.76,8.76,0,0,0,6,2A8.76,8.76,0,0,0,30,22Z"/></svg>