<?xml version="1.0" encoding="utf-8"?>
<!-- Generator: Adobe Illustrator 25.2.1, SVG Export Plug-In . SVG Version: 6.00 Build 0)  -->
<svg version="1.1" id="Layer_1" xmlns="http://www.w3.org/2000/svg" xmlns:xlink="http://www.w3.org/1999/xlink" x="0px" y="0px"
	 viewBox="0 0 1000 300" style="enable-background:new 0 0 1000 300;" xml:space="preserve">
<style type="text/css">
	.st0{fill:#316DF0;}
</style>
<g id="Calque_2">
	<g id="Global_Horizontal">
		<g id="RipplesB.CompoundShape">
			<path class="st0" d="M57.57,186.94c1.13,2.62,2.36,5.19,3.7,7.67c0.98,0,1.95-0.08,2.93-0.08c13.75-0.03,26.93,5.43,36.62,15.18
				l0.37,0.4c0.99-2.68,2.11-5.3,3.33-7.87c-11-10.1-25.39-15.69-40.32-15.67C61.98,186.58,59.77,186.7,57.57,186.94z M51.97,168.99
				c0.54,2.62,1.2,5.2,1.96,7.74c3.4-0.5,6.83-0.75,10.27-0.75c16.7-0.05,32.87,5.89,45.55,16.76c1.38-2.28,2.91-4.49,4.51-6.63
				c-14.04-11.69-31.74-18.07-50.01-18.04c-4.09,0.01-8.17,0.33-12.2,0.97L51.97,168.99z M67.15,204.06
				c2.36,3.35,4.94,6.55,7.72,9.57c8.23,2.73,15.13,8.46,19.33,16.05c0.59,0.37,1.19,0.75,1.79,1.1c0.49-3.35,1.16-6.66,2-9.94
				c-7.35-9.76-18.57-15.86-30.75-16.73L67.15,204.06z M64.17,150.22c-4.73,0-9.46,0.35-14.14,1.05c0,2.68,0.17,5.36,0.43,7.98
				c4.53-0.71,9.12-1.06,13.71-1.06c20.59-0.06,40.55,7.15,56.35,20.36c1.79-1.95,3.67-3.84,5.63-5.63
				c-17.29-14.66-39.23-22.69-61.9-22.68L64.17,150.22z"/>
		</g>
		<g id="RipplesA.CompoundShape">
			<path class="st0" d="M156.01,243.23c2.76-0.35,5.38-0.79,8.02-1.38c0.92-15.07,13.88-26.53,28.95-25.61
				c4.69,0.29,9.22,1.78,13.17,4.33c2.02-1.79,3.98-3.67,5.87-5.63c-15.79-11.44-37.85-7.91-49.29,7.88
				c-4.3,5.94-6.65,13.06-6.71,20.39L156.01,243.23z M134.32,243.51c2.62,0.26,5.29,0.4,7.96,0.46c0-0.12,0-0.26,0-0.39
				c0-27.08,21.95-49.03,49.02-49.04c10.63,0,20.97,3.45,29.46,9.84c1.55-2.16,3-4.4,4.35-6.71
				c-25.34-18.67-61.02-13.26-79.69,12.08C138.22,219.53,134.33,231.36,134.32,243.51z M191.32,147.5
				c-48.14-0.01-88.86,35.61-95.25,83.33c2.44,1.38,4.94,2.76,7.52,4.03c4.86-48.46,48.08-83.81,96.55-78.96
				c12.8,1.28,25.16,5.35,36.22,11.91c0.52-2.76,0.95-5.52,1.23-8.43C223.41,151.58,207.5,147.49,191.32,147.5z M114.01,239.05
				c2.57,0.87,5.19,1.63,7.87,2.29c1.2-38.38,33.29-68.52,71.67-67.32c13.39,0.42,26.37,4.69,37.38,12.31
				c1.05-2.51,1.97-5.07,2.76-7.67c-35.84-23.38-83.85-13.27-107.23,22.57C119.09,212.53,114.8,225.57,114.01,239.05z"/>
		</g>
		<g id="Compass_Ring">
			<path class="st0" d="M144.09,30.35C78.01,30.35,24.44,83.92,24.44,150s53.57,119.65,119.65,119.65S263.74,216.08,263.74,150
				S210.17,30.35,144.09,30.35C144.09,30.35,144.09,30.35,144.09,30.35z M217.78,223.68c-17.46,17.53-40.62,28.22-65.29,30.15
				l-8.39,14.54l-8.39-14.54c-50.97-4-91.45-44.49-95.44-95.45L25.82,150l14.51-8.38c3.98-50.95,44.44-91.43,95.38-95.45l8.38-14.44
				l8.38,14.51c50.95,3.98,91.43,44.44,95.45,95.38l14.51,8.38l-14.51,8.38C246,183.05,235.31,206.22,217.78,223.68z"/>
		</g>
		<path class="st0" d="M351.98,82.24h19.23l53.83,124.9H399.6l-11.64-28.57h-54.15l-11.29,28.57h-24.85L351.98,82.24z
			 M380.21,159.54l-19.23-50.84l-19.59,50.81L380.21,159.54z"/>
		<path class="st0" d="M549.9,197.97c-15.41,8.23-32.63,12.34-51.68,12.34c-9.06,0.1-18.05-1.47-26.53-4.65
			c-15.75-5.89-28.29-18.16-34.51-33.78c-3.38-8.47-5.06-17.52-4.94-26.64c-0.12-9.33,1.56-18.59,4.94-27.28
			c3.07-7.83,7.73-14.95,13.68-20.9c5.94-5.84,13.04-10.38,20.83-13.32c8.48-3.2,17.48-4.78,26.54-4.68
			c9.05-0.06,18.08,1.1,26.82,3.45c8.32,2.28,15.99,6.48,22.4,12.26l-16.41,16.58c-4.17-3.98-9.13-7.05-14.55-9
			c-5.79-2.13-11.91-3.2-18.08-3.17c-6.03-0.09-12.01,1.08-17.56,3.44c-5.11,2.21-9.7,5.46-13.49,9.54
			c-3.8,4.12-6.77,8.94-8.74,14.19c-2.09,5.59-3.14,11.51-3.09,17.48c-0.06,6.3,0.98,12.57,3.09,18.51
			c1.92,5.41,4.89,10.39,8.74,14.65c3.78,4.12,8.37,7.41,13.49,9.66c5.53,2.42,11.52,3.62,17.56,3.53
			c5.36,0.02,10.71-0.51,15.96-1.59c4.67-0.94,9.17-2.61,13.32-4.94v-29.42h-25.63v-20.11h47.8L549.9,197.97z"/>
		<path class="st0" d="M575.65,82.24h22.24v124.9h-22.24V82.24z"/>
		<path class="st0" d="M710.96,111.53c-4.6-4.94-9.04-8.24-13.32-9.88c-4.13-1.61-8.53-2.45-12.96-2.47
			c-6.03-0.09-12.01,1.08-17.56,3.44c-5.11,2.21-9.7,5.46-13.49,9.54c-3.8,4.12-6.77,8.94-8.74,14.19
			c-2.09,5.59-3.13,11.51-3.08,17.48c-0.07,6.3,0.97,12.57,3.08,18.51c1.92,5.41,4.89,10.39,8.74,14.65
			c3.78,4.12,8.37,7.41,13.49,9.66c5.53,2.42,11.52,3.62,17.56,3.53c5.14,0,10.2-1.23,14.77-3.58c5.24-2.82,9.79-6.77,13.32-11.55
			l18.35,13.04c-5.23,7.42-12.39,13.28-20.71,16.94c-8.19,3.54-17.02,5.34-25.94,5.29c-9.05,0.1-18.04-1.47-26.52-4.65
			c-15.76-5.88-28.29-18.15-34.51-33.78c-3.38-8.47-5.06-17.52-4.94-26.64c-0.1-9.33,1.61-18.59,5.02-27.28
			c3.06-7.84,7.72-14.95,13.67-20.9c5.94-5.84,13.03-10.37,20.82-13.32c8.48-3.2,17.48-4.78,26.54-4.68
			c8.07-0.07,16.08,1.45,23.55,4.5c7.83,3.45,14.75,8.68,20.21,15.27L710.96,111.53z"/>
		<path class="st0" d="M797.05,82.24h19.23l53.83,124.9h-25.4l-11.64-28.57h-54.21l-11.29,28.57h-24.85L797.05,82.24z
			 M825.27,159.54l-19.23-50.84l-19.63,50.81L825.27,159.54z"/>
		<path class="st0" d="M887.54,82.24h41.99c5.84-0.01,11.66,0.58,17.38,1.77c5.23,1.04,10.23,3.05,14.73,5.91
			c4.26,2.8,7.74,6.62,10.15,11.11c2.68,5.39,3.96,11.36,3.74,17.38c0,7.89-1.35,14.24-4.04,19.05c-2.56,4.66-6.34,8.54-10.95,11.21
			c-4.94,2.77-10.35,4.6-15.96,5.38c-6.28,0.95-12.62,1.41-18.97,1.38h-15.87v51.68h-22.2V82.24z M923.18,136.4
			c3.17,0,6.46-0.12,9.88-0.36c3.24-0.21,6.42-0.95,9.43-2.17c2.78-1.1,5.22-2.93,7.05-5.29c1.99-2.9,2.96-6.37,2.76-9.88
			c0.17-3.27-0.7-6.51-2.47-9.26c-1.63-2.27-3.82-4.09-6.35-5.29c-2.73-1.28-5.66-2.08-8.66-2.39c-3.04-0.35-6.1-0.52-9.17-0.52
			h-15.87v35.16H923.18z"/>
	</g>
</g>
</svg>
