<svg id="Layer_1" data-name="Layer 1" xmlns="http://www.w3.org/2000/svg" viewBox="0 0 218 72"><defs><style>.cls-1{fill:#4bd2b2;fill-rule:evenodd;}</style></defs><path class="cls-1" d="M64.25,7A34.54,34.54,0,0,0,48.18,1.34a62,62,0,0,0-29.6,3.54A31.94,31.94,0,0,0,6.67,12.39c-3.55,3.7-3.7,8.46-.56,12.47A4.1,4.1,0,0,0,8,26.28c.51.15,1.07.35,1.52-.16a1.14,1.14,0,0,0,.11-1.42c-1.27-2.38-.21-4.41,1.16-6.28a17.2,17.2,0,0,1,5.88-4.72C25.52,8.94,35.1,7.06,45,6.81A35.31,35.31,0,0,1,57.25,8.59C63,10.66,67,14.36,67.9,20.65a25.59,25.59,0,0,1-1.32,11.86,54.65,54.65,0,0,1-19,25.75c-4.81,3.7-10,6.59-16.07,7.65-2.18.41-4.36.46-6.23-1.11-.46-.41-1.07-1.07-1.78-.61s-.35,1.27-.3,2c.05.2.15.4.2.6,1,2.84,3.25,3.91,6,4.21a27.85,27.85,0,0,0,14.15-2.63C54.16,63.73,62,56,67.85,46.3,71.8,39.76,74.43,32.81,74,25,73.62,17.51,70.58,11.37,64.25,7Z"/><path class="cls-1" d="M35.2,26a71.43,71.43,0,0,1,5.48-10.29,2.48,2.48,0,0,0-.21-3.55,3,3,0,0,0-3.75-.3,7.8,7.8,0,0,0-2.08,2,57.9,57.9,0,0,0-5.17,8.41A174.87,174.87,0,0,0,18,52.08a44.28,44.28,0,0,0-2,11.1,4.76,4.76,0,0,0,2.54,4.1c1.92,1.17,3.44.36,3.54-1.87a31.42,31.42,0,0,1,1.07-6.49A219.59,219.59,0,0,1,35.2,26Z"/><path class="cls-1" d="M211.85,26.78a4.1,4.1,0,0,0-4-1.47,12.43,12.43,0,0,0-6.28,3.3,50,50,0,0,0-7.55,8.51c-.31.41-.6.81-.89,1.22s-.58.81-.89,1.22a1,1,0,0,1,0-.77c.54-1.49,1.07-3,1.6-4.46l1.6-4.46a3.24,3.24,0,0,0-1.42-4.25,3.31,3.31,0,0,0-4.26,1.62,7.68,7.68,0,0,0-.56,1.11c-.38,1-.75,2.07-1.11,3.1h0L187,34.54c-.26.74-.47,1.5-.68,2.25a16.28,16.28,0,0,1-1.8,4.64A48.56,48.56,0,0,1,173.12,53.9a20.46,20.46,0,0,1-8.36,4c-2.89.51-4.82-.5-5.83-3.29a12.83,12.83,0,0,1-.31-5.34v0c.1-.81.25-1.07,1.06-.66a7.84,7.84,0,0,0,5.68.25c4.76-1.32,7.85-4.61,10.44-8.57a13.48,13.48,0,0,0,2.48-8.46,8.56,8.56,0,0,0-6.23-7.6,10.55,10.55,0,0,0-9,2c-5,3.6-8.11,8.67-9.94,14.45-1,3-3.09,4.77-5.67,6.08-2,1-3.86.21-4.72-1.92a11.75,11.75,0,0,1-.71-3.3C141.9,39,143,37,144.43,35A17.84,17.84,0,0,0,148,28,3.08,3.08,0,0,0,145,24.2a4.9,4.9,0,0,0-4.36,2.33,23.46,23.46,0,0,0-3,6.94,14.23,14.23,0,0,0-.41,1.94,8.46,8.46,0,0,1-.8,2.83c-3.25,5.57-6.64,11-11.1,15.81a12.78,12.78,0,0,1-3.15,2.54c-1.37.76-2.28.3-2.38-1.32a15.44,15.44,0,0,1,.1-3,111.13,111.13,0,0,1,6.24-23.17,3,3,0,0,0-.61-3.39,3.12,3.12,0,0,0-3.65-.51,5.3,5.3,0,0,0-2.48,2.89,68.85,68.85,0,0,0-2.54,6.89c0,.15-.08.31-.12.47a2.2,2.2,0,0,1-.69,1.36,12.62,12.62,0,0,1-8.41,2.89c-1,0-1.42-.36-1.17-1.52a13.37,13.37,0,0,0-.46-7.86c-2.63-6.64-11.91-9.07-17.38-5.07A32.76,32.76,0,0,0,77.83,39.1c-1.93,4.41-3.14,9-2.43,13.89a11.19,11.19,0,0,0,12.87,9.68c3.7-.51,6.44-2.54,8.92-5.12a35.87,35.87,0,0,0,7.45-12.27c.31-.81.61-1.06,1.47-.91a14.75,14.75,0,0,0,4.92-.15,11.11,11.11,0,0,0,1.6-.43,10.26,10.26,0,0,1,2-.48,5.08,5.08,0,0,1-.46,1.36,44.57,44.57,0,0,0-1.16,10,7.87,7.87,0,0,0,10.14,7.71c2.37-.6,3.93-2.36,5.46-4.09l.11-.12a68.78,68.78,0,0,0,5.17-7.1h0c.55-.83,1.11-1.66,1.67-2.48.2-.3.39-.6.58-.9a13.17,13.17,0,0,1,1.65-2.29c3.3,6.94,6,8,13.64,5.37.1.66.2,1.26.3,1.87h0a12.51,12.51,0,0,0,2.89,6.39c3.4,3.85,9,5.07,14.45,3.09a29.63,29.63,0,0,0,10.79-7.35,2.39,2.39,0,0,0,.22-.23h0a2.74,2.74,0,0,1,1.09-.83c-.07.36-.15.72-.22,1.07h0c-.18.81-.34,1.59-.49,2.37a3.83,3.83,0,0,0,.16,2.39,4.14,4.14,0,0,0,3.19,2.58c1.37.31,2.53-.45,3-2a52.88,52.88,0,0,1,3.95-9.42,76.09,76.09,0,0,1,10.9-15.36,13,13,0,0,1,5.68-3.9,2.5,2.5,0,0,1,3.34,1.82l.2.57h0a7.56,7.56,0,0,0,.41,1.1,1.6,1.6,0,0,0,1.73.81,1.23,1.23,0,0,0,1.06-1.36C214,31.65,213.67,29,211.85,26.78ZM160.2,43.46c1.67-4.36,3.6-8.57,6.79-12.07a9.49,9.49,0,0,1,3.55-2.58c2-.71,3.24.15,3.19,2.53a5.05,5.05,0,0,1-.51,2,21.43,21.43,0,0,1-8.46,10,6.43,6.43,0,0,1-3.85,1.06C160.35,44.37,159.89,44.22,160.2,43.46ZM100.64,31.24c-2.23,2.44-2.38,5.27-1.42,8.26a2.56,2.56,0,0,1,0,1.83,41.72,41.72,0,0,1-8.31,13.18A11.21,11.21,0,0,1,87,57.25c-2.83,1.16-4.51.25-5.22-2.74A8,8,0,0,1,81.61,53c0-.25,0-.5,0-.75.25-4.82,2-9.18,4.21-13.38A29.25,29.25,0,0,1,92,30.79c1.78-1.58,3.7-2.79,6.24-2.69a2.54,2.54,0,0,1,2.63,2.23v0A.85.85,0,0,1,100.64,31.24Z"/></svg>