<svg id="Layer_1" data-name="Layer 1" xmlns="http://www.w3.org/2000/svg" viewBox="0 0 480 62"><defs><style>.cls-1{fill:#3a65ff;}</style></defs><path d="M68.78,59.34H56.52V21.55L40.61,59.67H28.67L12.76,21.55V59.67H.5V1H16.08L34.31,46.08,52.87,1H68.45ZM87,12.27V24.2h20.22V35.48H87V48.4H108.9V59.67H74.75V1H108.9V12.27Zm39.11,0V24.2h41.44V35.48H126.13V48.4h44.09V59.67h-56V1h56V12.27Zm78.9,0h-9.28V59.34H183.48V12.27H174.2V1H205Zm16.9,0V26.52h29.84V37.8H221.93V59.34H209.67V1h45.41V12.27Zm82.88,47.07H289.23L273,39.78V59.34H260.72V1h19.89A17.79,17.79,0,0,1,293.2,6a17.29,17.29,0,0,1,4,5.64,14.77,14.77,0,0,1,1.33,6.63,19.13,19.13,0,0,1-1,6.3,11.86,11.86,0,0,1-3.64,5.3,16,16,0,0,1-10.61,4.31h-.33ZM273,23.87h8a5.66,5.66,0,0,0,2.32-.33,6.94,6.94,0,0,0,2-1.32c.33-.67,1-1.33,1-2a5,5,0,0,0,.33-2.32,5.64,5.64,0,0,0-.33-2.32,6.81,6.81,0,0,0-1.32-2,6.92,6.92,0,0,0-2-1.33,4.94,4.94,0,0,0-2.32-.33h-8V23.87Z"/><path d="M324.36,47.41h-9.94l-1.66,11.93H300.83L310.77,1h16.91L338,59.34H326Zm-1.65-11.27-3.32-24.53-3.31,24.53ZM409.23,1V59.34H395.64L354.2,16.25V59.34H341.93V1h14.59L397,41.44V1Zm23.86,36.46-3,4V59.67H418.18V1h12.26V21.55L444.36,1h14.26l-17.9,25.52,18.56,33.15H445.69Z"/><path class="cls-1" d="M471.22,61a8.29,8.29,0,1,0-8.29-8.29A8.2,8.2,0,0,0,471.22,61Z"/></svg>