<svg id="Layer_1" data-name="Layer 1" xmlns="http://www.w3.org/2000/svg" viewBox="0 0 643.93 170.94"><defs><style>.cls-1{fill:#292827;}</style></defs><path class="cls-1" d="M45.62,57.09c-15.38,0-22.93,13.69-22.93,32v45.81H1V38.2H22.32V63.28h.37C27.24,47.86,36.31,35.4,50.29,35.4c9.84,0,14,3.47,14,3.47l-9.79,19.9S51.37,57.09,45.62,57.09ZM307.83,70.36v64.51H286.7V78.21c0-16.26-5.05-24.86-17.95-24.86-13.35,0-19.81,10.89-19.81,31.78v49.74H228V78.21c0-15.63-5-24.86-17.77-24.86-14.58,0-20.19,12.9-20.19,31.78v49.74H168.73V38.2H190V60.09h.19c3.32-15.15,12.38-24.5,27.67-24.5s25,8.23,28.79,22.82c3.57-14,13.07-22.82,27.67-22.82C294.73,35.59,307.83,48.49,307.83,70.36Zm-200.92-35c-19.6,0-32.44,9.3-38.29,26.09l18,6.63C90,58,96.81,52.23,107.28,52.23c11.78,0,18.7,5.23,18.7,13.27,0,8.22-5.51,10-18,12-13.83,2.25-46.74,3-46.74,31,0,16.43,13.6,28.8,34,28.8,15.36,0,25.82-6.34,30.66-18.14h.19v15.71h21.12V75.41C147.29,49.4,134.33,35.4,106.91,35.4Zm19.63,54c0,20.27-9.93,33.3-25.8,33.3-11.22,0-17.95-6.36-17.95-15.53,0-8.6,6.92-14.57,20.19-17,13.58-2.52,20.42-5.63,23.56-13.09ZM383,35.59c-16.16,0-26.84,9-31.41,22.45V38.2H329.15V172.07h22.24V115h.19c4.95,14.6,15.26,22.64,31.41,22.64,25.61,0,43.94-21.31,43.94-51.42C426.93,56.34,408.6,35.59,383,35.59Zm-5.51,84.13c-17.74,0-27.58-13-27.58-33.18s11-33.19,27.58-33.19S405.05,67,405.05,86.54,394,119.72,377.48,119.72Zm267.45,14.53v.59l-84.19,0v-.61a131.45,131.45,0,0,0,28.06-21.56h34.58ZM624.07,22.47,602.73,1.13h-.61s.36,39.77-35.47,75.94c-35.07,35.4-76.3,35.47-76.3,35.47v.62l21.74,21.71s40.63.41,76.52-35.48S624.07,22.47,624.07,22.47Z" transform="translate(-1 -1.13)"/></svg>