<?xml version="1.0" encoding="UTF-8"?><svg id="b" xmlns="http://www.w3.org/2000/svg" width="451.9" height="135.32" viewBox="0 0 451.9 135.32"><g id="c"><path id="d" d="m127.1,71.8c0,10.6-1.2,20-3.6,30.6-3.6,15.3-14.2,25.9-29.7,29.4-20.2,4.7-41.6,4.7-61.7,0-14.2-3.5-26.1-15.3-28.5-29.4-2.4-10.6-3.6-21.2-3.6-30.6,0-10.6,1.2-20,3.6-30.6,3.6-15.3,14.2-25.9,29.7-29.4,9.5-2.4,20.2-3.5,30.9-3.5s20.2,1.2,30.9,3.5c15.4,3.5,26.1,14.1,29.7,29.4,1.1,9.4,2.3,20,2.3,30.6Z" fill="#f6b802"/><path id="e" d="m102.9,64.8c17.89,0,32.4-14.51,32.4-32.4S120.79,0,102.9,0s-32.4,14.51-32.4,32.4,14.51,32.4,32.4,32.4Z" fill="#005aff"/><path id="f" d="m186.1,111.6V37h24c6.9,0,11.9.7,15,2.1,3.8,1.8,6.8,4.4,8.9,7.9,2.2,3.5,3.3,7.7,3.3,12.5s-1.2,8.7-3.5,12.5c-2.2,3.7-5.3,6.3-9.1,7.9v.2c.7.7,1.5,1.9,2.5,3.7l15.3,27.8h-15.1l-14.7-27.8h-13v27.8h-13.6Zm13.6-39.6h12.2c3.6,0,6.5-1,8.6-3,2.1-2.1,3.1-5,3.1-8.7s-1-6.7-3-8.6c-2-2-5.6-2.9-10.6-2.9h-10.3v23.2Zm49.2,12.8c0-8.3,2.5-15,7.6-20.2,5.1-5.2,11.7-7.9,19.6-7.9s13.3,2.4,17.4,7.2c4.2,4.8,6.3,10.8,6.3,18.2l-.3,5.1h-37c.4,4.5,2.1,8,5.1,10.5,3.1,2.5,6.7,3.7,10.9,3.7,2.5,0,5.1-.5,7.7-1.5s4.5-2,5.9-2.9l1.9-1.5,5.1,9.6c-.2.2-.5.5-.9.8-.4.4-1.4,1-2.8,1.9-1.4.8-2.9,1.6-4.4,2.3-1.5.6-3.5,1.2-6,1.8-2.4.6-4.8.8-7.4.8-8.6,0-15.6-2.7-20.9-8.1-5.2-5.3-7.8-11.9-7.8-19.8h0Zm14-6.6h23.4c-.1-3.5-1.1-6.2-3.1-8.2s-4.4-2.9-7.5-2.9c-3.4,0-6.3,1-8.5,2.9-2.2,2-3.6,4.7-4.3,8.2Zm47.9,54.4V58h12.2v3.9l-.2,3.7h.2c.1-.2.3-.5.5-.9.3-.4.9-1.1,1.9-2.1s2.1-2,3.3-2.7c1.2-.8,2.8-1.5,4.8-2.1,2.1-.6,4.3-.9,6.7-.9,7.2,0,12.9,2.6,17.2,7.8,4.3,5.2,6.5,11.9,6.5,20.3s-2.3,15.2-6.9,20.4c-4.5,5.1-10.4,7.7-17.5,7.7-2,0-3.8-.2-5.7-.7-1.8-.5-3.2-1.1-4.3-1.8-1.1-.8-2.1-1.5-3-2.2-.8-.8-1.4-1.4-1.8-1.9l-.5-.7h-.2c.1,1.3.2,2.8.2,4.6v22.2h-13.4Zm12.9-47.5c0,4.5,1.2,8.4,3.5,11.7,2.4,3.2,5.7,4.8,9.9,4.8,3.8,0,7-1.5,9.6-4.4,2.6-3,3.9-7.1,3.9-12.2s-1.2-9.1-3.7-12.2c-2.4-3.1-5.7-4.6-9.7-4.6s-7,1.4-9.6,4.3c-2.6,2.8-3.9,7-3.9,12.6h0Zm50.5,9.8v-57.9h13.2v55.9c0,2.8.4,4.7,1.3,5.8.9,1,2.3,1.6,4.2,1.6l2-.1v11.7c-1.3.2-2.7.3-4.2.3-2.2,0-4.1-.2-5.8-.5-1.7-.4-3.4-1.2-5.1-2.2-1.8-1.1-3.1-2.9-4.1-5.4s-1.5-5.6-1.5-9.2Zm23.4,35.3l4.4-10c2,1.5,4,2.2,6,2.2,4.2,0,7.3-2.3,9.2-6.9l2-4.7-22.6-52.7h15l11.2,30.9,2,7.2h.2c.6-2.8,1.2-5.1,1.8-7l10.5-31.1h14.6l-23.9,61.6c-1.8,4.7-4.4,8.2-7.9,10.5-3.4,2.3-7.2,3.5-11.4,3.5-1.9,0-3.8-.3-5.7-.8-1.8-.6-3.2-1.1-4.1-1.7l-1.3-1h0Z" fill="#1c1c1c"/></g></svg>