<svg version="1.2" xmlns="http://www.w3.org/2000/svg" viewBox="0 0 1571 282" width="1571" height="282">
	<title>Asset 1-svg</title>
	<style>
		.s0 { fill: #101828 } 
		.s1 { fill: #6e40d7 } 
	</style>
	<g id="_Слой_1">
		<g id="Layer">
			<g id="Layer">
				<path id="Layer" class="s0" d="m358.1 142.4q-7.7-9-18.1-13.3-10.5-4.2-26.6-8.3-15.8-4-23.3-7.9-7.6-3.9-7.6-11.4 0-6.7 5.5-10.5 5.6-3.7 15.7-3.7 11 0 17.6 5.2c4.4 3.5 6.9 8.2 7.4 14.1h36c-1.1-15.1-6.9-27-17.5-35.8q-15.8-13.3-42.4-13.3c-12 0-22.4 2-31.3 5.9q-13.2 5.9-20.4 16.1c-4.7 6.8-7.1 14.3-7.1 22.5 0 10 2.6 18 7.7 23.9q7.6 8.9 18.2 13.2 10.6 4.3 27.3 8.3c10.7 2.8 18.5 5.5 23.5 7.9q7.3 3.6 7.3 10.9c0 4.5-2 8.1-6 11-4 2.8-9.6 4.3-16.8 4.3-7.1 0-13.5-1.9-18.4-5.7q-7.3-5.6-8.4-14.2h-37.8q0.7 13.7 9.2 25c5.6 7.5 13.3 13.5 22.9 17.8 9.7 4.4 20.6 6.6 32.8 6.6 12.1 0 22.1-1.9 31-5.8 8.8-3.8 15.6-9.1 20.4-15.9q7.1-10.2 7.1-23.1c-0.2-9.9-2.8-17.8-8-23.8z"/>
				<path id="Layer" fill-rule="evenodd" class="s0" d="m510.9 87.3c5.7 9.6 8.6 21 8.6 34v87.3h-38.1v-21.2q-6.2 10.2-20.1 17-14 6.9-30.1 6.9c-9.3 0-17.7-1.9-25.2-5.7q-11.3-5.6-17.7-15.5-6.4-10-6.5-22.9 0-20.6 15.4-33.7 15.5-13.2 46.3-13.2h37.9q-0.5-14.2-8.2-22.7-7.6-8.4-21.1-8.4-11.8-0.1-19.5 6.3c-5.2 4.2-8.6 10-10 17.5h-37.6c1.8-10.7 5.7-20.3 11.7-28.8q9-12.8 23.6-19.9c9.8-4.7 20.4-7.1 32.9-7.1q18.8 0 34 7.8 15.1 7.8 23.7 22.3zm-29.5 57.4h-35.7q-12.9 0-19.2 5.1c-4.2 3.4-6.3 8.1-6.3 13.5 0 5.3 1.9 9.6 5.8 12.8q5.7 4.9 16.2 4.9c6.3 0 12.4-1.4 18.4-4.1 6-2.7 11-6.7 14.9-12.1q5.9-8 5.9-19z"/>
				<path id="Layer" class="s0" d="m544.2 10v198.6h37.6v-198.6z"/>
				<path id="Layer" fill-rule="evenodd" class="s0" d="m749.5 145.5h-108.7q1.3 16.1 11.2 25.2 9.9 9.2 24.5 9.1c13.9 0 23.8-6 29.7-17.9h40.6c-4.3 14.3-12.5 26.1-24.7 35.2q-18.3 13.9-44.8 13.9c-14.3 0-27.2-3.2-38.5-9.5q-17.1-9.6-26.6-27c-6.4-11.6-9.5-24.9-9.5-40.3 0-15.3 3.1-28.9 9.3-40.5 6.3-11.6 15.1-20.6 26.4-26.8 11.2-6.3 24.8-9.4 38.9-9.4 14.1 0 26.8 3 37.9 9.1 11.2 6.1 19.9 14.7 26.1 25.9q9.2 16.8 9.2 38.5 0 8.1-1 14.5zm-37.9-25.2q-0.3-14.5-10.5-23.2c-6.7-5.8-15.1-8.8-24.9-8.8-9.3 0-17.2 2.8-23.5 8.5-6.3 5.6-10.2 13.4-11.7 23.5 0 0 70.6 0 70.6 0z"/>
				<path id="Layer" class="s0" d="m880 142.4q-7.6-9-18.1-13.3-10.5-4.2-26.5-8.3-15.9-4-23.4-7.9-7.5-3.9-7.5-11.4 0-6.7 5.5-10.5 5.5-3.7 15.7-3.7 11 0 17.6 5.2 6.5 5.2 7.4 14.1h35.9c-1.1-15.1-6.9-27-17.5-35.8-10.5-8.9-24.6-13.3-42.4-13.3q-17.9 0-31.2 5.9c-8.8 3.9-15.7 9.3-20.4 16.1-4.7 6.8-7.1 14.3-7.1 22.5q0 15.1 7.6 23.9 7.7 8.9 18.3 13.2c7.1 2.8 16.1 5.6 27.2 8.3 10.8 2.8 18.6 5.5 23.5 7.9q7.4 3.6 7.4 10.9 0 6.7-6.1 11c-4 2.8-9.6 4.3-16.7 4.3-7.2 0-13.5-1.9-18.4-5.7-4.9-3.7-7.7-8.5-8.5-14.2h-37.8q0.8 13.7 9.3 25c5.6 7.5 13.3 13.5 22.9 17.8q14.5 6.6 32.8 6.6c12.1 0 22.1-1.9 30.9-5.8 8.9-3.8 15.7-9.1 20.4-15.9q7.1-10.2 7.1-23.1-0.2-14.8-7.9-23.8z"/>
				<path id="Layer" class="s0" d="m948.9 59.9v-6.2c0-8.4 1.8-14.2 5.4-17.4q5.4-4.8 19-4.6v-31.7c-20.9-0.5-36.6 3.5-46.9 12.1q-15.6 12.9-15.6 40.3v7.5l38.1 30.9h26v-30.9zm-38.1 148.7h38.1v-117.8h-38.1z"/>
				<path id="Layer" fill-rule="evenodd" class="s0" d="m1137.6 134.2c0 15.3-3.5 28.7-10.3 40.3-6.9 11.6-16.3 20.6-28 27-11.7 6.3-25 9.5-39.3 9.5q-21.5 0-38.6-9.5-17.2-9.5-27-27-9.8-17.5-9.8-40.3c0-15.2 3.4-28.6 10.1-40.2 6.7-11.6 15.9-20.6 27.5-27 11.6-6.3 24.6-9.5 38.9-9.5 14.3 0 27.3 3.2 38.9 9.5 11.6 6.4 20.8 15.4 27.5 27 6.7 11.6 10.1 25 10.1 40.2zm-38.7 0c0-14.1-3.7-25-11.1-32.6-7.4-7.6-16.5-11.4-27.2-11.4q-16.2 0-27 11.4-10.9 11.4-10.9 32.6 0 21.3 10.6 32.6c7.1 7.7 16 11.5 26.7 11.5 6.8 0 13.2-1.7 19.2-5 6-3.3 10.8-8.3 14.4-14.9q5.3-9.9 5.3-24.2z"/>
				<path id="Layer" class="s0" d="m1213.3 64.5q-11.7 6.7-18.9 18.5v-23.1h-37.6v148.7h37.6v-74.1q0-20.7 9-29 9-8.3 26.7-8.3h9.9v-37.3c-10 0-18.9 0.1-26.7 4.6z"/>
				<path id="Layer" fill-rule="evenodd" class="s0" d="m1405 59.9v149.7q0 20.7-8.3 36.9-8.3 16.3-24.9 25.8-16.7 9.5-40.3 9.5-31.7 0-51.9-14.7-20.3-14.8-23-40.3h37.3c2 6.8 6.3 12.3 12.8 16.3q9.8 6 23.7 6 16.4 0 26.6-9.8c6.8-6.5 10.2-16.4 10.2-29.7v-23c-4.8 7-11.5 12.8-20 17.4q-12.8 7-29.1 7c-12.5 0-24-3.2-34.4-9.7-10.3-6.4-18.5-15.5-24.5-27.2-6-11.7-9-25.4-9-40.4q0-22.6 9-40 9-17.4 24.4-26.8 15.4-9.4 34.5-9.4 16.6 0 29.3 6.6c8.4 4.4 15 10 19.8 17v-21.2c0 0 37.8 0 37.8 0zm-37.8 74.3c0-9.1-1.8-16.9-5.4-23.4-3.5-6.6-8.4-11.6-14.5-15.1-6-3.5-12.6-5.2-19.6-5.2q-10.4 0-19.3 5.1c-5.9 3.4-10.6 8.4-14.3 14.9-3.7 6.5-5.5 14.2-5.5 23.2q-0.1 13.4 5.5 23.5c3.7 6.7 8.5 11.8 14.5 15.4 5.9 3.6 12.2 5.4 19.1 5.4 7 0 13.6-1.8 19.7-5.3 6-3.4 10.9-8.4 14.4-15 3.6-6.5 5.4-14.3 5.4-23.5z"/>
				<path id="Layer" fill-rule="evenodd" class="s0" d="m1570.6 131q0 8.1-1.1 14.5h-108.7q1.4 16.1 11.3 25.2 9.9 9.2 24.4 9.1c14 0 23.9-6 29.8-17.9h40.5c-4.3 14.3-12.5 26.1-24.7 35.2-12.1 9.3-27.1 13.9-44.8 13.9q-21.4 0-38.5-9.5-17-9.6-26.6-27c-6.3-11.6-9.5-24.9-9.5-40.3 0-15.3 3.2-28.9 9.4-40.5 6.3-11.6 15.1-20.6 26.3-26.8 11.3-6.3 24.8-9.4 38.9-9.4q21.3 0 38 9.1 16.8 9.1 26.1 25.9 9.2 16.8 9.2 38.5zm-38.9-10.7c-0.2-9.7-3.6-17.4-10.5-23.2-6.8-5.8-15.1-8.8-24.9-8.8-9.3 0-17.2 2.9-23.5 8.5-6.3 5.7-10.3 13.5-11.7 23.5 0 0 70.6 0 70.6 0z"/>
			</g>
			<path id="Layer" fill-rule="evenodd" class="s1" d="m199.9 97.3l8.2 8.3-26.8 26.8-8.1-8.1c-8.9-9-23.4-9-32.4 0l-46.9 46.9c-23.6 23.7-62 23.7-85.7 0l-8.2-8.2 26.8-26.8 8.1 8c8.9 9 23.4 9 32.4 0l46.9-46.9c23.6-23.6 62-23.6 85.7 0zm-18.6 35.1l26.8 26.8-63.1 63.1c-23.7 23.6-62 23.6-85.7 0l-8.2-8.3 26.8-26.8 8.1 8.1c8.9 9 23.4 9 32.3 0 0 0 63-62.9 63-62.9zm-32.5-86.2l8.2 8.3-26.8 26.8-8.1-8.1c-8.9-9-23.4-9-32.3 0l-63 62.9-26.8-26.8 63.1-63.1c23.7-23.6 62-23.6 85.7 0z"/>
		</g>
	</g>
</svg>