<svg width="189" height="40" viewBox="0 0 189 40" fill="none" xmlns="http://www.w3.org/2000/svg">
<path d="M0 5.03333C0 2.2535 2.2535 0 5.03333 0H34.9667C37.7465 0 40 2.2535 40 5.03333V34.9667C40 37.7465 37.7465 40 34.9667 40H5.03333C2.2535 40 0 37.7465 0 34.9667V5.03333Z" fill="#6E58F1"/>
<path d="M5.77734 16.9192C5.77734 13.4689 8.56372 10.6719 12.0009 10.6719H12.3588C13.8128 10.6719 14.9914 11.855 14.9914 13.3145V20.5239C14.9914 21.9835 13.8128 23.1666 12.3588 23.1666H12.0009C8.56371 23.1666 5.77734 20.3696 5.77734 16.9192Z" fill="white"/>
<path d="M16.4033 11.7749C16.4033 11.1049 16.7954 10.4973 17.4045 10.2233L26.4642 6.1486C27.5847 5.64462 28.8504 6.46761 28.8504 7.70018V26.2729C28.8504 27.5134 27.5698 28.3363 26.4476 27.8169L17.3879 23.6241C16.7877 23.3463 16.4033 22.7435 16.4033 22.08V21.2202C16.4033 20.5129 16.8396 19.8794 17.4989 19.6296L22.5484 17.7163C23.2788 17.4396 23.2788 16.4024 22.5484 16.1257L17.4989 14.2124C16.8396 13.9626 16.4033 13.3292 16.4033 12.6218V11.7749Z" fill="white"/>
<path d="M34.2222 18.4071V18.0285C34.2222 15.9374 32.5334 14.2422 30.4503 14.2422C30.3462 14.2422 30.2617 14.3269 30.2617 14.4315V22.0041C30.2617 22.1086 30.3462 22.1934 30.4503 22.1934C32.5334 22.1934 34.2222 20.4982 34.2222 18.4071Z" fill="white"/>
<path d="M11.9883 25.5852C11.9883 25.2135 12.2885 24.9121 12.6588 24.9121H16.1672C16.5376 24.9121 16.8378 25.2135 16.8378 25.5852V31.5652C16.8378 32.9094 15.7522 33.9992 14.413 33.9992L-nan -nanL14.413 33.9992C13.0739 33.9992 11.9883 32.9094 11.9883 31.5652V25.5852Z" fill="white"/>
<path d="M59.0924 20.9922C60.759 21.179 61.6849 22.0428 61.6849 23.4436C61.6849 24.5642 60.759 25.5214 59.5785 25.5214C58.56 25.5214 57.7499 25.2646 56.9628 24.2607L54 26.4553C55.6435 28.2763 57.611 29 59.5785 29C62.6108 29 65.4116 26.572 65.4116 23.1868C65.4116 19.8249 62.9811 17.8171 60.0414 17.6303C58.2128 17.5136 57.6341 16.7899 57.6341 15.9961C57.6341 15.0389 58.2822 14.4553 59.2313 14.4553C59.8331 14.4553 60.597 14.8288 61.0599 15.3191L63.8839 13.2412C62.5645 11.6537 60.9442 11 59.2313 11C56.8471 11 54.162 13.0778 54.162 16.0195C54.162 18.751 56.1064 20.642 59.0924 20.9922Z" fill="#00056A"/>
<path d="M78.7366 22.8132C78.7366 21.249 79.8246 19.965 81.2597 19.965C82.5791 19.965 83.667 21.0156 83.667 22.8132V28.6965H86.9308V22.8132C86.9308 19.4047 85.1947 16.6498 81.6069 16.6498C80.4032 16.6498 78.5515 17.0233 77.4404 18.5175C76.746 17.4436 75.1951 16.6498 73.4822 16.6498C72.4637 16.6498 71.1443 17.07 70.6119 17.7237V16.9066H67.325V28.6965H70.6119V22.8132C70.6119 21.249 71.6999 19.965 72.9267 19.965C74.4081 19.965 75.4497 20.7821 75.4497 22.8132V28.6965H78.7366V22.8132Z" fill="#00056A"/>
<path d="M97.1949 16.9066V17.7237C96.6857 17.1634 95.3894 16.6498 94.3478 16.6498C91.2229 16.6498 88.6073 19.4047 88.6073 22.8132C88.6073 26.1751 91.1535 28.9533 94.3478 28.9533C95.4126 28.9533 96.6857 28.5331 97.1949 27.856V28.6965H100.482V16.9066H97.1949ZM94.6719 25.6615C93.1673 25.6615 91.9405 24.4942 91.9405 22.8132C91.9405 21.1556 93.1673 19.965 94.6719 19.965C96.1996 19.965 97.3338 21.1556 97.3338 22.8132C97.3338 24.4942 96.1996 25.6615 94.6719 25.6615Z" fill="#00056A"/>
<path d="M109.481 16.6965C109.181 16.6498 108.949 16.6498 108.671 16.6498C107.769 16.6498 106.796 16.9533 106.079 17.7237V16.9066H102.792V28.6965H106.079V22.8132C106.079 20.9222 107.167 19.965 108.44 19.965C108.81 19.965 109.157 20.0117 109.481 20.1284V16.6965Z" fill="#00056A"/>
<path d="M117.781 19.965V16.9066H115.003V12.9611L111.717 15.3658V16.9066H109.957V19.965H111.717V23.8171C111.717 26.8755 114.216 28.9533 117.712 28.9533V25.6615C116.207 25.6615 115.003 25.0545 115.003 23.7237V19.965H117.781Z" fill="#00056A"/>
<path d="M119.293 11.3035V28.6965H122.58V11.3035H119.293Z" fill="#00056A"/>
<path d="M133.279 24.4708C132.746 25.3113 131.751 25.6615 130.756 25.6615C130.408 25.6615 130.084 25.6381 129.783 25.5214L136.311 20.8054C135.593 18.6109 133.371 16.6498 130.478 16.6498C127.121 16.6498 124.413 19.4047 124.413 22.8132C124.413 26.1751 127.237 28.9533 130.756 28.9533C132.839 28.9533 134.899 27.9961 135.894 26.5019L133.279 24.4708ZM127.746 22.8132C127.746 21.1556 128.973 19.965 130.478 19.965C131.103 19.965 131.635 20.1751 132.098 20.5253L127.839 23.5837C127.77 23.3502 127.746 23.0934 127.746 22.8132Z" fill="#00056A"/>
<path d="M146.066 16.9066V17.7237C145.557 17.1634 144.261 16.6498 143.219 16.6498C140.094 16.6498 137.479 19.4047 137.479 22.8132C137.479 26.1751 140.025 28.9533 143.219 28.9533C144.284 28.9533 145.557 28.5331 146.066 27.856V28.6965H149.353V16.9066H146.066ZM143.543 25.6615C142.039 25.6615 140.812 24.4942 140.812 22.8132C140.812 21.1556 142.039 19.965 143.543 19.965C145.071 19.965 146.205 21.1556 146.205 22.8132C146.205 24.4942 145.071 25.6615 143.543 25.6615Z" fill="#00056A"/>
<path d="M159.765 11.3035V17.7237C159.256 17.1634 157.959 16.6498 156.918 16.6498C153.793 16.6498 151.177 19.4047 151.177 22.8132C151.177 26.1751 153.723 28.9533 156.918 28.9533C157.982 28.9533 159.256 28.5331 159.765 27.856V28.6965H163.052V11.3035H159.765ZM157.242 25.6615C155.737 25.6615 154.51 24.4942 154.51 22.8132C154.51 21.1556 155.737 19.965 157.242 19.965C158.77 19.965 159.904 21.1556 159.904 22.8132C159.904 24.4942 158.77 25.6615 157.242 25.6615Z" fill="#00056A"/>
<path d="M167.376 25.428C166.311 25.428 165.593 26.2218 165.593 27.2257C165.593 28.1829 166.311 29 167.376 29C168.464 29 169.158 28.1829 169.158 27.2257C169.158 26.2218 168.44 25.428 167.376 25.428Z" fill="#00056A"/>
<path d="M179.815 16.9066V17.7237C179.306 17.1634 178.01 16.6498 176.968 16.6498C173.843 16.6498 171.228 19.4047 171.228 22.8132C171.228 26.1751 173.774 28.9533 176.968 28.9533C178.033 28.9533 179.306 28.5331 179.815 27.856V28.6965H183.102V16.9066H179.815ZM177.292 25.6615C175.788 25.6615 174.561 24.4942 174.561 22.8132C174.561 21.1556 175.788 19.965 177.292 19.965C178.82 19.965 179.954 21.1556 179.954 22.8132C179.954 24.4942 178.82 25.6615 177.292 25.6615Z" fill="#00056A"/>
<path d="M187.032 14.8288C188.144 14.8288 189 13.965 189 12.9377C189 11.9805 188.144 11.1167 187.032 11.1167C186.014 11.1167 185.134 12.0039 185.134 12.9377C185.134 13.965 186.014 14.8288 187.032 14.8288ZM188.699 16.9066H185.412V28.6965H188.699V16.9066Z" fill="#00056A"/>
</svg>
