<?xml version="1.0" encoding="UTF-8"?><svg id="a" xmlns="http://www.w3.org/2000/svg" width="512" height="128" viewBox="0 0 512 128"><path d="m149.29,82.28c-2.77,0-5.26-.47-7.48-1.42-2.22-.95-3.97-2.31-5.26-4.09-1.29-1.78-1.95-3.89-1.99-6.31h8.53c.11,1.63.69,2.92,1.73,3.87s2.47,1.42,4.29,1.42,3.32-.44,4.38-1.34c1.06-.89,1.59-2.06,1.59-3.5,0-1.18-.36-2.14-1.08-2.9-.72-.76-1.62-1.36-2.7-1.79s-2.57-.92-4.46-1.45c-2.58-.76-4.67-1.51-6.28-2.25-1.61-.74-2.99-1.86-4.15-3.36-1.16-1.5-1.73-3.5-1.73-6,0-2.35.59-4.4,1.76-6.14,1.18-1.74,2.82-3.08,4.95-4.01,2.12-.93,4.55-1.39,7.28-1.39,4.09,0,7.42,1,9.98,2.99s3.97,4.77,4.24,8.33h-8.76c-.08-1.36-.65-2.49-1.73-3.38s-2.51-1.34-4.29-1.34c-1.55,0-2.8.4-3.72,1.19-.93.8-1.39,1.95-1.39,3.47,0,1.06.35,1.94,1.05,2.64s1.57,1.27,2.62,1.71,2.51.94,4.41,1.51c2.58.76,4.68,1.52,6.31,2.27,1.63.76,3.03,1.9,4.21,3.41,1.18,1.52,1.76,3.51,1.76,5.97,0,2.12-.55,4.09-1.65,5.92-1.1,1.82-2.71,3.27-4.83,4.35-2.12,1.08-4.64,1.62-7.56,1.62h0Zm18.88-16.26c0-3.18.63-6.01,1.9-8.47,1.27-2.46,2.99-4.36,5.17-5.69,2.18-1.33,4.62-1.99,7.31-1.99,2.35,0,4.41.47,6.17,1.42s3.17,2.14,4.24,3.58v-4.49h8.02v31.5h-8.02v-4.61c-1.02,1.48-2.44,2.7-4.24,3.67-1.8.97-3.88,1.45-6.23,1.45-2.65,0-5.07-.68-7.25-2.05-2.18-1.36-3.9-3.29-5.17-5.77-1.27-2.48-1.9-5.34-1.9-8.56h0Zm24.8.11c0-1.93-.38-3.59-1.14-4.98-.76-1.38-1.78-2.45-3.07-3.18-1.29-.74-2.67-1.11-4.15-1.11s-2.84.36-4.09,1.08c-1.25.72-2.27,1.77-3.04,3.16-.78,1.38-1.17,3.02-1.17,4.92s.39,3.55,1.17,4.98c.78,1.42,1.8,2.51,3.07,3.27s2.63,1.14,4.07,1.14,2.86-.37,4.15-1.11c1.29-.74,2.31-1.8,3.07-3.18.76-1.38,1.14-3.04,1.14-4.98h0Zm23.77-11.2c1.02-1.44,2.44-2.64,4.24-3.61,1.8-.97,3.86-1.45,6.17-1.45,2.69,0,5.13.66,7.31,1.99,2.18,1.33,3.9,3.21,5.17,5.66s1.9,5.28,1.9,8.5-.63,6.08-1.9,8.56-2.99,4.41-5.17,5.77c-2.18,1.36-4.62,2.05-7.31,2.05-2.31,0-4.35-.47-6.11-1.42-1.76-.95-3.19-2.14-4.29-3.58v11.62h-7.96v-38.63h7.96v4.55h0Zm16.66,11.09c0-1.9-.39-3.54-1.17-4.92-.78-1.38-1.8-2.44-3.07-3.16-1.27-.72-2.64-1.08-4.12-1.08s-2.8.37-4.07,1.11-2.29,1.81-3.07,3.21c-.78,1.4-1.17,3.05-1.17,4.95s.39,3.55,1.17,4.95,1.8,2.47,3.07,3.21c1.27.74,2.63,1.11,4.07,1.11s2.85-.38,4.12-1.14,2.29-1.84,3.07-3.24c.78-1.4,1.17-3.07,1.17-5h0Zm17.97-19.39c-1.4,0-2.57-.44-3.5-1.34-.93-.89-1.39-2-1.39-3.33s.46-2.44,1.39-3.33c.93-.89,2.1-1.34,3.5-1.34s2.57.44,3.5,1.34c.93.89,1.39,2,1.39,3.33s-.46,2.44-1.39,3.33c-.93.89-2.09,1.34-3.5,1.34Zm3.92,3.75v31.5h-7.96v-31.5h7.96Zm37.14,15.07c0,1.14-.08,2.16-.23,3.07h-23.03c.19,2.28.99,4.06,2.39,5.35,1.4,1.29,3.13,1.93,5.17,1.93,2.96,0,5.06-1.27,6.31-3.81h8.59c-.91,3.03-2.65,5.53-5.23,7.48-2.58,1.95-5.74,2.93-9.5,2.93-3.03,0-5.75-.67-8.16-2.02-2.41-1.35-4.28-3.25-5.63-5.72-1.35-2.46-2.02-5.31-2.02-8.53s.66-6.12,1.99-8.59c1.33-2.46,3.19-4.36,5.57-5.69,2.39-1.33,5.14-1.99,8.25-1.99s5.68.65,8.05,1.93c2.37,1.29,4.21,3.12,5.52,5.49,1.31,2.37,1.96,5.09,1.96,8.16h0Zm-8.25-2.27c-.04-2.05-.78-3.69-2.22-4.92-1.44-1.23-3.2-1.85-5.29-1.85-1.97,0-3.63.6-4.98,1.79-1.35,1.19-2.17,2.85-2.47,4.98h14.96,0Zm31.5-13.25c3.75,0,6.79,1.18,9.1,3.55,2.31,2.37,3.47,5.68,3.47,9.92v18.48h-7.96v-17.4c0-2.5-.63-4.43-1.88-5.77-1.25-1.35-2.96-2.02-5.12-2.02s-3.93.67-5.2,2.02c-1.27,1.35-1.91,3.27-1.91,5.77v17.4h-7.96v-31.5h7.96v3.92c1.06-1.37,2.42-2.44,4.07-3.21,1.65-.78,3.46-1.17,5.43-1.17h0Zm32.47-.06c2.35,0,4.42.46,6.2,1.39,1.78.93,3.19,2.13,4.21,3.61v-4.49h8.02v31.73c0,2.92-.59,5.52-1.76,7.82-1.18,2.29-2.94,4.11-5.29,5.46-2.35,1.35-5.19,2.02-8.53,2.02-4.47,0-8.14-1.04-11-3.13-2.86-2.09-4.48-4.93-4.86-8.53h7.9c.42,1.44,1.32,2.59,2.7,3.44,1.38.85,3.06,1.28,5.03,1.28,2.31,0,4.19-.69,5.63-2.08,1.44-1.38,2.16-3.48,2.16-6.28v-4.89c-1.02,1.48-2.44,2.71-4.24,3.7-1.8.99-3.86,1.48-6.17,1.48-2.65,0-5.08-.68-7.28-2.05-2.2-1.36-3.93-3.29-5.2-5.77-1.27-2.48-1.9-5.34-1.9-8.56s.63-6.01,1.9-8.47c1.27-2.46,2.99-4.36,5.17-5.69,2.18-1.33,4.62-1.99,7.31-1.99h0Zm10.41,16.26c0-1.93-.38-3.59-1.14-4.98-.76-1.38-1.78-2.45-3.07-3.18-1.29-.74-2.67-1.11-4.15-1.11s-2.84.36-4.09,1.08c-1.25.72-2.27,1.77-3.04,3.16-.78,1.38-1.17,3.02-1.17,4.92s.39,3.55,1.17,4.98c.78,1.42,1.8,2.51,3.07,3.27s2.63,1.14,4.07,1.14,2.86-.37,4.15-1.11c1.29-.74,2.31-1.8,3.07-3.18.76-1.38,1.14-3.04,1.14-4.98h0Zm23.77-10.86c1.02-1.67,2.36-2.98,4.01-3.92,1.65-.95,3.54-1.42,5.66-1.42v8.36h-2.1c-2.5,0-4.39.59-5.66,1.76-1.27,1.18-1.91,3.22-1.91,6.14v15.7h-7.96v-31.5h7.96v4.89h0Zm12.97,10.75c0-3.18.63-6.01,1.9-8.47,1.27-2.46,2.99-4.36,5.17-5.69,2.18-1.33,4.62-1.99,7.31-1.99,2.35,0,4.41.47,6.17,1.42,1.76.95,3.17,2.14,4.24,3.58v-4.49h8.02v31.5h-8.02v-4.61c-1.02,1.48-2.44,2.7-4.24,3.67-1.8.97-3.88,1.45-6.23,1.45-2.65,0-5.07-.68-7.25-2.05-2.18-1.36-3.9-3.29-5.17-5.77-1.27-2.48-1.9-5.34-1.9-8.56h0Zm24.8.11c0-1.93-.38-3.59-1.14-4.98-.76-1.38-1.78-2.45-3.07-3.18-1.29-.74-2.67-1.11-4.15-1.11s-2.84.36-4.09,1.08c-1.25.72-2.27,1.77-3.04,3.16-.78,1.38-1.17,3.02-1.17,4.92s.39,3.55,1.17,4.98c.78,1.42,1.8,2.51,3.07,3.27s2.63,1.14,4.07,1.14,2.86-.37,4.15-1.11c1.29-.74,2.31-1.8,3.07-3.18.76-1.38,1.14-3.04,1.14-4.98h0Zm23.77-11.2c1.02-1.44,2.44-2.64,4.24-3.61,1.8-.97,3.86-1.45,6.17-1.45,2.69,0,5.13.66,7.31,1.99,2.18,1.33,3.9,3.21,5.17,5.66,1.27,2.45,1.9,5.28,1.9,8.5s-.63,6.08-1.9,8.56c-1.27,2.48-2.99,4.41-5.17,5.77-2.18,1.36-4.62,2.05-7.31,2.05-2.31,0-4.35-.47-6.11-1.42-1.76-.95-3.19-2.14-4.29-3.58v11.62h-7.96v-38.63h7.96v4.55h0Zm16.66,11.09c0-1.9-.39-3.54-1.17-4.92-.78-1.38-1.8-2.44-3.07-3.16-1.27-.72-2.64-1.08-4.12-1.08s-2.8.37-4.07,1.11c-1.27.74-2.29,1.81-3.07,3.21-.78,1.4-1.17,3.05-1.17,4.95s.39,3.55,1.17,4.95,1.8,2.47,3.07,3.21c1.27.74,2.63,1.11,4.07,1.11s2.85-.38,4.12-1.14,2.29-1.84,3.07-3.24c.78-1.4,1.17-3.07,1.17-5h0Zm31.67-16.09c2.39,0,4.51.52,6.37,1.56,1.86,1.04,3.31,2.58,4.35,4.61,1.04,2.03,1.56,4.46,1.56,7.31v18.48h-7.96v-17.4c0-2.5-.63-4.43-1.88-5.77-1.25-1.35-2.96-2.02-5.12-2.02s-3.93.67-5.2,2.02c-1.27,1.35-1.91,3.27-1.91,5.77v17.4h-7.96v-42.08h7.96v14.5c1.02-1.37,2.39-2.44,4.09-3.21,1.71-.78,3.6-1.17,5.69-1.17h0Z" fill-rule="evenodd"/><path d="m87.46,14.46H23.61c-9.73,0-17.61,7.89-17.61,17.61v63.85c0,9.73,7.89,17.61,17.61,17.61h63.85c9.73,0,17.61-7.89,17.61-17.61v-63.85c0-9.73-7.89-17.61-17.61-17.61Zm-1,40.81l-.05-.04c-1.85-1.55-3.76-2.65-5.81-3.37-2.04-.72-4.22-1.04-6.61-1.04h-.03v-5.2c-5.41,0-31.46.01-31.49,0-.71-.61-1.53-1.1-2.43-1.43-.86-.32-1.8-.49-2.78-.49-2.21,0-4.21.9-5.66,2.34s-2.34,3.45-2.34,5.66.9,4.21,2.34,5.66c1.45,1.45,3.45,2.34,5.66,2.34.95,0,1.87-.17,2.72-.47.88-.32,1.69-.79,2.39-1.37.02-.02,29.05,0,31.78,0,3.3,0,6.18,1.2,8.63,3.59,1.22,1.19,2.14,2.51,2.75,3.95s.92,3,.92,4.68v12.35c0,1.71-.31,3.29-.92,4.74-.61,1.45-1.53,2.78-2.75,3.97-1.22,1.19-2.55,2.09-3.99,2.69-1.44.6-2.98.9-4.63.9h-36.89c-3.36,0-6.23-1.19-8.63-3.58-2.39-2.39-3.59-5.3-3.59-8.71v-9.57l.05.04c1.79,1.49,3.68,2.57,5.69,3.27,2.01.7,4.16,1.03,6.47,1.03h.03v5.2c5.45,0,31.5-.02,31.54,0,.71.6,1.52,1.08,2.41,1.4.85.31,1.78.48,2.75.48,2.21,0,4.21-.9,5.66-2.34,1.45-1.45,2.34-3.45,2.34-5.66s-.9-4.21-2.34-5.66-3.45-2.34-5.66-2.34c-.96,0-1.89.17-2.74.48-.89.32-1.71.8-2.41,1.4-.03.02-28.84,0-31.56,0-3.36,0-6.23-1.2-8.63-3.59-1.19-1.19-2.09-2.51-2.69-3.95-.6-1.44-.9-3-.9-4.68v-12.35c0-3.42,1.2-6.32,3.59-8.71,1.19-1.19,2.51-2.09,3.95-2.69,1.44-.6,3-.9,4.68-.9h36.89c3.3,0,6.18,1.2,8.63,3.59,1.22,1.19,2.14,2.52,2.75,3.97.61,1.45.92,3.03.92,4.74v9.68Zm-45.56-3.58c0,1-.41,1.91-1.06,2.57-.66.66-1.57,1.06-2.57,1.06s-1.91-.41-2.57-1.06c-.66-.66-1.06-1.57-1.06-2.57s.41-1.91,1.06-2.57c.66-.66,1.57-1.06,2.57-1.06s1.91.41,2.57,1.06c.66.66,1.06,1.57,1.06,2.57Zm29.46,24.58c0-1,.41-1.91,1.06-2.57.66-.66,1.57-1.06,2.57-1.06s1.91.41,2.57,1.06c.66.66,1.06,1.57,1.06,2.57s-.41,1.91-1.06,2.57c-.66.66-1.57,1.06-2.57,1.06s-1.91-.41-2.57-1.06c-.66-.66-1.06-1.57-1.06-2.57Z" fill="#00bd94"/></svg>
