<svg id="Layer_1" data-name="Layer 1" xmlns="http://www.w3.org/2000/svg" viewBox="0 0 800 600"><defs><style>.cls-1{fill:#fbbf24;}.cls-2{fill:#d1d5db;}.cls-3{fill:#ef4444;}.cls-4{fill:#34d399;}.cls-5{fill:#111827;}.cls-6{fill:#fff;}.cls-7{fill:#f59e0b;}.cls-8{fill:#10b981;}.cls-9{fill:#374151;}.cls-10{fill:#4b5563;}</style></defs><path class="cls-1" d="M610.7,53.1l1,.75,21.69,16.27c17.28-13,43.13-14.17,62.39-2.85l9.78-10.57,5.4-5.82C680.08,34,640.1,34.88,610.7,53.1Z"/><path class="cls-2" d="M755.42,165.19a99.17,99.17,0,0,1-70.22,53.15v19.28c28.23-5.69,53.56-23.56,67.16-51.19A82.54,82.54,0,0,0,761,150.81,87.79,87.79,0,0,1,755.42,165.19Z"/><path class="cls-2" d="M713,101.68a42.82,42.82,0,0,0-18.54-27.17c-17.82-11.86-43.1-10.77-58.81,2.53A39,39,0,0,0,622,101.59h6.94a44.7,44.7,0,0,1,4.5-4.41c17.09-14.47,44-15.34,62.91-2.77a47.22,47.22,0,0,1,16.94,19.76A37,37,0,0,0,713,101.68Z"/><path class="cls-3" d="M615.12,101.59a45.53,45.53,0,0,1,13-26.88L610.68,61.62l-5.95-4.47a85.9,85.9,0,0,0-31.46,44.44Z"/><path class="cls-4" d="M753,100.29a90.26,90.26,0,0,0-36.07-45.83l-15.46,16.7A49.31,49.31,0,0,1,719.7,100.4a43.68,43.68,0,0,1-7.08,33.29,51.19,51.19,0,0,1-27.42,19.64v58a92.33,92.33,0,0,0,64.1-49.2A79.81,79.81,0,0,0,753,100.29Z"/><path class="cls-5" d="M668,109.71H117.47a9.1,9.1,0,0,0-9.1,9.1V379.32c36.93,0,76.17,9.7,76.17,27.67V507.8H668a9.09,9.09,0,0,0,9.1-9.1V118.81A9.09,9.09,0,0,0,668,109.71Z"/><path class="cls-6" d="M632.82,182H540.16l35.63,35.64L444.1,314.31l-92.77-83.22a13.65,13.65,0,0,0-19.11.87l-92.4,99.32-87.18-69.69v35l80,64a13.64,13.64,0,0,0,18.51-1.36l91.9-98.79L434.13,342a13.64,13.64,0,0,0,17.19.84l144-105.74,37.5,37.5Z"/><circle class="cls-3" cx="136.81" cy="138.14" r="5.69"/><circle class="cls-7" cx="156.13" cy="138.14" r="5.69"/><circle class="cls-8" cx="175.44" cy="138.14" r="5.69"/><path class="cls-1" d="M39,419v32.47c0,4.75,7.1,9.95,19,13.91,13.4,4.47,31.29,6.93,50.36,6.93s37-2.46,50.37-6.93c11.88-4,19-9.16,19-13.91V419c-12.83,10.25-41.73,15.67-69.35,15.67S51.86,429.23,39,419Z"/><path class="cls-3" d="M39,463.44v32.47c0,4.75,7.1,9.95,19,13.91,13.4,4.47,31.29,6.93,50.36,6.93s37-2.46,50.37-6.93c11.88-4,19-9.16,19-13.91V463.44c-12.83,10.25-41.73,15.67-69.35,15.67S51.86,473.69,39,463.44Z"/><path class="cls-4" d="M39,507.9v32.47c0,4.75,7.1,10,19,13.91,13.4,4.47,31.29,6.93,50.36,6.93s37-2.46,50.37-6.93c11.88-4,19-9.16,19-13.91V507.9c-12.83,10.25-41.73,15.67-69.35,15.67S51.86,518.15,39,507.9Z"/><circle class="cls-6" cx="57.69" cy="444.68" r="5.41"/><circle class="cls-6" cx="57.69" cy="491.21" r="5.41"/><circle class="cls-6" cx="57.69" cy="536.39" r="5.41"/><path class="cls-9" d="M158.74,393.07c-13.4-4.46-31.29-6.92-50.37-6.92s-37,2.46-50.36,6.92c-11.88,4-19,9.17-19,13.92s7.1,9.95,19,13.91c13.4,4.47,31.29,6.93,50.36,6.93s37-2.46,50.37-6.93c11.88-4,19-9.16,19-13.91S170.62,397,158.74,393.07Z"/><polygon class="cls-10" points="593.04 267.03 556.74 293.69 556.74 461.6 632.82 461.6 632.82 306.8 593.04 267.03"/><path class="cls-10" d="M455.71,366V461.6h76.08V312l-67,49.21A35.88,35.88,0,0,1,455.71,366Z"/><path class="cls-10" d="M354.69,301.34V461.6h76.08V366A36.06,36.06,0,0,1,418.94,359Z"/><path class="cls-10" d="M253.66,384V461.6h76.08V308.1l-61.9,66.54A36.35,36.35,0,0,1,253.66,384Z"/><path class="cls-10" d="M152.64,325.66v58.59c18.5,4.57,31.9,12.24,31.9,22.74V461.6h44.18V384a36.67,36.67,0,0,1-10.26-5.75Z"/></svg>