<svg id="Layer_1" data-name="Layer 1" xmlns="http://www.w3.org/2000/svg" viewBox="0 0 800 600"><defs><style>.cls-1,.cls-4{fill:#fff;}.cls-13,.cls-15,.cls-2,.cls-6,.cls-7{fill:none;}.cls-2,.cls-4{stroke:#d1d5db;}.cls-15,.cls-2,.cls-3,.cls-7{stroke-miterlimit:10;}.cls-3{fill:#f3f4f6;stroke:#e5e7eb;}.cls-13,.cls-4,.cls-6{stroke-linecap:round;stroke-linejoin:round;}.cls-4,.cls-6{stroke-width:8px;}.cls-5{fill:#3b82f6;}.cls-6{stroke:#fff;}.cls-7{stroke:#3b82f6;}.cls-8{fill:#596c7d;}.cls-9{fill:#0e293f;}.cls-10{fill:#fbdbbf;}.cls-11{fill:#24455b;}.cls-12{fill:#ea4256;}.cls-13{stroke:#0e293f;stroke-width:0.75px;}.cls-14{fill:#fbbf24;}.cls-15{stroke:#ef4444;}.cls-16{fill:#e5e7eb;}.cls-17{fill:#f071aa;}.cls-18{fill:#f7bf3f;}</style></defs><rect class="cls-1" x="442.16" y="66" width="320" height="504" rx="8"/><path class="cls-2" d="M442.16,112V562a8,8,0,0,0,8,8h304a8,8,0,0,0,8-8V74a8,8,0,0,0-8-8H653.93"/><rect class="cls-3" x="474.16" y="84.09" width="256" height="39.79" rx="8"/><line class="cls-4" x1="494.16" y1="103.98" x2="588.65" y2="103.98"/><rect class="cls-3" x="474.16" y="137.38" width="256" height="39.79" rx="8"/><line class="cls-4" x1="494.16" y1="157.27" x2="638.65" y2="157.27"/><rect class="cls-3" x="474.16" y="190.67" width="256" height="39.79" rx="8"/><line class="cls-4" x1="494.16" y1="210.56" x2="678.65" y2="210.56"/><rect class="cls-3" x="474.16" y="243.96" width="256" height="39.79" rx="8"/><line class="cls-4" x1="494.16" y1="263.85" x2="541.41" y2="263.85"/><rect class="cls-3" x="474.16" y="297.25" width="256" height="39.79" rx="8"/><line class="cls-4" x1="494.16" y1="317.15" x2="638.65" y2="317.15"/><rect class="cls-3" x="474.16" y="350.54" width="256" height="39.79" rx="8"/><line class="cls-4" x1="494.16" y1="370.44" x2="668.23" y2="370.44"/><rect class="cls-3" x="474.16" y="403.84" width="256" height="39.79" rx="8"/><line class="cls-4" x1="494.16" y1="423.73" x2="621.64" y2="423.73"/><rect class="cls-3" x="474.16" y="457.13" width="256" height="39.79" rx="8"/><rect class="cls-5" x="474.16" y="515.11" width="256" height="39.79" rx="8"/><line class="cls-4" x1="494.16" y1="477.02" x2="689.41" y2="477.02"/><line class="cls-6" x1="570.04" y1="535" x2="634.28" y2="535"/><rect class="cls-1" x="64.02" y="66" width="320" height="269.1" rx="8"/><path class="cls-2" d="M64,112V327.1a8,8,0,0,0,8,8H376a8,8,0,0,0,8-8V74a8,8,0,0,0-8-8H274.88"/><path class="cls-2" d="M264.88,66H72a8,8,0,0,0-8,8v28"/><rect class="cls-3" x="96.02" y="125.8" width="256" height="48" rx="8"/><rect class="cls-5" x="96.02" y="257.1" width="256" height="48" rx="8"/><rect class="cls-3" x="96.02" y="191.45" width="122" height="48" rx="8"/><rect class="cls-3" x="230.02" y="191.45" width="122" height="48" rx="8"/><line class="cls-4" x1="116.02" y1="149.8" x2="300.5" y2="149.8"/><line class="cls-4" x1="116.02" y1="215.45" x2="180.26" y2="215.45"/><line class="cls-6" x1="191.9" y1="281.1" x2="256.14" y2="281.1"/><line class="cls-4" x1="250.02" y1="215.45" x2="328.53" y2="215.45"/><rect class="cls-1" x="64.02" y="46.61" width="200.86" height="38.78" rx="19.39"/><rect class="cls-7" x="64.02" y="46.61" width="200.86" height="38.78" rx="19.39"/><path class="cls-1" d="M75.65,81.45c-4.44-3.19-7.17-5.36-7.17-5.36a4.46,4.46,0,0,1-8.92,0s-2.74,2.17-7.18,5.36S38.24,88,38.24,101.6H89.8C89.8,88,80.1,84.64,75.65,81.45Z"/><path class="cls-8" d="M55.53,79.16c-.92.68-2,1.45-3.15,2.29C47.94,84.64,38.24,88,38.24,101.6h24C58.31,94.48,55.53,79.16,55.53,79.16Z"/><path class="cls-9" d="M62.21,102h-24a.4.4,0,0,1-.29-.12.43.43,0,0,1-.11-.28c0-11.7,7.14-16,11.87-18.92.9-.54,1.74-1.06,2.44-1.56,1.06-.76,2.12-1.53,3.14-2.29a.4.4,0,0,1,.19-.07.47.47,0,0,1,.2,0,.48.48,0,0,1,.16.12.41.41,0,0,1,.08.19c0,.15,2.81,15.31,6.64,22.31a.46.46,0,0,1,0,.2.36.36,0,0,1-.06.2.32.32,0,0,1-.14.14.36.36,0,0,1-.2.06Zm-23.56-.81H61.54c-3.32-6.51-5.73-18.42-6.29-21.33-.86.64-1.74,1.28-2.63,1.92-.72.52-1.58,1-2.49,1.59C45.34,86.28,38.8,90.26,38.65,101.19Z"/><path class="cls-8" d="M72.51,79.16c.92.68,2,1.45,3.14,2.29C80.1,84.64,89.8,88,89.8,101.6h-24C69.73,94.48,72.51,79.16,72.51,79.16Z"/><path class="cls-9" d="M89.8,102h-24a.46.46,0,0,1-.2,0,.4.4,0,0,1-.14-.15.36.36,0,0,1-.06-.2.46.46,0,0,1,0-.2c3.82-7,6.6-22.16,6.63-22.31a.66.66,0,0,1,.09-.19.36.36,0,0,1,.16-.11.36.36,0,0,1,.2,0,.41.41,0,0,1,.19.08l3.14,2.29c.69.5,1.54,1,2.44,1.56C83.06,85.56,90.2,89.9,90.2,101.6a.38.38,0,0,1-.12.28A.36.36,0,0,1,89.8,102Zm-23.3-.81H89.39c-.15-10.93-6.69-14.91-11.48-17.82-.91-.55-1.77-1.07-2.49-1.59-.89-.64-1.77-1.28-2.63-1.92C72.21,82.87,69.75,94.79,66.5,101.19Z"/><path class="cls-10" d="M78.81,51c-.63-2.06-5.73-4.08-12.58-4.28a14.84,14.84,0,0,1-10.59-4.83c-.32,2.92-2,3.39-4.18,5.74s-2.82,8.59-2.82,8.63c-.33,3.94-.17,6.57.5,7.5,1.18,1.6,9.63,10.59,14.88,10.59s13.7-9,14.88-10.6C79.84,62.46,79.76,57.85,78.81,51Z"/><path class="cls-9" d="M57.78,54.7a2.14,2.14,0,1,0-2.14-2.14A2.14,2.14,0,0,0,57.78,54.7Z"/><path class="cls-9" d="M70.25,54.7a2.14,2.14,0,1,0-2.14-2.14A2.14,2.14,0,0,0,70.25,54.7Z"/><path class="cls-10" d="M49.23,51A3.82,3.82,0,0,0,45,49.92c-2.56,1.06-.63,9.94,3.48,9.56A68.84,68.84,0,0,1,49.23,51Z"/><path class="cls-10" d="M78.81,51A3.81,3.81,0,0,1,83,49.92c2.56,1.06.63,9.94-3.48,9.56A68.84,68.84,0,0,0,78.81,51Z"/><path class="cls-10" d="M64,74.34a9.54,9.54,0,0,1-4.46-1.48v3.23a4.46,4.46,0,0,0,8.92,0V72.86A9.57,9.57,0,0,1,64,74.34Z"/><path class="cls-9" d="M48.22,59.9c-2.25,0-3.86-2.46-4.49-5-.53-2.14-.4-4.73,1.11-5.36a4.27,4.27,0,0,1,4.68,1.17.4.4,0,0,1,.1.15.55.55,0,0,1,0,.18,68,68,0,0,0-.75,8.44.4.4,0,0,1-.11.27.42.42,0,0,1-.26.12Zm-1.88-9.85a3.06,3.06,0,0,0-1.19.25c-.89.37-1.17,2.27-.64,4.42s1.83,4.25,3.57,4.37a70.51,70.51,0,0,1,.72-8A3.67,3.67,0,0,0,46.34,50.05Z"/><path class="cls-9" d="M79.82,59.9l-.29,0a.4.4,0,0,1-.26-.12.4.4,0,0,1-.11-.27,70,70,0,0,0-.75-8.44.37.37,0,0,1,0-.18.31.31,0,0,1,.1-.15,4.26,4.26,0,0,1,4.67-1.17c1.52.63,1.65,3.22,1.12,5.36C83.68,57.44,82.07,59.9,79.82,59.9Zm-.59-8.76a70.52,70.52,0,0,1,.73,8c1.74-.12,3-2.22,3.56-4.37s.26-4-.63-4.42A3.36,3.36,0,0,0,79.23,51.14Z"/><path class="cls-9" d="M89.8,102H38.24a.4.4,0,0,1-.29-.12.44.44,0,0,1-.11-.29c0-11.69,7.14-16,11.87-18.91.9-.54,1.74-1.06,2.44-1.56,4.38-3.14,7.13-5.33,7.16-5.35a.32.32,0,0,1,.21-.08.42.42,0,0,1,.22,0,.46.46,0,0,1,.16.15.44.44,0,0,1,.07.22,4.11,4.11,0,0,0,.3,1.55A4.19,4.19,0,0,0,61.15,79a4,4,0,0,0,1.32.88,4,4,0,0,0,3.1,0A4,4,0,0,0,66.89,79a4.19,4.19,0,0,0,.88-1.31,4.11,4.11,0,0,0,.3-1.55.43.43,0,0,1,.06-.22.39.39,0,0,1,.17-.14.31.31,0,0,1,.21,0,.38.38,0,0,1,.21.07c.12.1,2.83,2.25,7.17,5.36.69.5,1.54,1,2.44,1.56,4.73,2.88,11.87,7.22,11.87,18.91a.4.4,0,0,1-.12.29A.36.36,0,0,1,89.8,102Zm-51.15-.81H89.39c-.15-10.93-6.69-14.91-11.48-17.82-.91-.55-1.77-1.07-2.49-1.59-3.23-2.32-5.57-4.11-6.6-4.92A4.87,4.87,0,0,1,64,81a4.84,4.84,0,0,1-3.15-1.16,4.9,4.9,0,0,1-1.65-2.93c-1,.81-3.38,2.61-6.6,4.92-.72.52-1.58,1-2.49,1.59C45.34,86.28,38.8,90.26,38.65,101.19Z"/><path class="cls-9" d="M64,81a4.85,4.85,0,0,1-4.86-4.86V72.86a.46.46,0,0,1,.05-.2.54.54,0,0,1,.15-.15.43.43,0,0,1,.4,0A9.1,9.1,0,0,0,64,73.94a9.1,9.1,0,0,0,4.26-1.43.42.42,0,0,1,.4,0,.54.54,0,0,1,.15.15.46.46,0,0,1,0,.2v3.23A4.87,4.87,0,0,1,64,81Zm-4-7.41v2.55a4.11,4.11,0,0,0,.3,1.55,4,4,0,0,0,2.2,2.2,4.15,4.15,0,0,0,3.1,0,4,4,0,0,0,2.2-2.2,4.11,4.11,0,0,0,.3-1.55V73.54a9.12,9.12,0,0,1-4,1.21,9.12,9.12,0,0,1-4-1.21Z"/><path class="cls-9" d="M48.08,102a.4.4,0,0,1-.29-.12.43.43,0,0,1-.11-.28V95.31a.38.38,0,0,1,.4-.4.39.39,0,0,1,.28.11.4.4,0,0,1,.12.29v6.29a.39.39,0,0,1-.12.28A.36.36,0,0,1,48.08,102Z"/><path class="cls-9" d="M80,102a.4.4,0,0,1-.29-.12.43.43,0,0,1-.11-.28V95.31a.38.38,0,0,1,.4-.4.39.39,0,0,1,.28.11.4.4,0,0,1,.12.29v6.29a.39.39,0,0,1-.12.28A.36.36,0,0,1,80,102Z"/><path class="cls-9" d="M64,74.74c-5.72,0-14.4-9.66-15.2-10.76s-.93-3.54-.59-7.76c.08-.67.79-6.52,2.94-8.87a21.45,21.45,0,0,1,1.75-1.69c1.27-1.14,2.11-1.9,2.33-3.83a.33.33,0,0,1,.09-.21.41.41,0,0,1,.19-.13.49.49,0,0,1,.24,0,.5.5,0,0,1,.19.13,14.61,14.61,0,0,0,10.29,4.69c6.65.19,12.22,2.16,12.94,4.57,0,0,0,0,0,.06,1,7.28,1,11.67,0,13C78.42,65.08,69.74,74.74,64,74.74Zm-8.12-32a6.36,6.36,0,0,1-2.45,3.51c-.59.51-1.15,1.06-1.69,1.63-2,2.2-2.7,8.15-2.72,8.41-.43,5.18.08,6.74.43,7.21C50.6,65.05,59,73.94,64,73.94s13.42-8.88,14.55-10.43c.4-.54,1.18-2.84-.16-12.43-.57-1.75-5.37-3.76-12.19-4A15.38,15.38,0,0,1,55.9,42.75Z"/><path class="cls-11" d="M59.56,30.4c-3.45,0-5,3.43-5,3.43-8.56,1.3-8.68,15.85-8.68,15.85h0A4,4,0,0,1,49.23,51c-.23,1.64-.45,3.48-.59,5.2a32,32,0,0,1,.6-3.39,12.56,12.56,0,0,1,2.22-5.19c2.15-2.35,3.86-2.82,4.18-5.74a14.82,14.82,0,0,0,4.8,3.5,15,15,0,0,0,5.79,1.34c6.85.2,12,2.21,12.57,4.28a4,4,0,0,1,3.36-1.31h0C82,30,63,30.4,59.56,30.4Z"/><path class="cls-9" d="M48.64,56.6h0a.42.42,0,0,1-.27-.14.39.39,0,0,1-.09-.29l0-.63c0-.23.05-.48.07-.72l0-.4c0-.28.06-.56.1-.85l.06-.49c.07-.63.15-1.27.24-1.94a3.53,3.53,0,0,0-1.31-.85,3.6,3.6,0,0,0-1.56-.2.49.49,0,0,1-.24,0,.42.42,0,0,1-.18-.17.45.45,0,0,1,0-.2c0-.6.22-14.68,8.81-16.22.41-.76,2.07-3.46,5.28-3.46h.3c14.53,0,22.6,7,22.71,19.68a.45.45,0,0,1-.14.31.28.28,0,0,1-.15.08.47.47,0,0,1-.17,0,3.63,3.63,0,0,0-3,1.19.45.45,0,0,1-.17.11.5.5,0,0,1-.21,0,.4.4,0,0,1-.18-.1.42.42,0,0,1-.11-.18c-.53-1.76-5.35-3.79-12.2-4A15.37,15.37,0,0,1,55.9,42.76a6.33,6.33,0,0,1-2.45,3.5c-.59.52-1.15,1.06-1.69,1.63a11.88,11.88,0,0,0-2.12,5c-.34,1.46-.52,2.71-.58,3.18l0,.16a.43.43,0,0,1-.13.26A.43.43,0,0,1,48.64,56.6Zm-2.29-7.35a4.58,4.58,0,0,1,3.09,1.38,9.33,9.33,0,0,1,1.73-3.28,23.27,23.27,0,0,1,1.75-1.69c1.27-1.14,2.11-1.89,2.33-3.82a.36.36,0,0,1,.09-.22.5.5,0,0,1,.19-.13.39.39,0,0,1,.24,0,.41.41,0,0,1,.19.13,14.54,14.54,0,0,0,10.29,4.68c6.14.18,11.35,1.87,12.69,4a4.31,4.31,0,0,1,2.82-1.08c-.29-12.07-7.85-18.45-21.9-18.45h-.3c-3.15,0-4.63,3.16-4.64,3.19a.48.48,0,0,1-.12.16.44.44,0,0,1-.19.07c-7.3,1.12-8.21,12.63-8.32,15Z"/><path class="cls-1" d="M59.56,76.09,54.8,78.64l6.7,4.83L64,80.55Z"/><path class="cls-1" d="M68.48,76.09l4.75,2.55-6.69,4.83L64,80.55Z"/><path class="cls-9" d="M61.5,83.87a.45.45,0,0,1-.23-.07L54.57,79a.37.37,0,0,1-.13-.15.48.48,0,0,1,0-.2.4.4,0,0,1,.07-.19.32.32,0,0,1,.14-.14l4.76-2.55a.44.44,0,0,1,.25,0,.38.38,0,0,1,.23.11l4.45,4.46a.36.36,0,0,1,.12.27.37.37,0,0,1-.1.28l-2.51,2.92a.49.49,0,0,1-.14.11A.47.47,0,0,1,61.5,83.87Zm-5.94-5.19,5.88,4.24,2-2.35-4-4Z"/><path class="cls-9" d="M66.54,83.87a.47.47,0,0,1-.17,0,.49.49,0,0,1-.14-.11l-2.52-2.92a.41.41,0,0,1-.09-.28.39.39,0,0,1,.11-.27l4.46-4.46a.38.38,0,0,1,.23-.11.44.44,0,0,1,.25,0l4.75,2.55a.4.4,0,0,1,.15.14.4.4,0,0,1,.07.19.48.48,0,0,1,0,.2.47.47,0,0,1-.13.15l-6.7,4.84A.48.48,0,0,1,66.54,83.87Zm-2-3.3,2,2.36,5.87-4.25-3.92-2.1Z"/><path class="cls-12" d="M61.5,83.47,64,87l2.52-3.56L64,80.55Z"/><path class="cls-12" d="M65.39,85.09,64,87l-1.37-1.94L61.28,99.71c.3.67.61,1.31.93,1.89h3.62c.32-.58.63-1.22.93-1.89Z"/><path class="cls-9" d="M64,87.43a.41.41,0,0,1-.19-.05.53.53,0,0,1-.14-.12L61.17,83.7a.37.37,0,0,1-.07-.25.39.39,0,0,1,.1-.25l2.51-2.92a.71.71,0,0,1,.14-.1.47.47,0,0,1,.17,0,.51.51,0,0,1,.17,0,.45.45,0,0,1,.13.1l2.52,2.92a.46.46,0,0,1,.1.25.43.43,0,0,1-.07.25l-2.52,3.56a.44.44,0,0,1-.15.12A.37.37,0,0,1,64,87.43Zm-2-3.94,2,2.84,2-2.84-2-2.33Z"/><path class="cls-9" d="M65.83,102H62.21a.37.37,0,0,1-.21-.06.43.43,0,0,1-.15-.15c-.3-.56-.61-1.19-.94-1.92a.34.34,0,0,1,0-.2l1.37-14.61a.46.46,0,0,1,.09-.23.57.57,0,0,1,.21-.13.49.49,0,0,1,.24,0,.45.45,0,0,1,.19.15l1,1.47,1-1.47a.4.4,0,0,1,.19-.15.49.49,0,0,1,.24,0,.57.57,0,0,1,.21.13.46.46,0,0,1,.09.23l1.37,14.61a.44.44,0,0,1,0,.2c-.33.73-.64,1.36-.94,1.92a.43.43,0,0,1-.15.15A.39.39,0,0,1,65.83,102Zm-3.38-.81h3.14c.25-.46.49-1,.76-1.55L65.09,86.21l-.74,1.05a.44.44,0,0,1-.15.12.39.39,0,0,1-.18,0,.34.34,0,0,1-.18,0,.44.44,0,0,1-.15-.12L63,86.21,61.69,99.64C62,100.22,62.2,100.73,62.45,101.19Z"/><path class="cls-9" d="M63.17,59.14A1.35,1.35,0,0,1,62,58.69a4.48,4.48,0,0,1-.56-2.32.4.4,0,0,1,.12-.29.39.39,0,0,1,.28-.11h0A.41.41,0,0,1,62,56a.38.38,0,0,1,.13.09.41.41,0,0,1,.08.13.4.4,0,0,1,0,.15,4,4,0,0,0,.41,1.85c0,.07.41.22,1.46,0a.26.26,0,0,1,.15,0l.15.06.11.11a.47.47,0,0,1,.06.15.43.43,0,0,1,0,.16.35.35,0,0,1-.06.14.29.29,0,0,1-.11.11.35.35,0,0,1-.14.06A5.7,5.7,0,0,1,63.17,59.14Z"/><path class="cls-1" d="M58.83,62.11V63.5a5.19,5.19,0,0,0,10.38,0V62.11Z"/><path class="cls-13" d="M58.83,62.11V63.5a5.19,5.19,0,0,0,10.38,0V62.11Z"/><polygon class="cls-14" points="104.02 54.59 106.85 63.31 116.02 63.31 108.6 68.69 111.44 77.41 104.02 72.02 96.6 77.41 99.44 68.69 92.02 63.31 101.19 63.31 104.02 54.59"/><polygon class="cls-14" points="136.14 54.59 138.97 63.31 148.14 63.31 140.72 68.69 143.56 77.41 136.14 72.02 128.72 77.41 131.56 68.69 124.14 63.31 133.31 63.31 136.14 54.59"/><polygon class="cls-14" points="168.26 54.59 171.09 63.31 180.26 63.31 172.84 68.69 175.68 77.41 168.26 72.02 160.84 77.41 163.68 68.69 156.26 63.31 165.43 63.31 168.26 54.59"/><polygon class="cls-14" points="200.38 54.59 203.22 63.31 212.38 63.31 204.97 68.69 207.8 77.41 200.38 72.02 192.97 77.41 195.8 68.69 188.38 63.31 197.55 63.31 200.38 54.59"/><polygon class="cls-14" points="232.5 54.59 235.34 63.31 244.5 63.31 237.09 68.69 239.92 77.41 232.5 72.02 225.09 77.41 227.92 68.69 220.5 63.31 229.67 63.31 232.5 54.59"/><rect class="cls-1" x="442.16" y="46.61" width="200.86" height="38.78" rx="19.39"/><rect class="cls-15" x="442.16" y="46.61" width="200.86" height="38.78" rx="19.39"/><polygon class="cls-14" points="482.16 54.59 485 63.31 494.16 63.31 486.75 68.69 489.58 77.41 482.16 72.02 474.75 77.41 477.58 68.69 470.16 63.31 479.33 63.31 482.16 54.59"/><polygon class="cls-16" points="514.28 54.59 517.12 63.31 526.28 63.31 518.87 68.69 521.7 77.41 514.28 72.02 506.87 77.41 509.7 68.69 502.28 63.31 511.45 63.31 514.28 54.59"/><polygon class="cls-16" points="546.41 54.59 549.24 63.31 558.41 63.31 550.99 68.69 553.82 77.41 546.41 72.02 538.99 77.41 541.82 68.69 534.41 63.31 543.57 63.31 546.41 54.59"/><polygon class="cls-16" points="578.53 54.59 581.36 63.31 590.53 63.31 583.11 68.69 585.94 77.41 578.53 72.02 571.11 77.41 573.94 68.69 566.53 63.31 575.69 63.31 578.53 54.59"/><polygon class="cls-16" points="610.65 54.59 613.48 63.31 622.65 63.31 615.23 68.69 618.06 77.41 610.65 72.02 603.23 77.41 606.06 68.69 598.65 63.31 607.82 63.31 610.65 54.59"/><path class="cls-10" d="M457,50.78c-12.52.16-25.23-9.05-25.23-9.05-.62,3.89-4.46,9.05-4.47,9.05-.95,6.88-1,11.51-.09,12.81,1.19,1.61,9.68,10.64,14.94,10.64s13.76-9,14.94-10.64C458.05,62.29,458,57.66,457,50.78Z"/><path class="cls-9" d="M435.9,54.5a2.15,2.15,0,1,0-2.15-2.14A2.14,2.14,0,0,0,435.9,54.5Z"/><path class="cls-9" d="M448.42,54.5a2.15,2.15,0,1,0-2.15-2.14A2.14,2.14,0,0,0,448.42,54.5Z"/><path class="cls-10" d="M427.31,50.78a3.85,3.85,0,0,0-4.25-1.07c-2.56,1.06-.63,10,3.49,9.6A71.69,71.69,0,0,1,427.31,50.78Z"/><path class="cls-10" d="M457,50.78a3.85,3.85,0,0,1,4.25-1.07c2.57,1.06.64,10-3.49,9.6A69.66,69.66,0,0,0,457,50.78Z"/><path class="cls-10" d="M442.16,74.23a9.6,9.6,0,0,1-4.47-1.49V76a4.48,4.48,0,1,0,8.95,0V72.74A9.67,9.67,0,0,1,442.16,74.23Z"/><path class="cls-9" d="M426.3,59.72c-2.26,0-3.88-2.47-4.51-5-.53-2.15-.41-4.76,1.12-5.39a4.3,4.3,0,0,1,4.7,1.17.51.51,0,0,1,.09.16.37.37,0,0,1,0,.18,68.52,68.52,0,0,0-.76,8.47.41.41,0,0,1-.37.4Zm-1.89-9.89a3.06,3.06,0,0,0-1.19.25c-.9.37-1.18,2.28-.64,4.44s1.83,4.27,3.58,4.39a68.78,68.78,0,0,1,.73-8A3.69,3.69,0,0,0,424.41,49.83Z"/><path class="cls-9" d="M458,59.72h-.29a.43.43,0,0,1-.26-.13.45.45,0,0,1-.1-.27,68.52,68.52,0,0,0-.76-8.47.37.37,0,0,1,0-.18.51.51,0,0,1,.09-.16,4.28,4.28,0,0,1,4.7-1.17c1.52.63,1.65,3.24,1.11,5.39C461.91,57.25,460.28,59.72,458,59.72Zm-.58-8.79a71.05,71.05,0,0,1,.73,8c1.75-.12,3.05-2.23,3.58-4.39s.26-4.07-.64-4.44A3.35,3.35,0,0,0,457.44,50.93Z"/><path class="cls-17" d="M453.85,81.37c-4.46-3.21-7.21-5.39-7.21-5.39a4.48,4.48,0,1,1-8.95,0s-2.75,2.18-7.21,5.39-14.2,6.53-14.2,20.23h51.77C468.05,87.9,458.31,84.57,453.85,81.37Z"/><path class="cls-9" d="M468.05,102H416.28a.41.41,0,0,1-.41-.41c0-11.74,7.18-16.1,11.93-19,.9-.54,1.75-1.06,2.44-1.56,4.4-3.16,7.17-5.35,7.2-5.38a.5.5,0,0,1,.2-.08.34.34,0,0,1,.22,0,.39.39,0,0,1,.17.14.43.43,0,0,1,.06.22,4.21,4.21,0,0,0,.31,1.56,4.36,4.36,0,0,0,.88,1.32,4.08,4.08,0,0,0,2.88,1.19,4,4,0,0,0,1.56-.31A4.07,4.07,0,0,0,446.23,76a.44.44,0,0,1,.07-.22.36.36,0,0,1,.16-.14.35.35,0,0,1,.22,0,.49.49,0,0,1,.21.08s2.78,2.21,7.19,5.38c.7.5,1.55,1,2.45,1.56,4.75,2.89,11.92,7.25,11.92,19a.44.44,0,0,1-.11.29A.4.4,0,0,1,468.05,102Zm-51.37-.81h51c-.16-11-6.72-15-11.53-17.9-.91-.55-1.78-1.08-2.5-1.59-3.25-2.34-5.59-4.13-6.63-4.94a4.88,4.88,0,0,1-9.63,0c-1.05.81-3.4,2.61-6.64,4.94-.72.51-1.58,1-2.49,1.59C423.41,86.22,416.84,90.21,416.68,101.19Z"/><path class="cls-9" d="M442.16,80.86A4.88,4.88,0,0,1,437.28,76V72.74a.36.36,0,0,1,.06-.2.4.4,0,0,1,.14-.15.46.46,0,0,1,.2,0,.36.36,0,0,1,.21,0,7.11,7.11,0,0,0,8.55,0,.35.35,0,0,1,.2,0,.46.46,0,0,1,.2,0,.54.54,0,0,1,.15.15.46.46,0,0,1,.05.2V76a4.88,4.88,0,0,1-4.88,4.88Zm-4.07-7.44V76a4.13,4.13,0,0,0,.31,1.56,4.36,4.36,0,0,0,.88,1.32,4.08,4.08,0,0,0,4.44.88,4,4,0,0,0,2.2-2.2,4,4,0,0,0,.31-1.56V73.42a7.45,7.45,0,0,1-8.14,0Z"/><path class="cls-9" d="M447.79,66.45a.39.39,0,0,1,0,.3.41.41,0,0,1-.21.22.42.42,0,0,1-.31,0,.38.38,0,0,1-.22-.21c-.05-.1-1.19-2.52-4.89-2.52s-4.84,2.42-4.88,2.52a.38.38,0,0,1-.22.21.42.42,0,0,1-.31,0,.4.4,0,0,1-.22-.22.37.37,0,0,1,0-.31c0-.12,1.35-3,5.62-3S447.73,66.32,447.79,66.45Z"/><path class="cls-9" d="M425.84,102a.36.36,0,0,1-.28-.12.38.38,0,0,1-.12-.29V98.11c0-2.16,1.77-5.1,1.84-5.22a.43.43,0,0,1,.11-.12.35.35,0,0,1,.14-.06.3.3,0,0,1,.16,0l.15,0a.43.43,0,0,1,.12.11A.35.35,0,0,1,428,93a.29.29,0,0,1,0,.16.88.88,0,0,1,0,.15s-1.73,2.87-1.73,4.79v3.49a.43.43,0,0,1-.12.29A.4.4,0,0,1,425.84,102Z"/><path class="cls-9" d="M458.48,102a.41.41,0,0,1-.4-.4V98.11c0-1.93-1.71-4.77-1.73-4.8a.4.4,0,0,1-.05-.3.37.37,0,0,1,.19-.25.4.4,0,0,1,.55.13c.08.13,1.85,3.06,1.85,5.22v3.49a.38.38,0,0,1-.12.28A.4.4,0,0,1,458.48,102Z"/><path class="cls-9" d="M442.16,74.63c-5.74,0-14.46-9.7-15.26-10.8-1-1.38-1-5.79,0-13.1a.46.46,0,0,1,.08-.19s3.8-5.13,4.39-8.87a.46.46,0,0,1,.08-.19.52.52,0,0,1,.17-.12.34.34,0,0,1,.2,0,.46.46,0,0,1,.19.08c.12.09,12.54,9,24.68,9H457a.37.37,0,0,1,.26.1.35.35,0,0,1,.14.25c1,7.31,1,11.72,0,13.1C456.62,64.93,447.91,74.63,442.16,74.63ZM427.7,50.94c-1.33,9.57-.55,11.87-.15,12.41,1.14,1.55,9.59,10.47,14.61,10.47s13.48-8.92,14.62-10.47c.39-.54,1.16-2.8-.12-12.16-11,0-22.11-7.09-24.6-8.77C431.23,46,428.19,50.27,427.7,50.94Z"/><path class="cls-9" d="M442.16,74.63c-5.74,0-14.46-9.7-15.26-10.8-1-1.38-1-5.79,0-13.1a.46.46,0,0,1,.08-.19s3.8-5.13,4.39-8.87a.46.46,0,0,1,.08-.19.52.52,0,0,1,.17-.12.34.34,0,0,1,.2,0,.46.46,0,0,1,.19.08c.12.09,12.54,9,24.68,9H457a.37.37,0,0,1,.26.1.35.35,0,0,1,.14.25c1,7.31,1,11.72,0,13.1C456.62,64.93,447.91,74.63,442.16,74.63ZM427.7,50.94c-1.33,9.57-.55,11.87-.15,12.41,1.14,1.55,9.59,10.47,14.61,10.47s13.48-8.92,14.62-10.47c.39-.54,1.16-2.8-.12-12.16-11,0-22.11-7.09-24.6-8.77C431.23,46,428.19,50.27,427.7,50.94Z"/><path class="cls-18" d="M442.16,30.41c-13.21,0-18,4.85-17.55,15.23,0,1.2.07,2.48.08,3.81a4.27,4.27,0,0,1,2.62,1.34c0,.11.12,0,0,0s3.85-5.16,4.47-9.06c0,0,12.71,9.21,25.23,9.06a4.29,4.29,0,0,1,2.62-1.34c0-1.33,0-2.61.08-3.81C460.12,35.26,455.38,30.41,442.16,30.41Z"/><path class="cls-18" d="M459.74,58.72a2.84,2.84,0,0,1-2,.58c0,2.17-.2,3.64-.67,4.28a44.14,44.14,0,0,1-10.46,9.16V75s5.37,1.75,13.72-2.29C460.36,72.74,460,66.18,459.74,58.72Z"/><path class="cls-18" d="M427.22,63.58c-.47-.64-.68-2.11-.67-4.28h0a2.85,2.85,0,0,1-2-.58c-.21,7.46-.62,14-.62,14,8.36,4,13.73,2.29,13.73,2.29V72.74A44.24,44.24,0,0,1,427.22,63.58Z"/><path class="cls-9" d="M427.33,51.25h-.07a.37.37,0,0,1-.19-.09A.48.48,0,0,1,427,51a3.86,3.86,0,0,0-2.29-1.14.43.43,0,0,1-.26-.13.4.4,0,0,1-.11-.27c0-1.39,0-2.66-.08-3.79-.2-5.12.87-8.82,3.27-11.32,2.81-2.92,7.61-4.34,14.68-4.34s11.87,1.42,14.68,4.34c2.41,2.5,3.48,6.2,3.28,11.32,0,1.13-.07,2.4-.08,3.79a.46.46,0,0,1-.11.27.43.43,0,0,1-.26.13,4,4,0,0,0-2.37,1.21.38.38,0,0,1-.13.09.4.4,0,0,1-.15,0h-.32c-11,0-22.14-7.09-24.64-8.78-.8,3.46-3.64,7.54-4.29,8.44,0,0,0,0,0,.07a.48.48,0,0,1-.16.23A.52.52,0,0,1,427.33,51.25Zm4.45-9.92a.4.4,0,0,1,.24.07c.12.09,12.65,9.05,24.82,9a4.84,4.84,0,0,1,2.39-1.29c0-1.26,0-2.42.08-3.47.19-4.88-.81-8.39-3.05-10.72-2.65-2.75-7.26-4.09-14.1-4.09s-11.45,1.34-14.09,4.09c-2.25,2.33-3.24,5.84-3.06,10.72,0,1.05.07,2.21.08,3.47a4.7,4.7,0,0,1,2.16,1.08c.88-1.24,3.63-5.35,4.13-8.5a.35.35,0,0,1,.14-.25A.39.39,0,0,1,431.78,41.33Z"/><path class="cls-9" d="M449.87,75.82a11.58,11.58,0,0,1-3.36-.4.41.41,0,0,1-.2-.14.43.43,0,0,1-.08-.24v-2.3a.43.43,0,0,1,.21-.35,44.38,44.38,0,0,0,10.33-9c.29-.39.62-1.4.59-4a.47.47,0,0,1,0-.16.33.33,0,0,1,.1-.14.29.29,0,0,1,.14-.08.32.32,0,0,1,.17,0,2.5,2.5,0,0,0,1.69-.51.49.49,0,0,1,.21-.08.49.49,0,0,1,.21,0,.46.46,0,0,1,.16.15.48.48,0,0,1,.07.21c.2,7.36.61,13.93.62,14a.46.46,0,0,1-.06.23.44.44,0,0,1-.17.16A24.53,24.53,0,0,1,449.87,75.82ZM447,74.72c1.18.27,6,1,12.91-2.22-.08-1.28-.4-6.82-.59-13.08a3,3,0,0,1-1.18.3c0,2.09-.26,3.44-.75,4.11A45,45,0,0,1,447,73Z"/><path class="cls-9" d="M434.45,75.82a24.63,24.63,0,0,1-10.67-2.72.4.4,0,0,1-.22-.39c0-.06.41-6.64.62-14a.42.42,0,0,1,.06-.21.43.43,0,0,1,.16-.14.41.41,0,0,1,.22,0,.37.37,0,0,1,.2.07,2.42,2.42,0,0,0,1.66.51h.08a.38.38,0,0,1,.28.12.36.36,0,0,1,.12.28h0c0,2.64.31,3.65.59,4a44,44,0,0,0,10.34,9,.4.4,0,0,1,.15.14.54.54,0,0,1,0,.21V75a.4.4,0,0,1-.07.24.45.45,0,0,1-.21.15A11.54,11.54,0,0,1,434.45,75.82Zm-10.07-3.33c6.91,3.27,11.72,2.5,12.9,2.23V73a45.14,45.14,0,0,1-10.38-9.15c-.49-.67-.74-2-.75-4.1a3.21,3.21,0,0,1-1.18-.3C424.78,65.67,424.46,71.22,424.38,72.49Z"/><path class="cls-9" d="M441.31,59.12a1.38,1.38,0,0,1-1.19-.45,4.65,4.65,0,0,1-.56-2.34.36.36,0,0,1,.12-.28.38.38,0,0,1,.28-.12h0l.15,0a.44.44,0,0,1,.22.22.41.41,0,0,1,0,.16,3.85,3.85,0,0,0,.41,1.85c.05.08.41.22,1.46,0a.43.43,0,0,1,.16,0l.14,0a.34.34,0,0,1,.12.12.59.59,0,0,1,.06.14.43.43,0,0,1,0,.16.47.47,0,0,1-.06.15l-.11.11-.15.06A5.7,5.7,0,0,1,441.31,59.12Z"/></svg>