<svg id="Layer_1" data-name="Layer 1" xmlns="http://www.w3.org/2000/svg" viewBox="0 0 800 600"><defs><style>.cls-1{fill:#374151;}.cls-2,.cls-5{fill:#fff;}.cls-10,.cls-12,.cls-14,.cls-16,.cls-3,.cls-8{fill:none;}.cls-3,.cls-5{stroke:#d1d5db;}.cls-10,.cls-14,.cls-16,.cls-3,.cls-4{stroke-miterlimit:10;}.cls-4{fill:#f3f4f6;stroke:#e5e7eb;}.cls-12,.cls-14,.cls-5,.cls-8{stroke-linecap:round;}.cls-12,.cls-5,.cls-8{stroke-linejoin:round;}.cls-12,.cls-5{stroke-width:8px;}.cls-6{fill:#f9fbfd;}.cls-7{fill:#fecaca;}.cls-10,.cls-8{stroke:#ef4444;}.cls-14,.cls-8{stroke-width:3px;}.cls-9{fill:#ef4444;}.cls-11{fill:#3b82f6;}.cls-12{stroke:#fff;}.cls-13{fill:#a7f3d0;}.cls-14,.cls-16{stroke:#10b981;}.cls-15{fill:#10b981;}</style></defs><path class="cls-1" d="M319.56,20a10.08,10.08,0,0,1,3.45.64,8.2,8.2,0,0,1,3.08,2.05,10.14,10.14,0,0,1,2.2,3.84,19.15,19.15,0,0,1,.84,6,25.47,25.47,0,0,1-.7,6.11,13.71,13.71,0,0,1-2,4.52A8.44,8.44,0,0,1,319.23,47a9.09,9.09,0,0,1-4.15-.92,7.86,7.86,0,0,1-3-2.55,8.41,8.41,0,0,1-1.42-3.75h3.9a5.07,5.07,0,0,0,1.57,2.73,4.49,4.49,0,0,0,3.06,1A5.07,5.07,0,0,0,323.72,41a13.13,13.13,0,0,0,1.62-7h-.2a7,7,0,0,1-1.66,1.89,7.52,7.52,0,0,1-2.22,1.23,8.09,8.09,0,0,1-6.74-.68,8.15,8.15,0,0,1-2.95-3,8.92,8.92,0,0,1-1.1-4.45,9.07,9.07,0,0,1,1.14-4.53,8.35,8.35,0,0,1,3.17-3.21A9.21,9.21,0,0,1,319.56,20Zm0,3.32a5,5,0,0,0-2.7.75,5.29,5.29,0,0,0-1.88,2,6,6,0,0,0,0,5.56,5.11,5.11,0,0,0,1.84,2,5,5,0,0,0,2.68.73,5.1,5.1,0,0,0,2.1-.44,5.19,5.19,0,0,0,1.69-1.21,5.92,5.92,0,0,0,1.14-1.76,5.43,5.43,0,0,0,.41-2.08,5.59,5.59,0,0,0-2.55-4.74A5,5,0,0,0,319.58,23.32Z"/><path class="cls-1" d="M342.86,47a8.53,8.53,0,0,1-5.18-1.6,9.88,9.88,0,0,1-3.29-4.61,20.8,20.8,0,0,1-1.14-7.3,20.63,20.63,0,0,1,1.15-7.28,9.84,9.84,0,0,1,3.3-4.6,9.13,9.13,0,0,1,10.31,0,9.9,9.9,0,0,1,3.29,4.6,20.55,20.55,0,0,1,1.14,7.27,21,21,0,0,1-1.13,7.3A9.91,9.91,0,0,1,348,45.45,8.42,8.42,0,0,1,342.86,47Zm0-3.41A4.62,4.62,0,0,0,347,41q1.5-2.6,1.5-7.5a19.43,19.43,0,0,0-.68-5.52,7.56,7.56,0,0,0-2-3.43,4.32,4.32,0,0,0-3-1.17A4.63,4.63,0,0,0,338.7,26a15.36,15.36,0,0,0-1.52,7.51,19.43,19.43,0,0,0,.68,5.52,7.49,7.49,0,0,0,1.95,3.42A4.38,4.38,0,0,0,342.86,43.63Z"/><path class="cls-1" d="M371.76,31.76l-3.46.62a4.26,4.26,0,0,0-.69-1.27,3.39,3.39,0,0,0-1.26-1,4.48,4.48,0,0,0-2-.39,4.82,4.82,0,0,0-2.71.72,2.2,2.2,0,0,0-1.09,1.86,2,2,0,0,0,.73,1.59,5.85,5.85,0,0,0,2.36,1l3.11.72a8.34,8.34,0,0,1,4,1.93,4.53,4.53,0,0,1,1.33,3.39,5.15,5.15,0,0,1-1,3.14,6.78,6.78,0,0,1-2.83,2.15,10.46,10.46,0,0,1-4.18.78,9.45,9.45,0,0,1-5.39-1.41,5.89,5.89,0,0,1-2.55-4l3.69-.57a3.48,3.48,0,0,0,1.42,2.18,4.87,4.87,0,0,0,2.8.74,5.1,5.1,0,0,0,3-.79,2.29,2.29,0,0,0,1.13-1.92,2,2,0,0,0-.68-1.55,4.57,4.57,0,0,0-2.09-.94L362.12,38a8,8,0,0,1-4.06-2,4.8,4.8,0,0,1-1.31-3.46,5,5,0,0,1,1-3,6.45,6.45,0,0,1,2.69-2,9.86,9.86,0,0,1,3.92-.74,8.1,8.1,0,0,1,5,1.38A6.42,6.42,0,0,1,371.76,31.76Z"/><path class="cls-1" d="M402.67,27,395.55,46.6h-4.09L384.33,27h4.1l5,15.11h.21l5-15.11Z"/><path class="cls-1" d="M421,31.76l-3.47.62a4,4,0,0,0-.68-1.27,3.39,3.39,0,0,0-1.26-1,4.48,4.48,0,0,0-2-.39,4.8,4.8,0,0,0-2.71.72,2.17,2.17,0,0,0-1.09,1.86,2,2,0,0,0,.73,1.59,5.86,5.86,0,0,0,2.35,1l3.12.72a8.34,8.34,0,0,1,4,1.93,4.53,4.53,0,0,1,1.33,3.39,5.21,5.21,0,0,1-1,3.14,6.78,6.78,0,0,1-2.83,2.15,10.51,10.51,0,0,1-4.19.78A9.41,9.41,0,0,1,408,45.59a5.93,5.93,0,0,1-2.56-4l3.7-.57a3.48,3.48,0,0,0,1.42,2.18,4.85,4.85,0,0,0,2.8.74,5.1,5.1,0,0,0,3-.79,2.29,2.29,0,0,0,1.13-1.92,2,2,0,0,0-.69-1.55,4.47,4.47,0,0,0-2.09-.94L411.34,38a8,8,0,0,1-4.06-2A4.8,4.8,0,0,1,406,32.53a4.93,4.93,0,0,1,1-3,6.39,6.39,0,0,1,2.69-2,9.86,9.86,0,0,1,3.92-.74,8.14,8.14,0,0,1,5,1.38A6.42,6.42,0,0,1,421,31.76Z"/><path class="cls-1" d="M445,20.42V46.6h-4V24.38h-.15l-6.27,4.1V24.69l6.54-4.27Z"/><path class="cls-1" d="M460.7,47a9.78,9.78,0,0,1-4.32-.93,7.7,7.7,0,0,1-3.05-2.55,6.77,6.77,0,0,1-1.21-3.7H456a3.82,3.82,0,0,0,1.49,2.77,5,5,0,0,0,3.25,1.09,5.1,5.1,0,0,0,2.68-.7A4.93,4.93,0,0,0,465.22,41a5.71,5.71,0,0,0,.67-2.8,5.78,5.78,0,0,0-.69-2.85,5.07,5.07,0,0,0-1.9-2,5.4,5.4,0,0,0-2.77-.73,7.46,7.46,0,0,0-2.39.41,5.51,5.51,0,0,0-1.94,1.07l-3.62-.54,1.47-13.19h14.4v3.39H457.34l-.83,7.32h.15a6.26,6.26,0,0,1,2-1.24,7.47,7.47,0,0,1,2.73-.49,8.12,8.12,0,0,1,4.26,1.13,8.21,8.21,0,0,1,2.95,3.1,9.09,9.09,0,0,1,1.07,4.51,8.78,8.78,0,0,1-1.14,4.54,8.39,8.39,0,0,1-3.2,3.14A9.42,9.42,0,0,1,460.7,47Z"/><path class="cls-1" d="M489.14,31.76l-3.46.62a4.26,4.26,0,0,0-.69-1.27,3.39,3.39,0,0,0-1.26-1,4.42,4.42,0,0,0-2-.39,4.82,4.82,0,0,0-2.71.72A2.18,2.18,0,0,0,478,32.32a2,2,0,0,0,.73,1.59,5.8,5.8,0,0,0,2.35,1l3.12.72a8.43,8.43,0,0,1,4,1.93,4.57,4.57,0,0,1,1.33,3.39,5.15,5.15,0,0,1-1,3.14,6.78,6.78,0,0,1-2.83,2.15,10.46,10.46,0,0,1-4.18.78,9.39,9.39,0,0,1-5.38-1.41,5.9,5.9,0,0,1-2.56-4l3.69-.57a3.52,3.52,0,0,0,1.42,2.18,4.87,4.87,0,0,0,2.8.74,5.13,5.13,0,0,0,3-.79,2.28,2.28,0,0,0,1.12-1.92,2,2,0,0,0-.68-1.55,4.57,4.57,0,0,0-2.09-.94L479.5,38a8,8,0,0,1-4.06-2,4.8,4.8,0,0,1-1.31-3.46,4.94,4.94,0,0,1,1-3,6.35,6.35,0,0,1,2.68-2,9.86,9.86,0,0,1,3.92-.74,8.16,8.16,0,0,1,5,1.38A6.41,6.41,0,0,1,489.14,31.76Z"/><path class="cls-2" d="M346.7,105.56h-256a6.9,6.9,0,0,0-6.74,7V593a6.9,6.9,0,0,0,6.74,7h256a6.9,6.9,0,0,0,6.74-7V112.6A6.9,6.9,0,0,0,346.7,105.56Z"/><path class="cls-3" d="M346.7,105.56h-256a6.9,6.9,0,0,0-6.74,7V593a6.9,6.9,0,0,0,6.74,7h256a6.9,6.9,0,0,0,6.74-7V112.6A6.9,6.9,0,0,0,346.7,105.56Z"/><rect class="cls-4" x="106.62" y="123.78" width="224.2" height="34.84" rx="8"/><line class="cls-5" x1="124.13" y1="141.21" x2="206.88" y2="141.21"/><rect class="cls-4" x="106.62" y="170.46" width="224.2" height="34.84" rx="8"/><line class="cls-5" x1="124.13" y1="187.88" x2="250.67" y2="187.88"/><rect class="cls-4" x="106.62" y="217.13" width="224.2" height="34.84" rx="8"/><line class="cls-5" x1="124.13" y1="234.55" x2="285.71" y2="234.55"/><rect class="cls-4" x="106.62" y="263.8" width="224.2" height="34.84" rx="8"/><line class="cls-5" x1="124.13" y1="281.22" x2="165.51" y2="281.22"/><rect class="cls-4" x="106.62" y="310.47" width="224.2" height="34.84" rx="8"/><line class="cls-5" x1="124.13" y1="327.9" x2="250.67" y2="327.9"/><rect class="cls-4" x="106.62" y="357.15" width="224.2" height="34.84" rx="8"/><line class="cls-5" x1="124.13" y1="374.57" x2="276.58" y2="374.57"/><rect class="cls-4" x="106.62" y="403.82" width="224.2" height="34.84" rx="8"/><line class="cls-5" x1="124.13" y1="421.24" x2="235.78" y2="421.24"/><rect class="cls-4" x="106.62" y="450.49" width="224.2" height="34.84" rx="8"/><line class="cls-5" x1="124.13" y1="467.91" x2="295.13" y2="467.91"/><rect class="cls-4" x="106.62" y="497.16" width="224.2" height="34.84" rx="8"/><line class="cls-5" x1="124.13" y1="514.58" x2="295.13" y2="514.58"/><rect class="cls-4" x="106.62" y="543.83" width="224.2" height="34.84" rx="8"/><line class="cls-5" x1="124.13" y1="561.26" x2="295.13" y2="561.26"/><circle class="cls-6" cx="218.72" cy="105.56" r="41.71"/><circle class="cls-7" cx="218.72" cy="105.56" r="29.02"/><path class="cls-2" d="M218.72,105.56v29a28.94,28.94,0,0,0,20.52-8.5Z"/><line class="cls-8" x1="232.36" y1="119.2" x2="218.33" y2="105.56"/><circle class="cls-9" cx="218.72" cy="105.56" r="3.1"/><circle class="cls-10" cx="218.72" cy="105.56" r="29.02"/><path class="cls-2" d="M709.23,105.56H452.17a6.82,6.82,0,0,0-6.77,6.87v193a6.82,6.82,0,0,0,6.77,6.87H709.23A6.82,6.82,0,0,0,716,305.4v-193A6.82,6.82,0,0,0,709.23,105.56Z"/><path class="cls-3" d="M709.23,105.56H452.17a6.82,6.82,0,0,0-6.77,6.87v193a6.82,6.82,0,0,0,6.77,6.87H709.23A6.82,6.82,0,0,0,716,305.4v-193A6.82,6.82,0,0,0,709.23,105.56Z"/><rect class="cls-4" x="464.64" y="128.31" width="232.13" height="43.52" rx="8"/><rect class="cls-11" x="464.64" y="247.37" width="232.13" height="43.52" rx="8"/><rect class="cls-4" x="464.64" y="187.84" width="110.62" height="43.52" rx="8"/><rect class="cls-4" x="586.14" y="187.84" width="110.62" height="43.52" rx="8"/><line class="cls-5" x1="482.77" y1="150.07" x2="650.05" y2="150.07"/><line class="cls-5" x1="482.77" y1="209.61" x2="541.02" y2="209.61"/><line class="cls-12" x1="551.57" y1="269.14" x2="609.83" y2="269.14"/><line class="cls-5" x1="604.28" y1="209.61" x2="675.47" y2="209.61"/><circle class="cls-6" cx="580.7" cy="105.56" r="41.71"/><circle class="cls-2" cx="580.7" cy="105.56" r="29.02"/><path class="cls-13" d="M580.7,134.58v-29h-29A29,29,0,0,0,580.7,134.58Z"/><line class="cls-14" x1="580.7" y1="105.56" x2="562.56" y2="105.56"/><circle class="cls-15" cx="580.7" cy="105.56" r="3.1"/><circle class="cls-16" cx="580.7" cy="105.56" r="29.02"/></svg>