<?xml version="1.0" encoding="UTF-8"?><svg id="a" xmlns="http://www.w3.org/2000/svg" width="128" height="128" viewBox="0 0 128 128"><g id="b"><path id="c" d="m122.5991,65.1122c0-3.95-.35-7.7-.95-11.35h-56.5v22.55h32.35c-1.45,7.4-5.7,13.65-12,17.9v15h19.3c11.3-10.45,17.8-25.85,17.8-44.1h0Z" fill="#4285f4"/><path id="d" d="m65.1491,123.7622c16.2,0,29.75-5.4,39.65-14.55l-19.3-15c-5.4,3.6-12.25,5.8-20.35,5.8-15.65,0-28.9-10.55-33.65-24.8H11.5991v15.45c9.85,19.6,30.1,33.1,53.55,33.1h0Z" fill="#34a853"/><path id="e" d="m31.4991,75.2123c-1.25-3.6-1.9-7.45-1.9-11.45s.7-7.85,1.9-11.45v-15.45H11.5991c-4.1,8.1-6.45,17.2-6.45,26.9s2.35,18.8,6.45,26.9l19.9-15.45Z" fill="#fbbc05"/><path id="f" d="m65.1491,27.5123c8.85,0,16.75,3.05,23,9l17.1-17.1c-10.35-9.7-23.9-15.65-40.1-15.65-23.45,0-43.7,13.5-53.55,33.1l19.9,15.45c4.75-14.25,18-24.8,33.65-24.8h0Z" fill="#ea4335"/></g></svg>