<?xml version="1.0" encoding="UTF-8"?><svg id="a" xmlns="http://www.w3.org/2000/svg" width="512" height="128" viewBox="0 0 512 128"><path d="M87.45996,14.46359H23.61304c-9.72742,0-17.61304,7.88562-17.61304,17.61298v63.84692c0,9.72736,7.88562,17.61292,17.61304,17.61292h63.84692c9.72729,0,17.61292-7.88556,17.61292-17.61292v-63.84692c0-9.72736-7.88562-17.61298-17.61292-17.61298ZM88.56079,54.61789c0,11.65863-9.45117,21.1098-21.10986,21.1098h-14.60376l1.70239-17.70349c.05786-.60144.56323-1.06055,1.16736-1.06055h6.54944c.96704,2.73102,3.56519,4.69086,6.62744,4.69086,3.98218,0,7.19165-3.30774,7.03088-7.32556-.14307-3.57343-3.06555-6.54181-6.6366-6.73688-3.23218-.17657-6.01379,1.83276-7.02197,4.68054h-9.74536c-1.2085,0-2.21899.91815-2.33472,2.12103l-3.83398,39.87408.0105.00104-.02148.22321h-17.3551c-1.38416,0-2.46729-1.19226-2.33484-2.57007l5.41284-56.29279c.11572-1.20294,1.12622-2.12103,2.33472-2.12103h33.05225c11.65869,0,21.10986,9.45117,21.10986,21.10974v.00006Z" fill="#325eea" stroke-width="0"/><path d="M179.01885,38.45035c-1.75163-1.47983-3.95627-2.61235-6.61392-3.39756s-5.7985-1.17782-9.42257-1.17782h-24.88524v47.20343h9.57357v-12.53322l15.37207.0302c3.62406,0,6.76492-.43791,9.42257-1.31372,2.65765-.87582,4.85725-2.0939,6.59882-3.65426,1.74156-1.56036,3.03515-3.40763,3.88077-5.5418.84561-2.13417,1.26842-4.45961,1.26842-6.97632,0-2.67778-.42784-5.08376-1.28352-7.21793s-2.15934-3.94117-3.91097-5.421ZM173.44685,54.87944c-.45301,1.13755-1.13755,2.10397-2.05364,2.89925s-2.05364,1.40936-3.41266,1.84223-2.94455.64931-4.75658.64931h-15.55327v-18.05992h15.55327c3.62406,0,6.34715.78018,8.16924,2.34054,1.8221,1.56036,2.73315,3.73983,2.73315,6.53842,0,1.38922-.2265,2.65261-.67951,3.79017ZM215.28968,44.32435l2.62745,8.18434c-3.44286.34227-6.46795,1.11239-9.07526,2.31034-2.60731,1.19795-4.72638,2.88415-6.35721,5.05859v21.20077h-8.93936v-35.63663h8.93936v5.13409c1.9731-1.46976,4.05694-2.73818,6.25151-3.80527s4.37908-1.8825,6.55352-2.44624ZM260.75658,50.21346c-1.92277-1.6711-4.24821-2.98985-6.97632-3.95627-2.72811-.96642-5.79347-1.44963-9.19606-1.44963s-6.46795.48321-9.19606,1.44963c-2.72811.96642-5.05356,2.28517-6.97632,3.95627s-3.40259,3.62406-4.43948,5.8589-1.55533,4.63075-1.55533,7.18773.51844,4.95289,1.55533,7.18773,2.51671,4.18781,4.43948,5.8589c1.92277,1.6711,4.24821,2.98985,6.97632,3.95627s5.79347,1.44963,9.19606,1.44963,6.46795-.48321,9.19606-1.44963,5.05356-2.28517,6.97632-3.95627c1.92277-1.6711,3.40259-3.62406,4.43948-5.8589s1.55533-4.63075,1.55533-7.18773-.51844-4.95289-1.55533-7.18773c-1.03688-2.23484-2.51671-4.18781-4.43948-5.8589ZM256.49831,67.32206c-.57381,1.27849-1.40936,2.40598-2.50664,3.38246s-2.43618,1.75163-4.01667,2.32544-3.37743.86072-5.39079.86072-3.8103-.28691-5.39079-.86072-2.91938-1.34896-4.01667-2.32544-1.93283-2.10397-2.50664-3.38246-.86072-2.63248-.86072-4.06197.28691-2.78852.86072-4.07707,1.40936-2.42108,2.50664-3.39756,2.43618-1.75163,4.01667-2.32544,3.37743-.86072,5.39079-.86072,3.8103.28691,5.39079.86072,2.91938,1.34896,4.01667,2.32544c1.09729.97648,1.93283,2.109,2.50664,3.39756s.86072,2.64758.86072,4.07707-.28691,2.78348-.86072,4.06197ZM296.40831,63.22989l14.73786,17.84851h-11.4158l-9.21116-11.144-8.54675,11.144h-11.144l14.19425-17.81831-14.73786-17.84851h11.4158l8.93936,10.87219,8.48635-10.87219h11.144l-13.86204,17.81831ZM347.62841,45.44177h8.93936v31.55956c0,3.40259-.48321,6.35721-1.44963,8.86386-.96642,2.50664-2.37074,4.58545-4.21297,6.23641-1.84223,1.65096-4.10224,2.88415-6.78002,3.69957s-5.71797,1.22312-9.12056,1.22312c-3.32206,0-6.42265-.35234-9.30176-1.05702-2.87912-.70468-5.51663-1.66103-7.91254-2.86905l3.32206-7.55013c.92615.60401,1.93283,1.13755,3.02005,1.60063s2.21974.84561,3.39756,1.14762,2.38081.52851,3.60896.67951,2.44624.2265,3.65426.2265c4.10727,0,7.27329-.88085,9.49807-2.64255,2.22477-1.7617,3.33716-4.40424,3.33716-7.92764v-1.20802c-.78521.54361-1.66606,1.04192-2.64255,1.49493s-2.02344.84058-3.14086,1.16272c-1.11742.32214-2.29524.56878-3.53346.73991-1.23822.17114-2.49154.2567-3.75997.2567-2.71805,0-5.14919-.39764-7.29343-1.19292-2.14424-.79528-3.95627-1.96303-5.4361-3.50326-1.47983-1.54023-2.61235-3.43783-3.39756-5.6928-.78521-2.25497-1.17782-4.83209-1.17782-7.73134v-17.51631h8.90916v15.03986c0,4.30861.82045,7.4847,2.46134,9.52827,1.6409,2.04357,4.23311,3.06535,7.77664,3.06535,2.49658,0,4.70625-.43791,6.62902-1.31372s3.45796-1.99827,4.60558-3.36736v-22.9524ZM400.44914,70.44781l4.13747,6.73472c-1.06709.64428-2.22477,1.24326-3.47306,1.79693-1.24829.55368-2.58215,1.03185-4.00157,1.43453s-2.90932.71978-4.46968.95132c-1.56036.23154-3.17609.34731-4.84719.34731-3.40259,0-6.45285-.46307-9.15076-1.38922s-4.98309-2.20967-6.85552-3.85057c-1.87243-1.6409-3.30696-3.57876-4.30358-5.8136-.99662-2.23484-1.49493-4.67102-1.49493-7.30853,0-2.61738.47818-5.05859,1.43453-7.32363.95635-2.26504,2.35564-4.22807,4.19787-5.8891,1.84223-1.66103,4.09721-2.96469,6.76492-3.91097,2.66771-.94628,5.71293-1.41942,9.13566-1.41942,1.48989,0,2.98985.0906,4.49988.2718s2.96469.43791,4.36398.77011,2.71301.72481,3.94117,1.17782,2.29524.95132,3.20126,1.49493l-4.13747,6.73472c-1.95297-.90602-3.80023-1.57043-5.5418-1.99324s-3.5083-.63421-5.30019-.63421c-2.05364,0-3.89587.26677-5.5267.80031s-3.01502,1.27849-4.15257,2.23484-2.0033,2.08384-2.59725,3.38246-.89092,2.71301-.89092,4.24317.31711,2.94455.95132,4.24317c.63421,1.29862,1.53016,2.41604,2.68785,3.35226,1.15769.93622,2.55698,1.6711,4.19787,2.20464,1.6409.53354,3.46803.80031,5.4814.80031,2.21471,0,4.30358-.31207,6.26661-.93622,1.96303-.62414,3.79017-1.45969,5.4814-2.50664ZM445.50834,45.41157h8.93936v35.66683h-8.93936v-3.05025c-2.19457,1.30869-4.39921,2.24491-6.61392,2.80865s-4.31868.84561-6.31191.84561c-3.26166,0-6.05521-.39261-8.38065-1.17782-2.32544-.78521-4.22807-1.9278-5.7079-3.42776s-2.56201-3.34219-3.24656-5.5267-1.02682-4.67605-1.02682-7.47463v-18.66393h8.90916v17.39551c0,1.65096.1812,3.15596.54361,4.51498.36241,1.35902.98152,2.52174,1.85733,3.48816.87582.96642,2.04357,1.7164,3.50326,2.24994s3.27676.80031,5.4512.80031c1.02682,0,2.06874-.11074,3.12576-.33221s2.06874-.52851,3.03515-.92112,1.8674-.86072,2.70295-1.40432,1.55533-1.13755,2.15934-1.78183v-24.00942ZM487.54748,44.32435l2.62745,8.18434c-3.44286.34227-6.46795,1.11239-9.07526,2.31034-2.60731,1.19795-4.72638,2.88415-6.35721,5.05859v21.20077h-8.93936v-35.63663h8.93936v5.13409c1.9731-1.46976,4.05694-2.73818,6.25151-3.80527s4.37908-1.8825,6.55352-2.44624ZM506,30.97572v50.10268h-8.93936V30.97572h8.93936Z" stroke-width="0"/></svg>