<?xml version="1.0" encoding="UTF-8"?><svg id="a" xmlns="http://www.w3.org/2000/svg" width="512" height="128" viewBox="0 0 512 128"><path d="m143.871,93.6134c1.261-.7433,2.0664-2.289,2.0664-3.7952,0-2.4493-1.9889-4.2912-4.7365-4.2912h-6.6375v16.802h6.7249c2.8888,0,5.0896-2.0182,5.0896-4.6237,0-1.8374-.9527-3.4258-2.5068-4.0919Zm-7.2236-6.0243h4.5085c1.4771,0,2.632,1.085,2.632,2.5138,0,1.399-1.1246,2.5201-2.6173,2.5201h-4.5232v-5.0339Zm4.6184,12.6558l-4.6179.0005v-5.5603h4.6281c1.6715,0,2.9303,1.1954,2.9303,2.7789,0,1.6094-1.2608,2.7809-2.9406,2.7809Z" fill="#939598"/><path d="m154.9431,99.1785l-4.6086-9.8105h-2.2193l5.7669,12.0782-.4668.9707c-1.0425,2.1656-1.6539,2.6954-3.3883,2.6954h-1.0455v1.8429h1.2203c2.4459,0,3.6794-1.0201,5.0764-4.09l6.178-13.4972h-2.1739l-4.3391,9.8105Z" fill="#939598"/><path d="m175.7971,85.528l-6.0242-.0005v16.802h2.1056v-6.0388h3.9186c3.193,0,5.5769-2.3092,5.5769-5.3826,0-3.0924-2.4078-5.3801-5.5769-5.3801Zm-.1094,8.7226l-3.8093.0005v-6.6829h3.8093c2.0611,0,3.5363,1.4229,3.5363,3.34,0,1.92-1.4752,3.3424-3.5363,3.3424Z" fill="#939598"/><path d="m185.9557,91.3413l-.3316-1.9732h-1.4488v12.9615h2.0401v-7.0423c0-2.5182,1.3355-4.0558,3.7077-4.0558h1.3228v-1.9308l-1.1475-.0005c-1.8663,0-3.2257.7154-4.1428,2.0411Z" fill="#939598"/><path d="m198.8782,89.0838c-3.926,0-6.8719,2.8566-6.8719,6.765,0,3.884,2.9459,6.7645,6.8719,6.7645,3.9284,0,6.8724-2.8805,6.8724-6.7645s-2.944-6.765-6.8724-6.765Zm.0005,11.5552l-.0005-.0005c-2.7721,0-4.7878-2.0152-4.7878-4.7898,0-2.7765,2.0138-4.7903,4.7883-4.7903s4.7878,2.0157,4.7878,4.7903-2.0133,4.7903-4.7878,4.7903Z" fill="#939598"/><polygon points="218.1955 89.368 215.9517 89.368 212.5858 94.1588 209.2747 89.368 206.987 89.368 211.3426 95.5929 206.5905 102.3296 208.8342 102.3296 212.5644 96.9299 216.2823 102.3296 218.57 102.3296 213.7949 95.5016 218.1955 89.368" fill="#939598"/><path d="m225.9141,99.1785l-4.6086-9.8105h-2.2193l5.7669,12.0782-.4668.9707c-1.0425,2.1656-1.6539,2.6954-3.3883,2.6954h-1.0455v1.8429h1.2203c2.4459,0,3.6794-1.0201,5.0764-4.09l6.178-13.4972h-2.1739l-4.3391,9.8105Z" fill="#939598"/><path d="m240.0944,100.6386c-2.6368,0-4.6506-2.0831-4.6506-4.7898,0-2.7086,1.9898-4.7903,4.6506-4.7903,1.9088,0,3.5172,1.0157,4.281,2.6783h2.0206c-.7852-2.8102-3.2111-4.653-6.3011-4.653-3.8346,0-6.7347,2.9005-6.7347,6.765,0,3.86,2.902,6.7645,6.7342,6.7645,3.0621,0,5.5359-1.8604,6.3269-4.7209h-2.0645c-.7911,1.733-2.3556,2.7462-4.2624,2.7462Z" fill="#939598"/><path d="m258.499,96.5324c0,2.524-1.3975,4.1061-3.7072,4.1061-2.2882,0-3.7062-1.5606-3.7062-4.1061v-7.1644h-2.0401v7.493c0,3.4782,2.2608,5.7522,5.7464,5.7522,3.508,0,5.7473-2.274,5.7473-5.7522v-7.493h-2.0401v7.1644Z" fill="#939598"/><path d="m266.2142,91.3413l-.332-1.9732h-1.4483v12.9615h2.0401v-7.0423c0-2.5182,1.335-4.0558,3.7072-4.0558h1.3233v-1.9308l-1.1475-.0005c-1.8663,0-3.2257.7154-4.1428,2.0411Z" fill="#939598"/><rect x="273.697" y="84.7419" width="2.0401" height="17.5877" fill="#939598"/><path d="m149.2918,66.0274c-2.7686,0-5.2599-.474-7.4778-1.422-2.218-.948-3.9717-2.3128-5.2599-4.0944-1.2895-1.7816-1.9531-3.8867-1.9907-6.3124h8.5304c.1129,1.6297.6915,2.9192,1.7342,3.8672s2.4731,1.422,4.2938,1.422c1.8583,0,3.3179-.4447,4.3788-1.3369,1.0623-.8908,1.592-2.0563,1.592-3.4977,0-1.1752-.3597-2.1413-1.0804-2.8997-.7193-.7584-1.6213-1.355-2.7017-1.7914s-2.5679-.9201-4.4638-1.4498c-2.5776-.7584-4.673-1.507-6.2845-2.2459-1.6116-.7389-2.9945-1.8583-4.1516-3.3555-1.1571-1.4972-1.7342-3.4977-1.7342-6.0001,0-2.3504.5883-4.3969,1.7635-6.1423,1.1752-1.744,2.8244-3.0809,4.9476-4.0094,2.1232-.9285,4.5489-1.3927,7.2785-1.3927,4.0944,0,7.4207.9954,9.9802,2.9861s3.9717,4.7677,4.2366,8.331h-8.7576c-.0753-1.3648-.6538-2.4926-1.7342-3.3834s-2.5107-1.3369-4.2938-1.3369c-1.5544,0-2.7965.3987-3.725,1.1947-.9285.796-1.3927,1.9531-1.3927,3.4699,0,1.0609.3513,1.9433,1.0525,2.6446s1.5739,1.27,2.6167,1.7064,2.5107.9382,4.4067,1.507c2.579.757,4.6827,1.5154,6.3124,2.2737,1.6311.7584,3.0335,1.8959,4.2087,3.4127,1.1752,1.5168,1.7635,3.5061,1.7635,5.9708,0,2.1232-.5507,4.0944-1.6492,5.9151-1.0999,1.8193-2.7115,3.2691-4.8347,4.3509-2.1232,1.0804-4.6437,1.6213-7.5629,1.6213l-.0014-.0028Zm18.88-16.2647c0-3.1841.6343-6.0099,1.9043-8.4732,1.27-2.4647,2.9945-4.3607,5.1748-5.6864,2.1803-1.3272,4.6158-1.9907,7.3078-1.9907,2.3504,0,4.4067.474,6.1702,1.422s3.1743,2.1413,4.2366,3.5828v-4.4931h8.0187v31.5048h-8.0187v-4.606c-1.0232,1.4777-2.4368,2.7017-4.2366,3.6678-1.8012.9661-3.8755,1.4498-6.2274,1.4498-2.6543,0-5.0703-.6831-7.2506-2.0479s-3.9048-3.2886-5.1748-5.7729c-1.27-2.4829-1.9043-5.3351-1.9043-8.5582v.0014Zm24.7951.1129c0-1.9336-.3792-3.5925-1.1376-4.9755-.757-1.3843-1.7816-2.4452-3.0712-3.1841-1.2895-.7389-2.6725-1.1083-4.1516-1.1083s-2.8439.3597-4.0944,1.0804c-1.2519.7207-2.2654,1.7719-3.0433,3.1562-.7765,1.3843-1.1654,3.0238-1.1654,4.9197s.389,3.5549,1.1654,4.9755c.7765,1.422,1.8012,2.5121,3.0712,3.2705s2.625,1.1376,4.0665,1.1376c1.4777,0,2.862-.3694,4.1516-1.1083,1.2895-.7389,2.3128-1.8012,3.0712-3.1841.7584-1.3843,1.1376-3.0433,1.1376-4.9769v-.0028Zm23.7704-11.2028c1.0232-1.4401,2.4368-2.6446,4.2366-3.6121,1.8012-.9661,3.8574-1.4498,6.1702-1.4498,2.692,0,5.1288.6636,7.3078,1.9907,2.1803,1.3272,3.9048,3.2134,5.1748,5.6586s1.9043,5.2794,1.9043,8.5025-.6343,6.0754-1.9043,8.5582-2.9945,4.4081-5.1748,5.7729c-2.1789,1.3648-4.6158,2.0479-7.3078,2.0479-2.3128,0-4.3509-.474-6.113-1.422-1.7635-.948-3.1938-2.1413-4.2938-3.5828v11.6155h-7.9616v-38.6285h7.9616v4.5503-.0014Zm16.6634,11.0899c0-1.8959-.389-3.5354-1.1654-4.9197-.7765-1.3843-1.8012-2.4355-3.0712-3.1562-1.27-.7193-2.6446-1.0804-4.1223-1.0804-1.4401,0-2.7965.3694-4.0665,1.1083s-2.2933,1.8095-3.0712,3.212c-.7765,1.4024-1.1654,3.0516-1.1654,4.9476s.389,3.5451,1.1654,4.9476,1.8012,2.4731,3.0712,3.2133c1.27.7389,2.625,1.1083,4.0665,1.1083,1.4777,0,2.8523-.3792,4.1223-1.1376s2.2933-1.8388,3.0712-3.2412c.7765-1.4024,1.1654-3.0712,1.1654-5.0047v.0028Zm17.9697-19.393c-1.4025,0-2.5679-.4447-3.4977-1.3355-.9285-.8908-1.3927-2.0005-1.3927-3.3263,0-1.3272.4642-2.4368,1.3927-3.3263.9285-.8908,2.0953-1.3369,3.4977-1.3369s2.5693.4447,3.4977,1.3369c.9285.8908,1.3941,1.9991,1.3941,3.3263s-.4642,2.4355-1.3941,3.3263c-.9285.8908-2.0939,1.3355-3.4977,1.3355Zm3.9243,3.7529v31.5048h-7.9616v-31.5048h7.9616Zm37.1355,15.07c0,1.1376-.0753,2.1608-.2272,3.0712h-23.0316c.1896,2.2751.9856,4.0568,2.388,5.3463,1.4025,1.2895,3.1269,1.9336,5.1748,1.9336,2.9568,0,5.0619-1.27,6.3124-3.81h8.5875c-.9089,3.0335-2.6543,5.5261-5.232,7.4778-2.5776,1.9531-5.7436,2.929-9.4978,2.929-3.0321,0-5.7534-.6733-8.1595-2.0186-2.4076-1.3453-4.284-3.251-5.6293-5.7157-1.3467-2.4647-2.0186-5.3073-2.0186-8.5304,0-3.2607.6636-6.1228,1.9907-8.5861,1.3272-2.4647,3.1855-4.3607,5.5735-5.6864,2.388-1.3272,5.1372-1.9907,8.246-1.9907,2.9959,0,5.6781.6455,8.0466,1.9336,2.3699,1.2895,4.2087,3.1186,5.5164,5.4885,1.3076,2.3685,1.9615,5.0898,1.9615,8.1595l-.0015-.0014Zm-8.246-2.2737c-.0376-2.0479-.7765-3.6873-2.218-4.9197-1.4401-1.2324-3.2036-1.8485-5.2891-1.8485-1.9712,0-3.6302.5967-4.9769,1.7914-1.3453,1.1947-2.1706,2.8537-2.4731,4.9769h14.9571,0Zm31.5048-13.2507c3.7528,0,6.7864,1.185,9.0992,3.5549,2.3128,2.3699,3.4685,5.6767,3.4685,9.9231v18.4827h-7.9616v-17.4023c0-2.5024-.6259-4.4262-1.8764-5.7729-1.2519-1.3467-2.9568-2.0186-5.1177-2.0186-2.1985,0-3.9327.6719-5.2041,2.0186-1.27,1.3467-1.9057,3.2705-1.9057,5.7729v17.4023h-7.9616v-31.5048h7.9616v3.9243c1.0623-1.3662,2.4173-2.4368,4.0665-3.2134,1.6492-.7765,3.4601-1.1654,5.4313-1.1654v-.0014Zm32.4723-.0572c2.3504,0,4.4164.4642,6.1981,1.3941,1.7816.9285,3.1855,2.1329,4.2087,3.6107v-4.4931h8.0187v31.7334c0,2.9192-.5883,5.5247-1.7635,7.8194-1.1752,2.2933-2.9373,4.1139-5.2891,5.4592-2.3504,1.3467-5.1943,2.0186-8.5304,2.0186-4.4736,0-8.1414-1.0428-11.0035-3.1283-2.862-2.0855-4.4833-4.9281-4.8625-8.5304h7.9044c.4168,1.4401,1.3174,2.5874,2.7003,3.4406,1.3843.8532,3.0614,1.2798,5.0326,1.2798,2.3128,0,4.1892-.6915,5.6293-2.0758,1.4401-1.3843,2.1608-3.4782,2.1608-6.2831v-4.8904c-1.0233,1.4791-2.4368,2.7115-4.2366,3.6971-1.8011.9856-3.8574,1.4777-6.1702,1.4777-2.6543,0-5.08-.6831-7.2799-2.0479-2.1985-1.3648-3.9327-3.2886-5.2041-5.7729-1.27-2.4829-1.9043-5.3351-1.9043-8.5582,0-3.1841.6343-6.0099,1.9043-8.4732,1.27-2.4647,2.9945-4.3607,5.1748-5.6864,2.1803-1.3272,4.6158-1.9907,7.3077-1.9907h.0041Zm10.4068,16.2647c0-1.9336-.3792-3.5925-1.1376-4.9755-.757-1.3843-1.7816-2.4452-3.0712-3.1841-1.2895-.7389-2.6724-1.1083-4.1516-1.1083s-2.8439.3597-4.0944,1.0804c-1.2519.7207-2.2654,1.7719-3.0433,3.1562-.7765,1.3843-1.1655,3.0238-1.1655,4.9197s.389,3.5549,1.1655,4.9755c.7765,1.422,1.8011,2.5121,3.0712,3.2705s2.6251,1.1376,4.0665,1.1376c1.4777,0,2.862-.3694,4.1516-1.1083,1.2895-.7389,2.3128-1.8012,3.0712-3.1841.7584-1.3843,1.1376-3.0433,1.1376-4.9769v-.0028Zm23.7704-10.8613c1.0233-1.6687,2.3602-2.9764,4.0094-3.9243,1.6492-.948,3.5354-1.422,5.6586-1.422v8.3603h-2.1037c-2.5024,0-4.3886.5883-5.6586,1.7635-1.27,1.1752-1.9057,3.2231-1.9057,6.1423v15.6959h-7.9616v-31.5048h7.9616v4.8904-.0014Zm12.9663,10.7483c0-3.1841.6343-6.0099,1.9043-8.4732,1.27-2.4647,2.9945-4.3607,5.1748-5.6864,2.1803-1.3272,4.6158-1.9907,7.3077-1.9907,2.3504,0,4.4067.474,6.1702,1.422,1.7635.948,3.1743,2.1413,4.2366,3.5828v-4.4931h8.0187v31.5048h-8.0187v-4.606c-1.0233,1.4777-2.4368,2.7017-4.2366,3.6678-1.8011.9661-3.8755,1.4498-6.2273,1.4498-2.6543,0-5.0703-.6831-7.2506-2.0479s-3.9048-3.2886-5.1748-5.7729c-1.27-2.4829-1.9043-5.3351-1.9043-8.5582v.0014Zm24.7951.1129c0-1.9336-.3792-3.5925-1.1376-4.9755-.757-1.3843-1.7816-2.4452-3.0712-3.1841-1.2895-.7389-2.6724-1.1083-4.1516-1.1083s-2.8439.3597-4.0944,1.0804c-1.2519.7207-2.2654,1.7719-3.0433,3.1562-.7765,1.3843-1.1655,3.0238-1.1655,4.9197s.389,3.5549,1.1655,4.9755c.7765,1.422,1.8011,2.5121,3.0712,3.2705s2.6251,1.1376,4.0665,1.1376c1.4777,0,2.862-.3694,4.1516-1.1083,1.2895-.7389,2.3128-1.8012,3.0712-3.1841.7584-1.3843,1.1376-3.0433,1.1376-4.9769v-.0028Zm23.7704-11.2028c1.0233-1.4401,2.4368-2.6446,4.2366-3.6121,1.8011-.9661,3.8574-1.4498,6.1702-1.4498,2.692,0,5.1288.6636,7.3077,1.9907,2.1803,1.3272,3.9048,3.2134,5.1748,5.6586,1.27,2.4452,1.9043,5.2794,1.9043,8.5025s-.6343,6.0754-1.9043,8.5582c-1.27,2.4829-2.9945,4.4081-5.1748,5.7729-2.1789,1.3648-4.6158,2.0479-7.3077,2.0479-2.3128,0-4.3509-.474-6.113-1.422-1.7635-.948-3.1938-2.1413-4.2938-3.5828v11.6155h-7.9616v-38.6285h7.9616v4.5503-.0014Zm16.6634,11.0899c0-1.8959-.389-3.5354-1.1655-4.9197-.7765-1.3843-1.8011-2.4355-3.0712-3.1562-1.27-.7193-2.6446-1.0804-4.1223-1.0804-1.4401,0-2.7965.3694-4.0665,1.1083-1.27.7389-2.2933,1.8095-3.0712,3.212-.7765,1.4024-1.1655,3.0516-1.1655,4.9476s.389,3.5451,1.1655,4.9476,1.8011,2.4731,3.0712,3.2133c1.27.7389,2.6251,1.1083,4.0665,1.1083,1.4777,0,2.8523-.3792,4.1223-1.1376s2.2933-1.8388,3.0712-3.2412c.7765-1.4024,1.1655-3.0712,1.1655-5.0047v.0028Zm31.6748-16.0946c2.388,0,4.5113.5214,6.3695,1.5642,1.8583,1.0428,3.3081,2.579,4.3509,4.6074,1.0428,2.0284,1.5642,4.4638,1.5642,7.3078v18.4827h-7.9616v-17.4023c0-2.5024-.6259-4.4262-1.8764-5.7729-1.2519-1.3467-2.9568-2.0186-5.1177-2.0186-2.1985,0-3.9327.6719-5.2041,2.0186-1.27,1.3467-1.9057,3.2705-1.9057,5.7729v17.4023h-7.9616V23.5471h7.9616v14.5026c1.0233-1.3662,2.388-2.4368,4.0944-3.2134,1.7064-.7765,3.6023-1.1654,5.6865-1.1654v-.0028Z" fill-rule="evenodd"/><path d="m87.46,14.4636H23.613c-9.7274,0-17.613,7.8856-17.613,17.613v63.8469c0,9.7274,7.8856,17.6129,17.613,17.6129h63.8469c9.7273,0,17.6129-7.8856,17.6129-17.6129v-63.8469c0-9.7274-7.8856-17.613-17.6129-17.613Zm-.9996,40.8105l-.0473-.0389c-1.8505-1.5497-3.7623-2.6539-5.8063-3.371-2.044-.7157-4.2231-1.0443-6.6139-1.0443h-.0292v-5.1978c-5.4081,0-31.4641.0139-31.4863-.007-.7115-.6113-1.533-1.1-2.4312-1.4314-.8633-.3188-1.799-.4943-2.775-.4943-2.2084,0-4.2092.8953-5.6559,2.342s-2.342,3.4476-2.342,5.6559.8953,4.2092,2.342,5.6559c1.4467,1.4467,3.4476,2.342,5.6559,2.342.9538,0,1.8686-.1671,2.7151-.472.8773-.316,1.6876-.7853,2.3922-1.3715.0223-.0181,29.0524-.007,31.7829-.007,3.3014,0,6.1767,1.196,8.6259,3.5868,1.2225,1.1947,2.1429,2.5119,2.7542,3.9489s.9189,2.9965.9189,4.6757v12.3534c0,1.7071-.3063,3.2874-.9189,4.7383-.6113,1.4523-1.5303,2.7778-2.7542,3.9711-1.2225,1.1946-2.5536,2.0914-3.992,2.6901-1.4384.5974-2.9825.8981-4.6325.8981h-36.8916l-.0027.0042c-3.3585,0-6.2338-1.196-8.6259-3.5868-2.3907-2.3907-3.5869-5.2953-3.5869-8.7109v-9.5685l.0474.039c1.7906,1.4926,3.6773,2.569,5.6921,3.2721,2.0134.7018,4.1619,1.0318,6.4733,1.0318h.0292v5.1978c5.454,0,31.503-.0181,31.535.007.7073.5974,1.5247,1.0764,2.413,1.4008.8549.3133,1.7809.4832,2.7458.4832,2.2084,0,4.2092-.8953,5.6559-2.342,1.4467-1.4467,2.342-3.4476,2.342-5.6559s-.8953-4.2092-2.342-5.6559-3.4476-2.342-5.6559-2.342c-.9649,0-1.8895.1713-2.7444.4832-.8884.3244-1.7057.8034-2.413,1.4008-.0306.0236-28.8408.007-31.5629.007-3.3585,0-6.2338-1.1961-8.6259-3.5869-1.1947-1.1946-2.0914-2.5119-2.6901-3.9503-.5974-1.4383-.8981-2.9964-.8981-4.6757v-12.3533c0-3.4156,1.196-6.3201,3.5868-8.7109,1.1947-1.1946,2.5119-2.0914,3.9503-2.6901,1.4384-.5974,2.9965-.8981,4.6757-.8981h36.8916c3.3014,0,6.1767,1.196,8.6259,3.5868,1.2225,1.1947,2.1415,2.5189,2.7542,3.9711.6113,1.4523.9189,3.0327.9189,4.7397v9.6799Zm-45.5621-3.5826c0,1.0012-.4066,1.9104-1.0638,2.5662-.6558.6558-1.5651,1.0638-2.5662,1.0638s-1.9104-.4066-2.5662-1.0638c-.6558-.6558-1.0638-1.5651-1.0638-2.5662s.4066-1.9103,1.0638-2.5662c.6558-.6572,1.5651-1.0638,2.5662-1.0638s1.9103.4066,2.5662,1.0638c.6572.6558,1.0638,1.5651,1.0638,2.5662Zm29.4618,24.5787c0-1.0012.4066-1.9104,1.0638-2.5662.6558-.6558,1.5651-1.0638,2.5662-1.0638s1.9103.4066,2.5662,1.0638c.6558.6558,1.0638,1.5651,1.0638,2.5662s-.4066,1.9103-1.0638,2.5662c-.6558.6558-1.5651,1.0638-2.5662,1.0638s-1.9104-.4066-2.5662-1.0638c-.6558-.6558-1.0638-1.5651-1.0638-2.5662Z" fill="#00bd94"/></svg>