<?xml version="1.0" encoding="UTF-8"?><svg id="a" xmlns="http://www.w3.org/2000/svg" width="2000" height="2000" xmlns:xlink="http://www.w3.org/1999/xlink" viewBox="0 0 2000 2000"><defs><linearGradient id="b" x1="1481.46" y1="305.6" x2="1481.46" y2="3199.9" gradientTransform="translate(2907.23 2982.15) rotate(-180)" gradientUnits="userSpaceOnUse"><stop offset=".4" stop-color="#000" stop-opacity=".4"/><stop offset=".88" stop-color="#000" stop-opacity="0"/></linearGradient></defs><path d="m-32.59,1948.16v1.4h120.48v113.59h1.4v-113.59h116.62v113.59h1.4v-113.59h116.62v113.59h1.4v-113.59h116.62v113.59h1.4v-113.59h116.62v113.59h1.4v-113.59h116.62v113.59h1.4v-113.59h116.62v113.59h1.4v-113.59h116.62v113.59h1.4v-113.59h116.62v113.59h1.4v-113.59h116.62v113.59h1.4v-113.59h116.62v113.59h1.4v-113.59h116.62v113.59h1.4v-113.59h112.54v113.59h1.4v-113.59h116.62v113.59h1.4v-113.59h116.62v113.59h1.4v-113.59h116.62v113.59h1.4v-113.59h116.62v113.59h1.4v-113.59h116.62v113.59h1.4v-113.59h116.62v113.59h1.4v-113.59h116.62v113.59h1.4v-113.59h116.62v113.59h1.4v-113.59h116.62v113.59h1.4v-113.59h116.62v113.59h1.4v-113.59h116.62v113.59h1.4v-113.59h84.53v-1.4h-84.53v-67.78h84.53v-1.4h-84.53v-67.78h84.53v-1.4h-84.53v-67.78h84.53v-1.4h-84.53v-67.78h84.53v-1.4h-84.53v-67.78h84.53v-1.4h-84.53v-67.78h84.53v-1.4h-84.53v-67.78h84.53v-1.4h-84.53v-67.78h84.53v-1.4h-84.53v-67.78h84.53v-1.4h-84.53v-67.78h84.53v-1.4h-84.53v-67.78h84.53v-1.4h-84.53v-67.78h84.53v-1.4h-84.53v-67.78h84.53v-1.4h-84.53v-67.78h84.53v-1.4h-84.53v-67.78h84.53v-1.4h-84.53v-67.78h84.53v-1.4h-84.53v-67.78h84.53v-1.4h-84.53v-67.78h84.53v-1.4h-84.53v-67.78h84.53v-1.4h-84.53v-73.89h84.53v-1.4h-84.53v-67.78h84.53v-1.4h-84.53v-67.78h84.53v-1.4h-84.53v-67.78h84.53v-1.4h-84.53v-67.78h84.53v-1.4h-84.53v-67.78h84.53v-1.4h-84.53v-67.78h84.53v-1.4h-84.53v-67.78h84.53v-1.4h-84.53V6.49h84.53v-1.4h-84.53V-62.69h84.53v-1.4h-84.53v-67.78h84.53v-1.4h-84.53v-67.78h84.53v-1.4h-84.53v-67.78h84.53v-1.4h-84.53v-67.78h84.53v-1.4h-84.53v-67.78h84.53v-1.4h-84.53v-67.78h84.53v-1.4h-84.53v-67.78h84.53v-1.4h-84.53v-67.78h84.53v-1.4h-84.53v-67.78h84.53v-1.4h-84.53v-67.78h84.53v-1.4h-84.53v-75.29h-1.4v75.29h-116.62v-75.29h-1.4v75.29h-116.62v-75.29h-1.4v75.29h-116.62v-75.29h-1.4v75.29h-116.62v-75.29h-1.4v75.29h-116.62v-75.29h-1.4v75.29h-116.62v-75.29h-1.4v75.29h-116.62v-75.29h-1.4v75.29h-116.62v-75.29h-1.4v75.29h-116.62v-75.29h-1.4v75.29h-116.62v-75.29h-1.4v75.29h-116.62v-75.29h-1.4v75.29h-112.54v-75.29h-1.4v75.29h-116.62v-75.29h-1.4v75.29h-116.62v-75.29h-1.4v75.29h-116.62v-75.29h-1.4v75.29h-116.62v-75.29h-1.4v75.29h-116.62v-75.29h-1.4v75.29h-116.62v-75.29h-1.4v75.29h-116.62v-75.29h-1.4v75.29h-116.62v-75.29h-1.4v75.29h-116.62v-75.29h-1.4v75.29h-116.62v-75.29h-1.4v75.29h-116.62v-75.29h-1.4v75.29H-32.59v1.4h120.48v67.78H-32.59v1.4h120.48v67.78H-32.59v1.4h120.48v67.78H-32.59v1.4h120.48v67.78H-32.59v1.4h120.48v67.78H-32.59v1.4h120.48v67.78H-32.59v1.4h120.48v67.78H-32.59v1.4h120.48v67.78H-32.59v1.4h120.48v67.78H-32.59v1.4h120.48v67.78H-32.59v1.4h120.48V5.09H-32.59v1.4h120.48v67.78H-32.59v1.4h120.48v67.78H-32.59v1.4h120.48v67.78H-32.59v1.4h120.48v67.78H-32.59v1.4h120.48v67.78H-32.59v1.4h120.48v67.78H-32.59v1.4h120.48v67.78H-32.59v1.4h120.48v67.78H-32.59v1.4h120.48v73.89H-32.59v1.4h120.48v67.78H-32.59v1.4h120.48v67.78H-32.59v1.4h120.48v67.78H-32.59v1.4h120.48v67.78H-32.59v1.4h120.48v67.78H-32.59v1.4h120.48v67.78H-32.59v1.4h120.48v67.78H-32.59v1.4h120.48v67.78H-32.59v1.4h120.48v67.78H-32.59v1.4h120.48v67.78H-32.59v1.4h120.48v67.78H-32.59v1.4h120.48v67.78H-32.59v1.4h120.48v67.78H-32.59v1.4h120.48v67.78H-32.59v1.4h120.48v67.78H-32.59v1.4h120.48v67.78H-32.59v1.4h120.48v67.78H-32.59v1.4h120.48v67.78H-32.59v1.4h120.48v67.78H-32.59Zm238.5,0h-116.62v-67.78h116.62v67.78Zm0-69.18h-116.62v-67.78h116.62v67.78Zm0-69.18h-116.62v-67.78h116.62v67.78Zm0-69.18h-116.62v-67.78h116.62v67.78Zm0-69.18h-116.62v-67.78h116.62v67.78Zm0-69.18h-116.62v-67.78h116.62v67.78Zm0-69.18h-116.62v-67.78h116.62v67.78Zm0-69.18h-116.62v-67.78h116.62v67.78Zm0-69.18h-116.62v-67.78h116.62v67.78Zm0-69.18h-116.62v-67.78h116.62v67.78Zm0-69.18h-116.62v-67.78h116.62v67.78Zm0-69.18h-116.62v-67.78h116.62v67.78Zm0-69.18h-116.62v-67.78h116.62v67.78Zm0-69.18h-116.62v-67.78h116.62v67.78Zm0-69.18h-116.62v-67.78h116.62v67.78Zm0-69.18h-116.62v-67.78h116.62v67.78Zm0-69.18h-116.62v-67.78h116.62v67.78Zm0-69.18h-116.62v-67.78h116.62v67.78Zm0-138.35h-116.62v-73.89h116.62v73.89Zm118.02,1314.37h-116.62v-67.78h116.62v67.78Zm0-69.18h-116.62v-67.78h116.62v67.78Zm0-69.18h-116.62v-67.78h116.62v67.78Zm0-69.18h-116.62v-67.78h116.62v67.78Zm0-69.18h-116.62v-67.78h116.62v67.78Zm0-69.18h-116.62v-67.78h116.62v67.78Zm0-69.18h-116.62v-67.78h116.62v67.78Zm0-69.18h-116.62v-67.78h116.62v67.78Zm0-69.18h-116.62v-67.78h116.62v67.78Zm0-69.18h-116.62v-67.78h116.62v67.78Zm0-69.18h-116.62v-67.78h116.62v67.78Zm0-69.18h-116.62v-67.78h116.62v67.78Zm0-69.18h-116.62v-67.78h116.62v67.78Zm0-69.18h-116.62v-67.78h116.62v67.78Zm0-69.18h-116.62v-67.78h116.62v67.78Zm0-69.18h-116.62v-67.78h116.62v67.78Zm0-69.18h-116.62v-67.78h116.62v67.78Zm0-69.18h-116.62v-67.78h116.62v67.78Zm0-69.18h-116.62v-67.78h116.62v67.78Zm0-69.18h-116.62v-73.89h116.62v73.89Zm118.02,1314.37h-116.62v-67.78h116.62v67.78Zm0-69.18h-116.62v-67.78h116.62v67.78Zm0-69.18h-116.62v-67.78h116.62v67.78Zm0-69.18h-116.62v-67.78h116.62v67.78Zm0-69.18h-116.62v-67.78h116.62v67.78Zm0-69.18h-116.62v-67.78h116.62v67.78Zm0-69.18h-116.62v-67.78h116.62v67.78Zm0-69.18h-116.62v-67.78h116.62v67.78Zm0-69.18h-116.62v-67.78h116.62v67.78Zm0-69.18h-116.62v-67.78h116.62v67.78Zm0-69.18h-116.62v-67.78h116.62v67.78Zm0-69.18h-116.62v-67.78h116.62v67.78Zm0-69.18h-116.62v-67.78h116.62v67.78Zm0-69.18h-116.62v-67.78h116.62v67.78Zm0-69.18h-116.62v-67.78h116.62v67.78Zm0-69.18h-116.62v-67.78h116.62v67.78Zm0-69.18h-116.62v-67.78h116.62v67.78Zm0-69.18h-116.62v-67.78h116.62v67.78Zm0-69.18h-116.62v-67.78h116.62v67.78Zm0-69.18h-116.62v-73.89h116.62v73.89Zm118.02,1314.37h-116.62v-67.78h116.62v67.78Zm0-69.18h-116.62v-67.78h116.62v67.78Zm0-69.18h-116.62v-67.78h116.62v67.78Zm0-69.18h-116.62v-67.78h116.62v67.78Zm0-69.18h-116.62v-67.78h116.62v67.78Zm0-69.18h-116.62v-67.78h116.62v67.78Zm0-69.18h-116.62v-67.78h116.62v67.78Zm0-69.18h-116.62v-67.78h116.62v67.78Zm0-69.18h-116.62v-67.78h116.62v67.78Zm0-69.18h-116.62v-67.78h116.62v67.78Zm0-69.18h-116.62v-67.78h116.62v67.78Zm0-69.18h-116.62v-67.78h116.62v67.78Zm0-69.18h-116.62v-67.78h116.62v67.78Zm0-69.18h-116.62v-67.78h116.62v67.78Zm0-69.18h-116.62v-67.78h116.62v67.78Zm0-69.18h-116.62v-67.78h116.62v67.78Zm0-69.18h-116.62v-67.78h116.62v67.78Zm0-69.18h-116.62v-67.78h116.62v67.78Zm0-69.18h-116.62v-67.78h116.62v67.78Zm0-69.18h-116.62v-73.89h116.62v73.89Zm118.02,1314.37h-116.62v-67.78h116.62v67.78Zm0-69.18h-116.62v-67.78h116.62v67.78Zm0-69.18h-116.62v-67.78h116.62v67.78Zm0-69.18h-116.62v-67.78h116.62v67.78Zm0-69.18h-116.62v-67.78h116.62v67.78Zm0-69.18h-116.62v-67.78h116.62v67.78Zm0-69.18h-116.62s0-67.78,0-67.78h116.62v67.78Zm0-69.18h-116.62v-67.78h116.62v67.78Zm0-69.18h-116.62v-67.78h116.62s0,67.78,0,67.78Zm0-69.18h-116.62v-67.78h116.62s0,67.78,0,67.78Zm0-69.18h-116.62v-67.78h116.62s0,67.78,0,67.78Zm0-69.18h-116.62v-67.78h116.62v67.78Zm0-69.18h-116.62v-67.78h116.62v67.78Zm0-69.18h-116.62v-67.78h116.62v67.78Zm0-69.18h-116.62v-67.78h116.62v67.78Zm0-69.18h-116.62v-67.78h116.62v67.78Zm0-69.18h-116.62v-67.78h116.62v67.78Zm0-69.18h-116.62v-67.78h116.62v67.78Zm0-69.18h-116.62v-67.78h116.62v67.78Zm0-69.18h-116.62v-73.89h116.62v73.89Zm118.02,1314.37h-116.62v-67.78h116.62v67.78Zm0-69.18h-116.62v-67.78h116.62v67.78Zm0-69.18h-116.62v-67.78h116.62v67.78Zm0-69.18h-116.62v-67.78h116.62v67.78Zm0-69.18h-116.62v-67.78h116.62v67.78Zm0-69.18h-116.62v-67.78h116.62v67.78Zm0-69.18h-116.62v-67.78h116.62v67.78Zm0-69.18h-116.62v-67.78h116.62v67.78Zm0-69.18h-116.62v-67.78h116.62v67.78Zm0-69.18h-116.62v-67.78h116.62v67.78Zm0-69.18h-116.62v-67.78h116.62v67.78Zm0-69.18h-116.62v-67.78h116.62v67.78Zm0-69.18h-116.62v-67.78h116.62v67.78Zm0-69.18h-116.62v-67.78h116.62v67.78Zm0-69.18h-116.62v-67.78h116.62v67.78Zm0-69.18h-116.62v-67.78h116.62v67.78Zm0-69.18h-116.62v-67.78h116.62v67.78Zm0-69.18h-116.62v-67.78h116.62v67.78Zm0-69.18h-116.62v-67.78h116.62v67.78Zm0-69.18h-116.62v-73.89h116.62v73.89Zm118.02,1314.37h-116.62v-67.78h116.62v67.78Zm0-69.18h-116.62v-67.78h116.62v67.78Zm0-69.18h-116.62v-67.78h116.62v67.78Zm0-69.18h-116.62s0-67.78,0-67.78h116.62v67.78Zm0-69.18h-116.62s0-67.78,0-67.78h116.62v67.78Zm0-69.18h-116.62v-67.78h116.62v67.78Zm0-69.18h-116.62v-67.78h116.62v67.78Zm0-69.18h-116.62v-67.78h116.62v67.78Zm0-69.18h-116.62v-67.78h116.62v67.78Zm0-69.18h-116.62v-67.78h116.62v67.78Zm0-69.18h-116.62v-67.78h116.62v67.78Zm0-69.18h-116.62v-67.78h116.62v67.78Zm0-69.18h-116.62v-67.78h116.62v67.78Zm0-69.18h-116.62v-67.78h116.62v67.78Zm0-69.18h-116.62v-67.78h116.62v67.78Zm0-69.18h-116.62v-67.78h116.62v67.78Zm0-69.18h-116.62v-67.78h116.62v67.78Zm0-69.18h-116.62v-67.78h116.62v67.78Zm0-69.18h-116.62v-67.78h116.62v67.78Zm0-69.18h-116.62v-73.89h116.62v73.89Zm118.02,1314.37h-116.62v-67.78h116.62v67.78Zm0-69.18h-116.62v-67.78h116.62v67.78Zm0-69.18h-116.62v-67.78h116.62v67.78Zm0-69.18h-116.62v-67.78h116.62v67.78Zm0-69.18h-116.62v-67.78h116.62v67.78Zm0-69.18h-116.62v-67.78h116.62v67.78Zm0-69.18h-116.62v-67.78h116.62v67.78Zm0-69.18h-116.62v-67.78h116.62v67.78Zm0-69.18h-116.62v-67.78h116.62v67.78Zm0-69.18h-116.62v-67.78h116.62v67.78Zm0-69.18h-116.62v-67.78h116.62v67.78Zm0-69.18h-116.62v-67.78h116.62v67.78Zm0-69.18h-116.62v-67.78h116.62v67.78Zm0-69.18h-116.62v-67.78h116.62v67.78Zm0-69.18h-116.62v-67.78h116.62v67.78Zm0-69.18h-116.62v-67.78h116.62v67.78Zm0-69.18h-116.62v-67.78h116.62v67.78Zm0-69.18h-116.62v-67.78h116.62v67.78Zm0-69.18h-116.62v-67.78h116.62v67.78Zm0-69.18h-116.62v-73.89h116.62v73.89Zm118.02,1314.37h-116.62v-67.78h116.62v67.78Zm0-69.18h-116.62v-67.78h116.62v67.78Zm0-69.18h-116.62v-67.78h116.62v67.78Zm0-69.18h-116.62v-67.78h116.62v67.78Zm0-69.18h-116.62v-67.78h116.62v67.78Zm0-69.18h-116.62v-67.78h116.62v67.78Zm0-69.18h-116.62v-67.78h116.62v67.78Zm0-69.18h-116.62v-67.78h116.62v67.78Zm0-69.18h-116.62v-67.78h116.62v67.78Zm0-69.18h-116.62v-67.78h116.62v67.78Zm0-69.18h-116.62v-67.78h116.62v67.78Zm0-69.18h-116.62v-67.78h116.62v67.78Zm0-69.18h-116.62v-67.78h116.62v67.78Zm0-69.18h-116.62v-67.78h116.62v67.78Zm0-69.18h-116.62v-67.78h116.62v67.78Zm0-69.18h-116.62v-67.78h116.62v67.78Zm0-69.18h-116.62v-67.78h116.62v67.78Zm0-69.18h-116.62v-67.78h116.62v67.78Zm0-69.18h-116.62v-67.78h116.62v67.78Zm0-69.18h-116.62v-73.89h116.62v73.89Zm118.02,1314.37h-116.62v-67.78h116.62v67.78Zm0-69.18h-116.62v-67.78h116.62v67.78Zm0-69.18h-116.62v-67.78h116.62v67.78Zm0-69.18h-116.62v-67.78h116.62v67.78Zm0-69.18h-116.62v-67.78h116.62v67.78Zm0-69.18h-116.62v-67.78h116.62v67.78Zm0-69.18h-116.62v-67.78h116.62v67.78Zm0-69.18h-116.62v-67.78h116.62v67.78Zm0-69.18h-116.62v-67.78h116.62v67.78Zm0-69.18h-116.62v-67.78h116.62v67.78Zm0-69.18h-116.62v-67.78h116.62v67.78Zm0-69.18h-116.62v-67.78h116.62v67.78Zm0-69.18h-116.62v-67.78h116.62v67.78Zm0-69.18h-116.62v-67.78h116.62v67.78Zm0-69.18h-116.62v-67.78h116.62v67.78Zm0-69.18h-116.62v-67.78h116.62v67.78Zm0-69.18h-116.62v-67.78h116.62v67.78Zm0-69.18h-116.62v-67.78h116.62v67.78Zm0-69.18h-116.62v-67.78h116.62v67.78Zm0-69.18h-116.62v-73.89h116.62v73.89Zm118.02,1314.37h-116.62v-67.78h116.62v67.78Zm0-69.18h-116.62v-67.78h116.62v67.78Zm0-69.18h-116.62v-67.78h116.62v67.78Zm0-69.18h-116.62v-67.78h116.62v67.78Zm0-69.18h-116.62v-67.78h116.62v67.78Zm0-69.18h-116.62v-67.78h116.62v67.78Zm0-69.18h-116.62v-67.78h116.62v67.78Zm0-69.18h-116.62v-67.78h116.62v67.78Zm0-69.18h-116.62v-67.78h116.62v67.78Zm0-69.18h-116.62v-67.78h116.62v67.78Zm0-69.18h-116.62v-67.78h116.62v67.78Zm0-69.18h-116.62v-67.78h116.62v67.78Zm0-69.18h-116.62v-67.78h116.62v67.78Zm0-69.18h-116.62v-67.78h116.62v67.78Zm0-69.18h-116.62v-67.78h116.62v67.78Zm0-69.18h-116.62v-67.78h116.62v67.78Zm0-69.18h-116.62v-67.78h116.62v67.78Zm0-69.18h-116.62v-67.78h116.62v67.78Zm0-69.18h-116.62v-67.78h116.62v67.78Zm0-69.18h-116.62v-73.89h116.62v73.89Zm113.94,1314.37h-112.54v-67.78h112.54v67.78Zm0-69.18h-112.54v-67.78h112.54v67.78Zm0-69.18h-112.54v-67.78h112.54v67.78Zm0-69.18h-112.54v-67.78h112.54v67.78Zm0-69.18h-112.54v-67.78h112.54v67.78Zm0-69.18h-112.54v-67.78h112.54v67.78Zm0-69.18h-112.54v-67.78h112.54v67.78Zm0-69.18h-112.54v-67.78h112.54v67.78Zm0-69.18h-112.54v-67.78h112.54v67.78Zm0-69.18h-112.54v-67.78h112.54v67.78Zm0-69.18h-112.54v-67.78h112.54v67.78Zm0-69.18h-112.54v-67.78h112.54s0,67.78,0,67.78Zm0-69.18h-112.54v-67.78h112.54v67.78Zm0-69.18h-112.54v-67.78h112.54v67.78Zm0-69.18h-112.54v-67.78h112.54v67.78Zm0-69.18h-112.54v-67.78h112.54v67.78Zm0-69.18h-112.54v-67.78h112.54v67.78Zm0-69.18h-112.54v-67.78h112.54v67.78Zm0-69.18h-112.54v-67.78h112.54v67.78Zm0-69.18h-112.54v-73.89h112.54v73.89Zm118.02,1314.37h-116.62v-67.78h116.62v67.78Zm0-69.18h-116.62v-67.78h116.62v67.78Zm0-69.18h-116.62v-67.78h116.62v67.78Zm0-69.18h-116.62v-67.78h116.62v67.78Zm0-69.18h-116.62v-67.78h116.62v67.78Zm0-69.18h-116.62v-67.78h116.62v67.78Zm0-69.18h-116.62v-67.78h116.62v67.78Zm0-69.18h-116.62v-67.78h116.62v67.78Zm0-69.18h-116.62v-67.78h116.62v67.78Zm0-69.18h-116.62v-67.78h116.62v67.78Zm0-69.18h-116.62v-67.78h116.62v67.78Zm0-69.18h-116.62v-67.78h116.62v67.78Zm0-69.18h-116.62v-67.78h116.62v67.78Zm0-69.18h-116.62v-67.78h116.62v67.78Zm0-69.18h-116.62v-67.78h116.62v67.78Zm0-69.18h-116.62v-67.78h116.62v67.78Zm0-69.18h-116.62v-67.78h116.62v67.78Zm0-69.18h-116.62v-67.78h116.62v67.78Zm0-69.18h-116.62v-67.78h116.62v67.78Zm0-69.18h-116.62v-73.89h116.62v73.89Zm118.02,1314.37h-116.62v-67.78h116.62v67.78Zm0-69.18h-116.62v-67.78h116.62v67.78Zm0-69.18h-116.62v-67.78h116.62v67.78Zm0-69.18h-116.62v-67.78h116.62v67.78Zm0-69.18h-116.62v-67.78h116.62v67.78Zm0-69.18h-116.62v-67.78h116.62v67.78Zm0-69.18h-116.62v-67.78h116.62v67.78Zm0-69.18h-116.62v-67.78h116.62v67.78Zm0-69.18h-116.62v-67.78h116.62v67.78Zm0-69.18h-116.62v-67.78h116.62v67.78Zm0-69.18h-116.62v-67.78h116.62v67.78Zm0-69.18h-116.62v-67.78h116.62v67.78Zm0-69.18h-116.62v-67.78h116.62v67.78Zm0-69.18h-116.62v-67.78h116.62v67.78Zm0-69.18h-116.62v-67.78h116.62v67.78Zm0-69.18h-116.62v-67.78h116.62v67.78Zm0-69.18h-116.62v-67.78h116.62v67.78Zm0-69.18h-116.62v-67.78h116.62v67.78Zm0-69.18h-116.62v-67.78h116.62v67.78Zm0-69.18h-116.62v-73.89h116.62v73.89Zm118.02,1314.37h-116.62v-67.78h116.62v67.78Zm0-69.18h-116.62v-67.78h116.62v67.78Zm0-69.18h-116.62v-67.78h116.62v67.78Zm0-69.18h-116.62v-67.78h116.62v67.78Zm0-69.18h-116.62v-67.78h116.62v67.78Zm0-69.18h-116.62v-67.78h116.62v67.78Zm0-69.18h-116.62v-67.78h116.62v67.78Zm0-69.18h-116.62v-67.78h116.62v67.78Zm0-69.18h-116.62v-67.78h116.62v67.78Zm0-69.18h-116.62v-67.78h116.62v67.78Zm0-69.18h-116.62v-67.78h116.62v67.78Zm0-69.18h-116.62v-67.78h116.62v67.78Zm0-69.18h-116.62v-67.78h116.62v67.78Zm0-69.18h-116.62v-67.78h116.62v67.78Zm0-69.18h-116.62v-67.78h116.62v67.78Zm0-69.18h-116.62v-67.78h116.62v67.78Zm0-69.18h-116.62v-67.78h116.62v67.78Zm0-69.18h-116.62v-67.78h116.62v67.78Zm0-69.18h-116.62v-67.78h116.62v67.78Zm0-69.18h-116.62v-73.89h116.62v73.89Zm118.02,1314.37h-116.62v-67.78h116.62v67.78Zm0-69.18h-116.62v-67.78h116.62v67.78Zm0-69.18h-116.62v-67.78h116.62v67.78Zm0-69.18h-116.62v-67.78h116.62v67.78Zm0-69.18h-116.62v-67.78h116.62v67.78Zm0-69.18h-116.62v-67.78h116.62v67.78Zm0-69.18h-116.62v-67.78h116.62v67.78Zm0-69.18h-116.62v-67.78h116.62v67.78Zm0-69.18h-116.62v-67.78h116.62v67.78Zm0-69.18h-116.62v-67.78h116.62v67.78Zm0-69.18h-116.62v-67.78h116.62v67.78Zm0-69.18h-116.62v-67.78h116.62v67.78Zm0-69.18h-116.62v-67.78h116.62v67.78Zm0-69.18h-116.62v-67.78h116.62v67.78Zm0-69.18h-116.62v-67.78h116.62v67.78Zm0-69.18h-116.62v-67.78h116.62v67.78Zm0-69.18h-116.62v-67.78h116.62v67.78Zm0-69.18h-116.62v-67.78h116.62v67.78Zm0-69.18h-116.62v-67.78h116.62v67.78Zm0-69.18h-116.62v-73.89h116.62v73.89Zm118.02,1314.37h-116.62v-67.78h116.62v67.78Zm0-69.18h-116.62v-67.78h116.62v67.78Zm0-69.18h-116.62v-67.78h116.62v67.78Zm0-69.18h-116.62v-67.78h116.62v67.78Zm0-69.18h-116.62v-67.78h116.62v67.78Zm0-69.18h-116.62v-67.78h116.62v67.78Zm0-69.18h-116.62v-67.78h116.62v67.78Zm0-69.18h-116.62v-67.78h116.62v67.78Zm0-69.18h-116.62v-67.78h116.62v67.78Zm0-69.18h-116.62v-67.78h116.62v67.78Zm0-69.18h-116.62v-67.78h116.62v67.78Zm0-69.18h-116.62v-67.78h116.62v67.78Zm0-69.18h-116.62v-67.78h116.62v67.78Zm0-69.18h-116.62v-67.78h116.62v67.78Zm0-69.18h-116.62v-67.78h116.62v67.78Zm0-69.18h-116.62v-67.78h116.62v67.78Zm0-69.18h-116.62v-67.78h116.62v67.78Zm0-69.18h-116.62v-67.78s116.62,0,116.62,0v67.78Zm0-69.18h-116.62v-67.78h116.62v67.78Zm0-69.18h-116.62v-73.89h116.62v73.89Zm118.02,1314.37h-116.62v-67.78h116.62v67.78Zm0-69.18h-116.62v-67.78h116.62v67.78Zm0-69.18h-116.62v-67.78h116.62v67.78Zm0-69.18h-116.62v-67.78h116.62v67.78Zm0-69.18h-116.62v-67.78h116.62v67.78Zm0-69.18h-116.62v-67.78h116.62v67.78Zm0-69.18h-116.62v-67.78h116.62v67.78Zm0-69.18h-116.62v-67.78h116.62v67.78Zm0-69.18h-116.62v-67.78h116.62v67.78Zm0-69.18h-116.62v-67.78h116.62v67.78Zm0-69.18h-116.62v-67.78h116.62v67.78Zm0-69.18h-116.62v-67.78h116.62v67.78Zm0-69.18h-116.62v-67.78h116.62v67.78Zm0-69.18h-116.62v-67.78h116.62v67.78Zm0-69.18h-116.62v-67.78h116.62v67.78Zm0-69.18h-116.62v-67.78h116.62v67.78Zm0-69.18h-116.62v-67.78h116.62v67.78Zm0-69.18h-116.62v-67.78h116.62v67.78Zm0-69.18h-116.62v-67.78h116.62v67.78Zm0-69.18h-116.62v-73.89h116.62v73.89Zm118.02,1314.37h-116.62v-67.78h116.62v67.78Zm0-69.18h-116.62v-67.78h116.62v67.78Zm0-69.18h-116.62v-67.78h116.62v67.78Zm0-69.18h-116.62v-67.78h116.62v67.78Zm0-69.18h-116.62v-67.78h116.62v67.78Zm0-69.18h-116.62v-67.78h116.62v67.78Zm0-69.18h-116.62v-67.78h116.62v67.78Zm0-69.18h-116.62v-67.78h116.62v67.78Zm0-69.18h-116.62v-67.78h116.62v67.78Zm0-69.18h-116.62v-67.78h116.62v67.78Zm0-69.18h-116.62v-67.78h116.62v67.78Zm0-69.18h-116.62v-67.78h116.62v67.78Zm0-69.18h-116.62v-67.78h116.62v67.78Zm0-69.18h-116.62v-67.78h116.62v67.78Zm0-69.18h-116.62v-67.78h116.62v67.78Zm0-69.18h-116.62v-67.78h116.62v67.78Zm0-69.18h-116.62v-67.78h116.62v67.78Zm0-69.18h-116.62v-67.78h116.62v67.78Zm0-69.18h-116.62v-67.78h116.62v67.78Zm0-69.18h-116.62v-73.89h116.62v73.89Zm118.02,1314.37h-116.62v-67.78h116.62v67.78Zm0-69.18h-116.62v-67.78h116.62v67.78Zm0-69.18h-116.62v-67.78h116.62v67.78Zm0-69.18h-116.62v-67.78h116.62v67.78Zm0-69.18h-116.62v-67.78h116.62v67.78Zm0-69.18h-116.62v-67.78h116.62v67.78Zm0-69.18h-116.62v-67.78h116.62v67.78Zm0-69.18h-116.62v-67.78h116.62v67.78Zm0-69.18h-116.62v-67.78h116.62v67.78Zm0-69.18h-116.62v-67.78h116.62v67.78Zm0-69.18h-116.62v-67.78h116.62v67.78Zm0-69.18h-116.62v-67.78h116.62v67.78Zm0-69.18h-116.62v-67.78h116.62v67.78Zm0-69.18h-116.62v-67.78h116.62v67.78Zm0-69.18h-116.62v-67.78h116.62v67.78Zm0-69.18h-116.62v-67.78h116.62v67.78Zm0-69.18h-116.62v-67.78h116.62v67.78Zm0-69.18h-116.62v-67.78h116.62v67.78Zm0-69.18h-116.62v-67.78h116.62v67.78Zm0-69.18h-116.62v-73.89h116.62v73.89Zm118.02,1314.37h-116.62v-67.78h116.62v67.78Zm0-69.18h-116.62v-67.78h116.62v67.78Zm0-69.18h-116.62v-67.78h116.62v67.78Zm0-69.18h-116.62v-67.78h116.62v67.78Zm0-69.18h-116.62v-67.78h116.62v67.78Zm0-69.18h-116.62v-67.78h116.62v67.78Zm0-69.18h-116.62v-67.78h116.62v67.78Zm0-69.18h-116.62v-67.78h116.62v67.78Zm0-69.18h-116.62v-67.78h116.62v67.78Zm0-69.18h-116.62v-67.78h116.62v67.78Zm0-69.18h-116.62v-67.78h116.62v67.78Zm0-69.18h-116.62v-67.78h116.62v67.78Zm0-69.18h-116.62v-67.78h116.62v67.78Zm0-69.18h-116.62v-67.78h116.62v67.78Zm0-69.18h-116.62v-67.78h116.62v67.78Zm0-69.18h-116.62v-67.78h116.62v67.78Zm0-69.18h-116.62v-67.78h116.62v67.78Zm0-69.18h-116.62v-67.78h116.62v67.78Zm0-69.18h-116.62v-67.78h116.62v67.78Zm0-69.18h-116.62v-73.89h116.62v73.89Zm118.02,1314.37h-116.62v-67.78h116.62v67.78Zm0-69.18h-116.62v-67.78h116.62v67.78Zm0-69.18h-116.62v-67.78h116.62v67.78Zm0-69.18h-116.62v-67.78h116.62v67.78Zm0-69.18h-116.62v-67.78h116.62v67.78Zm0-69.18h-116.62v-67.78h116.62v67.78Zm0-69.18h-116.62v-67.78h116.62v67.78Zm0-69.18h-116.62v-67.78h116.62v67.78Zm0-69.18h-116.62v-67.78h116.62v67.78Zm0-69.18h-116.62v-67.78h116.62v67.78Zm0-69.18h-116.62v-67.78h116.62v67.78Zm0-69.18h-116.62v-67.78h116.62v67.78Zm0-69.18h-116.62v-67.78h116.62v67.78Zm0-69.18h-116.62v-67.78h116.62v67.78Zm0-69.18h-116.62v-67.78h116.62v67.78Zm0-69.18h-116.62v-67.78h116.62v67.78Zm0-69.18h-116.62v-67.78h116.62v67.78Zm0-69.18h-116.62v-67.78h116.62v67.78Zm0-69.18h-116.62v-67.78h116.62v67.78Zm0-69.18h-116.62v-73.89h116.62v73.89Zm118.02,1314.37h-116.62v-67.78h116.62v67.78Zm0-69.18h-116.62v-67.78h116.62v67.78Zm0-69.18h-116.62v-67.78h116.62v67.78Zm0-69.18h-116.62v-67.78h116.62v67.78Zm0-69.18h-116.62v-67.78h116.62v67.78Zm0-69.18h-116.62v-67.78h116.62v67.78Zm0-69.18h-116.62v-67.78h116.62v67.78Zm0-69.18h-116.62v-67.78h116.62v67.78Zm0-69.18h-116.62v-67.78h116.62v67.78Zm0-69.18h-116.62v-67.78h116.62v67.78Zm0-69.18h-116.62v-67.78h116.62v67.78Zm0-69.18h-116.62v-67.78h116.62v67.78Zm0-69.18h-116.62v-67.78h116.62v67.78Zm0-69.18h-116.62v-67.78h116.62v67.78Zm0-69.18h-116.62v-67.78h116.62v67.78Zm0-69.18h-116.62v-67.78h116.62v67.78Zm0-69.18h-116.62v-67.78h116.62v67.78Zm0-69.18h-116.62v-67.78h116.62v67.78Zm0-69.18h-116.62v-67.78h116.62v67.78Zm-116.62-143.06h116.62v73.89h-116.62v-73.89Zm0-1314.37h116.62v67.78h-116.62v-67.78Zm0,69.18h116.62v67.78h-116.62v-67.78Zm0,69.18h116.62v67.78h-116.62v-67.78Zm0,69.18h116.62v67.78h-116.62v-67.78Zm0,69.18h116.62v67.78h-116.62v-67.78Zm0,69.18h116.62v67.78h-116.62v-67.78Zm0,69.18h116.62v67.78h-116.62v-67.78Zm0,69.18h116.62v67.78h-116.62v-67.78Zm0,69.18h116.62v67.78h-116.62v-67.78Zm0,69.18h116.62v67.78h-116.62v-67.78Zm0,69.18h116.62V5.09h-116.62V-62.69Zm0,69.18h116.62v67.78h-116.62V6.49Zm0,69.18h116.62v67.78h-116.62v-67.78Zm0,69.18h116.62v67.78h-116.62v-67.78Zm0,69.18h116.62v67.78h-116.62v-67.78Zm0,69.18h116.62v67.78h-116.62v-67.78Zm0,69.18h116.62v67.78h-116.62v-67.78Zm0,69.18h116.62v67.78h-116.62v-67.78Zm0,69.18h116.62v67.78h-116.62v-67.78Zm-118.02-1245.19h116.62v67.78h-116.62v-67.78Zm0,69.18h116.62v67.78h-116.62v-67.78Zm0,69.18h116.62v67.78h-116.62v-67.78Zm0,69.18h116.62v67.78h-116.62v-67.78Zm0,69.18h116.62v67.78h-116.62v-67.78Zm0,69.18h116.62v67.78h-116.62v-67.78Zm0,69.18h116.62v67.78h-116.62v-67.78Zm0,69.18h116.62v67.78h-116.62v-67.78Zm0,69.18h116.62v67.78h-116.62v-67.78Zm0,69.18h116.62v67.78h-116.62v-67.78Zm0,69.18h116.62V5.09h-116.62V-62.69Zm0,69.18h116.62v67.78h-116.62V6.49Zm0,69.18h116.62v67.78h-116.62v-67.78Zm0,69.18h116.62v67.78h-116.62v-67.78Zm0,69.18h116.62v67.78h-116.62v-67.78Zm0,69.18h116.62v67.78h-116.62v-67.78Zm0,69.18h116.62v67.78h-116.62v-67.78Zm0,69.18h116.62v67.78h-116.62v-67.78Zm0,69.18h116.62v67.78h-116.62v-67.78Zm-118.02-1245.19h116.62v67.78h-116.62v-67.78Zm0,69.18h116.62v67.78h-116.62v-67.78Zm0,69.18h116.62v67.78h-116.62v-67.78Zm0,69.18h116.62v67.78h-116.62v-67.78Zm0,69.18h116.62v67.78h-116.62v-67.78Zm0,69.18h116.62v67.78h-116.62v-67.78Zm0,69.18h116.62v67.78h-116.62v-67.78Zm0,69.18h116.62v67.78h-116.62v-67.78Zm0,69.18h116.62v67.78h-116.62v-67.78Zm0,69.18h116.62v67.78h-116.62v-67.78Zm0,69.18h116.62V5.09h-116.62V-62.69Zm0,69.18h116.62v67.78h-116.62V6.49Zm0,69.18h116.62v67.78h-116.62v-67.78Zm0,69.18h116.62v67.78h-116.62v-67.78Zm0,69.18h116.62v67.78h-116.62v-67.78Zm0,69.18h116.62v67.78h-116.62v-67.78Zm0,69.18h116.62v67.78h-116.62v-67.78Zm0,69.18h116.62v67.78h-116.62v-67.78Zm0,69.18h116.62v67.78h-116.62v-67.78Zm-118.02-1245.19h116.62v67.78h-116.62v-67.78Zm0,69.18h116.62v67.78h-116.62v-67.78Zm0,69.18h116.62v67.78h-116.62v-67.78Zm0,69.18h116.62v67.78h-116.62v-67.78Zm0,69.18h116.62v67.78h-116.62v-67.78Zm0,69.18h116.62v67.78h-116.62v-67.78Zm0,69.18h116.62v67.78h-116.62v-67.78Zm0,69.18h116.62v67.78h-116.62v-67.78Zm0,69.18h116.62v67.78h-116.62v-67.78Zm0,69.18h116.62v67.78h-116.62v-67.78Zm0,69.18h116.62V5.09h-116.62V-62.69Zm0,69.18h116.62v67.78s-116.62,0-116.62,0V6.49Zm0,69.18h116.62v67.78h-116.62v-67.78Zm0,69.18h116.62v67.78h-116.62v-67.78Zm0,69.18h116.62v67.78h-116.62v-67.78Zm0,69.18h116.62v67.78h-116.62v-67.78Zm0,69.18h116.62v67.78h-116.62v-67.78Zm0,69.18h116.62v67.78h-116.62v-67.78Zm0,69.18h116.62v67.78h-116.62v-67.78Zm-118.02-1245.19h116.62v67.78h-116.62v-67.78Zm0,69.18h116.62v67.78h-116.62v-67.78Zm0,69.18h116.62v67.78h-116.62v-67.78Zm0,69.18h116.62v67.78h-116.62v-67.78Zm0,69.18h116.62v67.78h-116.62v-67.78Zm0,69.18h116.62v67.78h-116.62v-67.78Zm0,69.18h116.62v67.78h-116.62v-67.78Zm0,69.18h116.62v67.78h-116.62v-67.78Zm0,69.18h116.62v67.78h-116.62v-67.78Zm0,69.18h116.62v67.78h-116.62v-67.78Zm0,69.18h116.62V5.09h-116.62V-62.69Zm0,69.18h116.62v67.78h-116.62V6.49Zm0,69.18h116.62v67.78h-116.62v-67.78Zm0,69.18h116.62v67.78h-116.62v-67.78Zm0,69.18h116.62v67.78h-116.62v-67.78Zm0,69.18h116.62v67.78h-116.62v-67.78Zm0,69.18h116.62v67.78h-116.62v-67.78Zm0,69.18h116.62v67.78h-116.62v-67.78Zm0,69.18h116.62v67.78h-116.62v-67.78Zm-118.02-1245.19h116.62v67.78h-116.62v-67.78Zm0,69.18h116.62v67.78h-116.62v-67.78Zm0,69.18h116.62v67.78h-116.62v-67.78Zm0,69.18h116.62v67.78h-116.62v-67.78Zm0,69.18h116.62v67.78h-116.62v-67.78Zm0,69.18h116.62v67.78h-116.62v-67.78Zm0,69.18h116.62v67.78h-116.62v-67.78Zm0,69.18h116.62v67.78h-116.62v-67.78Zm0,69.18h116.62v67.78s-116.62,0-116.62,0v-67.78Zm0,69.18h116.62v67.78h-116.62v-67.78Zm0,69.18h116.62V5.09h-116.62V-62.69Zm0,69.18h116.62v67.78h-116.62V6.49Zm0,69.18h116.62v67.78h-116.62v-67.78Zm0,69.18h116.62v67.78h-116.62v-67.78Zm0,69.18h116.62v67.78h-116.62v-67.78Zm0,69.18h116.62v67.78h-116.62v-67.78Zm0,69.18h116.62v67.78h-116.62v-67.78Zm0,69.18h116.62v67.78h-116.62v-67.78Zm0,69.18h116.62v67.78h-116.62v-67.78Zm-118.02-1245.19h116.62v67.78h-116.62v-67.78Zm0,69.18h116.62v67.78h-116.62v-67.78Zm0,69.18h116.62v67.78h-116.62v-67.78Zm0,69.18h116.62v67.78h-116.62v-67.78Zm0,69.18h116.62v67.78h-116.62v-67.78Zm0,69.18h116.62v67.78h-116.62v-67.78Zm0,69.18h116.62v67.78h-116.62v-67.78Zm0,69.18h116.62v67.78h-116.62v-67.78Zm0,69.18h116.62v67.78h-116.62v-67.78Zm0,69.18h116.62v67.78h-116.62v-67.78Zm0,69.18h116.62V5.09h-116.62V-62.69Zm0,69.18h116.62v67.78h-116.62V6.49Zm0,69.18h116.62v67.78h-116.62v-67.78Zm0,69.18h116.62v67.78h-116.62v-67.78Zm0,69.18h116.62v67.78h-116.62v-67.78Zm0,69.18h116.62v67.78h-116.62v-67.78Zm0,69.18h116.62v67.78h-116.62v-67.78Zm0,69.18h116.62v67.78h-116.62v-67.78Zm0,69.18h116.62v67.78h-116.62v-67.78Zm-118.02-1245.19h116.62v67.78h-116.62v-67.78Zm0,69.18h116.62v67.78h-116.62v-67.78Zm0,69.18h116.62v67.78h-116.62v-67.78Zm0,69.18h116.62v67.78h-116.62v-67.78Zm0,69.18h116.62v67.78h-116.62v-67.78Zm0,69.18h116.62v67.78h-116.62v-67.78Zm0,69.18h116.62v67.78h-116.62v-67.78Zm0,69.18h116.62v67.78h-116.62v-67.78Zm0,69.18h116.62v67.78h-116.62v-67.78Zm0,69.18h116.62v67.78h-116.62v-67.78Zm0,69.18h116.62V5.09h-116.62V-62.69Zm0,69.18h116.62v67.78h-116.62V6.49Zm0,69.18h116.62v67.78h-116.62v-67.78Zm0,69.18h116.62v67.78h-116.62v-67.78Zm0,69.18h116.62v67.78h-116.62v-67.78Zm0,69.18h116.62v67.78h-116.62v-67.78Zm0,69.18h116.62v67.78h-116.62v-67.78Zm0,69.18h116.62v67.78h-116.62v-67.78Zm0,69.18h116.62v67.78h-116.62v-67.78Zm-118.02-1245.19h116.62v67.78h-116.62v-67.78Zm0,69.18h116.62v67.78h-116.62v-67.78Zm0,69.18h116.62v67.78h-116.62v-67.78Zm0,69.18h116.62v67.78h-116.62v-67.78Zm0,69.18h116.62v67.78h-116.62v-67.78Zm0,69.18h116.62v67.78h-116.62v-67.78Zm0,69.18h116.62v67.78h-116.62v-67.78Zm0,69.18h116.62v67.78h-116.62v-67.78Zm0,69.18h116.62v67.78h-116.62v-67.78Zm0,69.18h116.62v67.78h-116.62v-67.78Zm0,69.18h116.62V5.09h-116.62V-62.69Zm0,69.18h116.62v67.78h-116.62V6.49Zm0,69.18h116.62v67.78h-116.62v-67.78Zm0,69.18h116.62v67.78h-116.62v-67.78Zm0,69.18h116.62v67.78h-116.62v-67.78Zm0,69.18h116.62v67.78h-116.62v-67.78Zm0,69.18h116.62v67.78h-116.62v-67.78Zm0,69.18h116.62v67.78h-116.62v-67.78Zm0,69.18h116.62v67.78h-116.62v-67.78Zm-118.02-1245.19h116.62v67.78h-116.62v-67.78Zm0,69.18h116.62v67.78h-116.62v-67.78Zm0,69.18h116.62v67.78h-116.62v-67.78Zm0,69.18h116.62v67.78h-116.62v-67.78Zm0,69.18h116.62v67.78h-116.62v-67.78Zm0,69.18h116.62v67.78h-116.62v-67.78Zm0,69.18h116.62v67.78h-116.62v-67.78Zm0,69.18h116.62v67.78h-116.62v-67.78Zm0,69.18h116.62v67.78h-116.62v-67.78Zm0,69.18h116.62v67.78h-116.62v-67.78Zm0,69.18h116.62V5.09h-116.62V-62.69Zm0,69.18h116.62v67.78h-116.62V6.49Zm0,69.18h116.62v67.78h-116.62v-67.78Zm0,69.18h116.62v67.78h-116.62v-67.78Zm0,69.18h116.62v67.78h-116.62v-67.78Zm0,69.18h116.62v67.78h-116.62v-67.78Zm0,69.18h116.62v67.78h-116.62v-67.78Zm0,69.18h116.62v67.78h-116.62v-67.78Zm0,69.18h116.62v67.78h-116.62v-67.78Zm-118.02-1245.19h116.62v67.78h-116.62v-67.78Zm0,69.18h116.62v67.78h-116.62v-67.78Zm0,69.18h116.62v67.78h-116.62v-67.78Zm0,69.18h116.62v67.78h-116.62v-67.78Zm0,69.18h116.62v67.78h-116.62v-67.78Zm0,69.18h116.62v67.78h-116.62v-67.78Zm0,69.18h116.62v67.78h-116.62v-67.78Zm0,69.18h116.62v67.78h-116.62v-67.78Zm0,69.18h116.62v67.78h-116.62v-67.78Zm0,69.18h116.62v67.78h-116.62v-67.78Zm0,69.18h116.62V5.09h-116.62V-62.69Zm0,69.18h116.62v67.78h-116.62V6.49Zm0,69.18h116.62v67.78h-116.62v-67.78Zm0,69.18h116.62v67.78h-116.62v-67.78Zm0,69.18h116.62v67.78h-116.62v-67.78Zm0,69.18h116.62v67.78h-116.62v-67.78Zm0,69.18h116.62v67.78h-116.62v-67.78Zm0,69.18h116.62v67.78h-116.62v-67.78Zm0,69.18h116.62v67.78h-116.62v-67.78Zm-113.94-1245.19h112.54v67.78h-112.54v-67.78Zm0,69.18h112.54v67.78h-112.54v-67.78Zm0,69.18h112.54v67.78h-112.54v-67.78Zm0,69.18h112.54v67.78h-112.54v-67.78Zm0,69.18h112.54v67.78h-112.54v-67.78Zm0,69.18h112.54v67.78h-112.54v-67.78Zm0,69.18h112.54v67.78h-112.54v-67.78Zm0,69.18h112.54v67.78h-112.54v-67.78Zm0,69.18h112.54v67.78h-112.54v-67.78Zm0,69.18h112.54v67.78h-112.54v-67.78Zm0,69.18h112.54V5.09h-112.54V-62.69Zm0,69.18h112.54v67.78h-112.54V6.49Zm0,69.18h112.54v67.78h-112.54v-67.78Zm0,69.18h112.54v67.78h-112.54v-67.78Zm0,69.18h112.54v67.78h-112.54v-67.78Zm0,69.18h112.54v67.78h-112.54v-67.78Zm0,69.18h112.54v67.78h-112.54v-67.78Zm0,69.18h112.54v67.78h-112.54v-67.78Zm0,69.18h112.54v67.78h-112.54v-67.78Zm-118.02-1245.19h116.62v67.78h-116.62v-67.78Zm0,69.18h116.62v67.78h-116.62v-67.78Zm0,69.18h116.62v67.78h-116.62v-67.78Zm0,69.18h116.62v67.78h-116.62v-67.78Zm0,69.18h116.62v67.78h-116.62v-67.78Zm0,69.18h116.62v67.78h-116.62v-67.78Zm0,69.18h116.62v67.78h-116.62v-67.78Zm0,69.18h116.62v67.78h-116.62v-67.78Zm0,69.18h116.62v67.78h-116.62v-67.78Zm0,69.18h116.62v67.78h-116.62v-67.78Zm0,69.18h116.62V5.09h-116.62V-62.69Zm0,69.18h116.62v67.78h-116.62V6.49Zm0,69.18h116.62v67.78h-116.62v-67.78Zm0,69.18h116.62v67.78h-116.62v-67.78Zm0,69.18h116.62v67.78h-116.62v-67.78Zm0,69.18h116.62v67.78h-116.62v-67.78Zm0,69.18h116.62v67.78h-116.62v-67.78Zm0,69.18h116.62v67.78h-116.62v-67.78Zm0,69.18h116.62v67.78h-116.62v-67.78Zm-118.02-1245.19h116.62v67.78h-116.62v-67.78Zm0,69.18h116.62v67.78h-116.62v-67.78Zm0,69.18h116.62v67.78h-116.62v-67.78Zm0,69.18h116.62v67.78h-116.62v-67.78Zm0,69.18h116.62v67.78h-116.62v-67.78Zm0,69.18h116.62v67.78h-116.62v-67.78Zm0,69.18h116.62v67.78h-116.62v-67.78Zm0,69.18h116.62v67.78h-116.62v-67.78Zm0,69.18h116.62v67.78h-116.62v-67.78Zm0,69.18h116.62v67.78h-116.62v-67.78Zm0,69.18h116.62V5.09h-116.62V-62.69Zm0,69.18h116.62v67.78h-116.62V6.49Zm0,69.18h116.62v67.78h-116.62v-67.78Zm0,69.18h116.62v67.78h-116.62v-67.78Zm0,69.18h116.62v67.78h-116.62v-67.78Zm0,69.18h116.62v67.78h-116.62v-67.78Zm0,69.18h116.62v67.78h-116.62v-67.78Zm0,69.18h116.62v67.78h-116.62v-67.78Zm0,69.18h116.62v67.78h-116.62v-67.78Zm-118.02-1245.19h116.62v67.78h-116.62v-67.78Zm0,69.18h116.62v67.78h-116.62v-67.78Zm0,69.18h116.62v67.78h-116.62v-67.78Zm0,69.18h116.62v67.78h-116.62v-67.78Zm0,69.18h116.62v67.78h-116.62v-67.78Zm0,69.18h116.62v67.78h-116.62v-67.78Zm0,69.18h116.62v67.78h-116.62v-67.78Zm0,69.18h116.62v67.78h-116.62v-67.78Zm0,69.18h116.62v67.78h-116.62v-67.78Zm0,69.18h116.62v67.78h-116.62v-67.78Zm0,69.18h116.62V5.09h-116.62V-62.69Zm0,69.18h116.62v67.78h-116.62V6.49Zm0,69.18h116.62v67.78h-116.62v-67.78Zm0,69.18h116.62v67.78h-116.62v-67.78Zm0,69.18h116.62v67.78h-116.62v-67.78Zm0,69.18h116.62v67.78h-116.62v-67.78Zm0,69.18h116.62v67.78h-116.62v-67.78Zm0,69.18h116.62v67.78h-116.62v-67.78Zm0,69.18h116.62v67.78h-116.62v-67.78Zm-118.02-1245.19h116.62v67.78h-116.62v-67.78Zm0,69.18h116.62v67.78h-116.62v-67.78Zm0,69.18h116.62v67.78h-116.62v-67.78Zm0,69.18h116.62v67.78h-116.62v-67.78Zm0,69.18h116.62v67.78h-116.62v-67.78Zm0,69.18h116.62v67.78h-116.62v-67.78Zm0,69.18h116.62v67.78h-116.62v-67.78Zm0,69.18h116.62v67.78h-116.62v-67.78Zm0,69.18h116.62v67.78h-116.62v-67.78Zm0,69.18h116.62v67.78h-116.62v-67.78Zm0,69.18h116.62V5.09h-116.62V-62.69Zm0,69.18h116.62v67.78h-116.62V6.49Zm0,69.18h116.62v67.78h-116.62v-67.78Zm0,69.18h116.62v67.78h-116.62v-67.78Zm0,69.18h116.62v67.78h-116.62v-67.78Zm0,69.18h116.62v67.78h-116.62v-67.78Zm0,69.18h116.62v67.78h-116.62v-67.78Zm0,69.18h116.62v67.78h-116.62v-67.78Zm0,69.18h116.62v67.78h-116.62v-67.78Zm-118.02-1245.19h116.62v67.78h-116.62v-67.78Zm0,69.18h116.62v67.78h-116.62v-67.78Zm0,69.18h116.62v67.78h-116.62v-67.78Zm0,69.18h116.62v67.78h-116.62v-67.78Zm0,69.18h116.62v67.78h-116.62v-67.78Zm0,69.18h116.62v67.78h-116.62v-67.78Zm0,69.18h116.62v67.78h-116.62v-67.78Zm0,69.18h116.62v67.78h-116.62v-67.78Zm0,69.18h116.62v67.78h-116.62v-67.78Zm0,69.18h116.62v67.78h-116.62v-67.78Zm0,69.18h116.62V5.09h-116.62V-62.69Zm0,69.18h116.62v67.78h-116.62V6.49Zm0,69.18h116.62v67.78h-116.62v-67.78Zm0,69.18h116.62v67.78h-116.62v-67.78Zm0,69.18h116.62v67.78h-116.62v-67.78Zm0,69.18h116.62v67.78h-116.62v-67.78Zm0,69.18h116.62v67.78h-116.62v-67.78Zm0,69.18h116.62v67.78h-116.62v-67.78Zm0,69.18h116.62v67.78h-116.62v-67.78Zm-118.02-1245.19h116.62v67.78h-116.62v-67.78Zm0,69.18h116.62v67.78h-116.62v-67.78Zm0,69.18h116.62v67.78h-116.62v-67.78Zm0,69.18h116.62v67.78h-116.62v-67.78Zm0,69.18h116.62v67.78h-116.62v-67.78Zm0,69.18h116.62v67.78h-116.62v-67.78Zm0,69.18h116.62v67.78h-116.62v-67.78Zm0,69.18h116.62v67.78h-116.62v-67.78Zm0,69.18h116.62v67.78h-116.62v-67.78Zm0,69.18h116.62v67.78h-116.62v-67.78Zm0,69.18h116.62V5.09h-116.62V-62.69Zm0,69.18h116.62v67.78h-116.62V6.49Zm0,69.18h116.62v67.78h-116.62v-67.78Zm0,69.18h116.62v67.78h-116.62v-67.78Zm0,69.18h116.62v67.78h-116.62v-67.78Zm0,69.18h116.62v67.78h-116.62v-67.78Zm0,69.18h116.62v67.78h-116.62v-67.78Zm0,69.18h116.62v67.78h-116.62v-67.78Zm0,69.18h116.62v67.78h-116.62v-67.78Zm-118.02-1245.19h116.62v67.78h-116.62v-67.78Zm0,69.18h116.62v67.78h-116.62v-67.78Zm0,69.18h116.62v67.78h-116.62v-67.78Zm0,69.18h116.62v67.78h-116.62v-67.78Zm0,69.18h116.62v67.78h-116.62v-67.78Zm0,69.18h116.62v67.78h-116.62v-67.78Zm0,69.18h116.62v67.78h-116.62v-67.78Zm0,69.18h116.62v67.78h-116.62v-67.78Zm0,69.18h116.62v67.78h-116.62v-67.78Zm0,69.18h116.62v67.78h-116.62v-67.78Zm0,69.18h116.62V5.09h-116.62V-62.69Zm0,69.18h116.62v67.78h-116.62V6.49Zm0,69.18h116.62v67.78h-116.62v-67.78Zm0,69.18h116.62v67.78h-116.62v-67.78Zm0,69.18h116.62v67.78h-116.62v-67.78Zm0,69.18h116.62v67.78h-116.62v-67.78Zm0,69.18h116.62v67.78h-116.62v-67.78Zm0,69.18h116.62v67.78h-116.62v-67.78Zm0,69.18h116.62v67.78h-116.62v-67.78Zm-118.02-1245.19h116.62v67.78h-116.62v-67.78Zm0,69.18h116.62v67.78h-116.62v-67.78Zm0,69.18h116.62v67.78h-116.62v-67.78Zm0,69.18h116.62v67.78h-116.62v-67.78Zm0,69.18h116.62v67.78h-116.62v-67.78Zm0,69.18h116.62v67.78h-116.62v-67.78Zm0,69.18h116.62v67.78h-116.62v-67.78Zm0,69.18h116.62v67.78h-116.62v-67.78Zm0,69.18h116.62v67.78h-116.62v-67.78Zm0,69.18h116.62v67.78h-116.62v-67.78Zm0,69.18h116.62V5.09h-116.62V-62.69Zm0,69.18h116.62v67.78h-116.62V6.49Zm0,69.18h116.62v67.78h-116.62v-67.78Zm0,69.18h116.62v67.78h-116.62v-67.78Zm0,69.18h116.62v67.78h-116.62v-67.78Zm0,69.18h116.62v67.78h-116.62v-67.78Zm0,69.18h116.62v67.78h-116.62v-67.78Zm0,69.18h116.62v67.78h-116.62v-67.78Zm0,69.18h116.62v67.78h-116.62v-67.78Zm-118.02-1245.19h116.62v67.78h-116.62v-67.78Zm0,69.18h116.62v67.78h-116.62v-67.78Zm0,69.18h116.62v67.78h-116.62v-67.78Zm0,69.18h116.62v67.78h-116.62v-67.78Zm0,69.18h116.62v67.78h-116.62v-67.78Zm0,69.18h116.62v67.78h-116.62v-67.78Zm0,69.18h116.62v67.78h-116.62v-67.78Zm0,69.18h116.62v67.78h-116.62v-67.78Zm0,69.18h116.62v67.78h-116.62v-67.78Zm0,69.18h116.62v67.78h-116.62v-67.78Zm0,69.18h116.62V5.09h-116.62V-62.69Zm0,69.18h116.62v67.78h-116.62V6.49Zm0,69.18h116.62v67.78h-116.62v-67.78Zm0,69.18h116.62v67.78h-116.62v-67.78Zm0,69.18h116.62v67.78h-116.62v-67.78Zm0,69.18h116.62v67.78h-116.62v-67.78Zm0,69.18h116.62v67.78h-116.62v-67.78Zm0,69.18h116.62v67.78h-116.62v-67.78Zm0,69.18h116.62v67.78h-116.62v-67.78Zm-118.02-1245.19h116.62v67.78h-116.62v-67.78Zm0,69.18h116.62v67.78h-116.62v-67.78Zm0,69.18h116.62v67.78h-116.62v-67.78Zm0,69.18h116.62v67.78h-116.62v-67.78Zm0,69.18h116.62v67.78h-116.62v-67.78Zm0,69.18h116.62v67.78h-116.62v-67.78Zm0,69.18h116.62v67.78h-116.62v-67.78Zm0,69.18h116.62v67.78h-116.62v-67.78Zm0,69.18h116.62v67.78h-116.62v-67.78Zm0,69.18h116.62v67.78h-116.62v-67.78Zm0,69.18h116.62V5.09h-116.62V-62.69Zm0,69.18h116.62v67.78h-116.62V6.49Zm0,69.18h116.62v67.78h-116.62v-67.78Zm0,69.18h116.62v67.78h-116.62v-67.78Zm0,69.18h116.62v67.78h-116.62v-67.78Zm0,69.18h116.62v67.78h-116.62v-67.78Zm0,69.18h116.62v67.78h-116.62v-67.78Zm0,69.18h116.62v67.78h-116.62v-67.78Zm0,69.18h116.62v67.78h-116.62v-67.78ZM89.29-754.46h116.62v67.78h-116.62v-67.78Zm0,69.18h116.62v67.78h-116.62v-67.78Zm0,69.18h116.62v67.78h-116.62v-67.78Zm0,69.18h116.62v67.78h-116.62v-67.78Zm0,69.18h116.62v67.78h-116.62v-67.78Zm0,69.18h116.62v67.78h-116.62v-67.78Zm0,69.18h116.62v67.78h-116.62v-67.78Zm0,69.18h116.62v67.78h-116.62v-67.78Zm0,69.18h116.62v67.78h-116.62v-67.78Zm0,69.18h116.62v67.78h-116.62v-67.78Zm0,69.18h116.62V5.09h-116.62V-62.69Zm0,69.18h116.62v67.78h-116.62V6.49Zm0,69.18h116.62v67.78h-116.62v-67.78Zm0,69.18h116.62v67.78h-116.62v-67.78Zm0,69.18h116.62v67.78h-116.62v-67.78Zm0,69.18h116.62v67.78h-116.62v-67.78Zm0,69.18h116.62v67.78h-116.62v-67.78Zm0,69.18h116.62v67.78h-116.62v-67.78Zm0,69.18h116.62v67.78h-116.62v-67.78Zm0,144.46h116.62v67.78h-116.62v-67.78Z" fill="url(#b)" stroke-width="0"/></svg>