<?xml version="1.0" encoding="UTF-8"?><svg id="a" xmlns="http://www.w3.org/2000/svg" width="2000" height="1500" xmlns:xlink="http://www.w3.org/1999/xlink" viewBox="0 0 2000 1500"><defs><linearGradient id="b" x1="0" y1="750" x2="2000" y2="750" gradientUnits="userSpaceOnUse"><stop offset=".28" stop-color="#42ba96"/><stop offset=".33" stop-color="#42ba96" stop-opacity=".96"/><stop offset=".41" stop-color="#42ba96" stop-opacity=".86"/><stop offset=".49" stop-color="#42ba96" stop-opacity=".68"/><stop offset=".59" stop-color="#42ba96" stop-opacity=".45"/><stop offset=".7" stop-color="#42ba96" stop-opacity=".14"/><stop offset=".74" stop-color="#42ba96" stop-opacity="0"/></linearGradient></defs><g opacity=".3"><line x1="721.65" y1="62.83" x2="2202.85" y2="62.83" fill="none" stroke="#fad776" stroke-miterlimit="10" stroke-width="2.78"/><line x1="954.76" y1="62.83" x2="954.76" y2="1544.04" fill="none" stroke="#fad776" stroke-miterlimit="10" stroke-width="2.78"/><line x1="1109.14" y1="62.83" x2="1109.14" y2="1544.04" fill="none" stroke="#fad776" stroke-miterlimit="10" stroke-width="2.78"/><line x1="1414.42" y1="62.83" x2="1414.42" y2="1544.04" fill="none" stroke="#fad776" stroke-miterlimit="10" stroke-width="2.78"/><line x1="1252.44" y1="62.83" x2="1252.44" y2="1544.04" fill="none" stroke="#fad776" stroke-miterlimit="10" stroke-width="2.78"/><line x1="804" y1="62.83" x2="804" y2="1544.04" fill="none" stroke="#fad776" stroke-miterlimit="10" stroke-width="2.78"/><line x1="1564.17" y1="62.83" x2="1564.17" y2="1544.04" fill="none" stroke="#fad776" stroke-miterlimit="10" stroke-width="2.78"/><line x1="1709.29" y1="62.83" x2="1709.29" y2="1544.04" fill="none" stroke="#fad776" stroke-miterlimit="10" stroke-width="2.78"/><line x1="1854.42" y1="62.83" x2="1854.42" y2="1544.04" fill="none" stroke="#fad776" stroke-miterlimit="10" stroke-width="2.78"/><line x1="1999.54" y1="62.83" x2="1999.54" y2="1544.04" fill="none" stroke="#fad776" stroke-miterlimit="10" stroke-width="2.78"/><line x1="2210.72" y1="111.35" x2="729.52" y2="111.35" fill="none" stroke="#fad776" stroke-miterlimit="10" stroke-width="2.78"/><line x1="2210.72" y1="161.61" x2="729.52" y2="161.61" fill="none" stroke="#fad776" stroke-miterlimit="10" stroke-width="2.78"/><line x1="2210.72" y1="211.87" x2="729.52" y2="211.87" fill="none" stroke="#fad776" stroke-miterlimit="10" stroke-width="2.78"/><line x1="2210.72" y1="262.13" x2="729.52" y2="262.12" fill="none" stroke="#fad776" stroke-miterlimit="10" stroke-width="2.78"/><line x1="2210.72" y1="312.38" x2="729.52" y2="312.38" fill="none" stroke="#fad776" stroke-miterlimit="10" stroke-width="2.78"/><line x1="2210.72" y1="362.64" x2="729.52" y2="362.64" fill="none" stroke="#fad776" stroke-miterlimit="10" stroke-width="2.78"/><line x1="2210.72" y1="412.9" x2="729.52" y2="412.9" fill="none" stroke="#fad776" stroke-miterlimit="10" stroke-width="2.78"/><line x1="2210.72" y1="412.9" x2="729.52" y2="412.9" fill="none" stroke="#fad776" stroke-miterlimit="10" stroke-width="2.78"/><line x1="2210.72" y1="463.15" x2="729.52" y2="463.15" fill="none" stroke="#fad776" stroke-miterlimit="10" stroke-width="2.78"/><line x1="2210.72" y1="513.41" x2="729.52" y2="513.41" fill="none" stroke="#fad776" stroke-miterlimit="10" stroke-width="2.78"/><line x1="2210.72" y1="563.67" x2="729.52" y2="563.67" fill="none" stroke="#fad776" stroke-miterlimit="10" stroke-width="2.78"/><line x1="2210.72" y1="613.93" x2="729.52" y2="613.93" fill="none" stroke="#fad776" stroke-miterlimit="10" stroke-width="2.78"/><line x1="2210.72" y1="664.18" x2="729.52" y2="664.18" fill="none" stroke="#fad776" stroke-miterlimit="10" stroke-width="2.78"/><line x1="2210.72" y1="714.44" x2="729.52" y2="714.44" fill="none" stroke="#fad776" stroke-miterlimit="10" stroke-width="2.78"/><line x1="2210.72" y1="772.11" x2="729.52" y2="772.11" fill="none" stroke="#fad776" stroke-miterlimit="10" stroke-width="2.78"/><line x1="2210.72" y1="822.36" x2="729.52" y2="822.36" fill="none" stroke="#fad776" stroke-miterlimit="10" stroke-width="2.78"/><line x1="2210.72" y1="872.62" x2="729.52" y2="872.62" fill="none" stroke="#fad776" stroke-miterlimit="10" stroke-width="2.78"/><line x1="2210.72" y1="922.88" x2="729.52" y2="922.88" fill="none" stroke="#fad776" stroke-miterlimit="10" stroke-width="2.78"/><line x1="2210.72" y1="973.14" x2="729.52" y2="973.14" fill="none" stroke="#fad776" stroke-miterlimit="10" stroke-width="2.78"/><line x1="2210.72" y1="1023.39" x2="729.52" y2="1023.39" fill="none" stroke="#fad776" stroke-miterlimit="10" stroke-width="2.78"/><line x1="2210.72" y1="1073.65" x2="729.52" y2="1073.65" fill="none" stroke="#fad776" stroke-miterlimit="10" stroke-width="2.78"/><line x1="2210.72" y1="1131.32" x2="729.52" y2="1131.32" fill="none" stroke="#fad776" stroke-miterlimit="10" stroke-width="2.78"/><line x1="2210.72" y1="1181.57" x2="729.52" y2="1181.57" fill="none" stroke="#fad776" stroke-miterlimit="10" stroke-width="2.78"/><line x1="2210.72" y1="1231.83" x2="729.52" y2="1231.83" fill="none" stroke="#fad776" stroke-miterlimit="10" stroke-width="2.78"/><line x1="2210.72" y1="1282.09" x2="729.52" y2="1282.09" fill="none" stroke="#fad776" stroke-miterlimit="10" stroke-width="2.78"/><line x1="2210.72" y1="1332.35" x2="729.52" y2="1332.35" fill="none" stroke="#fad776" stroke-miterlimit="10" stroke-width="2.78"/><line x1="2210.72" y1="1382.6" x2="729.52" y2="1382.6" fill="none" stroke="#fad776" stroke-miterlimit="10" stroke-width="2.78"/><line x1="2210.72" y1="1432.86" x2="729.52" y2="1432.86" fill="none" stroke="#fad776" stroke-miterlimit="10" stroke-width="2.78"/></g><rect width="2000" height="1500" fill="url(#b)" stroke-width="0"/></svg>