<?xml version="1.0" encoding="UTF-8"?><svg id="a" xmlns="http://www.w3.org/2000/svg" width="48" height="48" viewBox="0 0 48 48"><rect x="4" y="4" width="40" height="40" rx="8" ry="8" fill="#2a9672" stroke-width="0"/><rect x="4" y="4" width="40" height="34" rx="8" ry="8" fill="#42ba96" stroke-width="0"/><path d="M24,21c-2.7614,0-5-2.2386-5-5s2.2386-5,5-5,5,2.2386,5,5-2.2386,5-5,5ZM15,29v1c0,.5522.4477,1,1,1h16c.5523,0,1-.4478,1-1v-1c0-2.2092-1.7908-4-4-4h-10c-2.2092,0-4,1.7908-4,4Z" fill="#fff" stroke-width="0"/><path d="M36,3H12C7.0376,3,3,7.0376,3,12v24c0,4.9629,4.0376,9,9,9h24c4.9624,0,9-4.0371,9-9V12c0-4.9624-4.0376-9-9-9ZM43,36c0,3.8594-3.1401,7-7,7H12c-3.8599,0-7-3.1406-7-7V12c0-3.8599,3.1401-7,7-7h24c3.8599,0,7,3.1401,7,7v24Z" fill="#09090b" stroke-width="0"/></svg>