<?xml version="1.0" encoding="UTF-8"?><svg id="a" xmlns="http://www.w3.org/2000/svg" width="48" height="48" viewBox="0 0 48 48"><rect x="4" y="4" width="40" height="40" rx="8" ry="8" fill="#2a9672" stroke-width="0"/><rect x="4" y="4" width="40" height="34" rx="8" ry="8" fill="#42ba96" stroke-width="0"/><path d="M36,3H12C7.0371,3,3,7.0376,3,12v24c0,4.9629,4.0371,9,9,9h24c4.9629,0,9-4.0371,9-9V12c0-4.9624-4.0371-9-9-9ZM43,36c0,3.8594-3.1406,7-7,7H12c-3.8594,0-7-3.1406-7-7V12c0-3.8599,3.1406-7,7-7h24c3.8594,0,7,3.1401,7,7v24Z" fill="#09090b" stroke-width="0"/><path d="M31.7778,15.4444h-3.3333v-2.2222c0-1.2273-.9949-2.2222-2.2222-2.2222h-4.4444c-1.2273,0-2.2222.9949-2.2222,2.2222v2.2222h-3.3333c-1.2273,0-2.2222.9949-2.2222,2.2222v11.1111c0,1.2273.9949,2.2222,2.2222,2.2222h15.5556c1.2273,0,2.2222-.9949,2.2222-2.2222v-11.1111c0-1.2273-.9949-2.2222-2.2222-2.2222ZM19.5556,28.2222c0,.3068-.2488.5556-.5556.5556h-2.2222c-.3068,0-.5556-.2488-.5556-.5556v-1.1111c0-.3069.2488-.5556.5556-.5556h2.2222c.3068,0,.5556.2487.5556.5556v1.1111ZM19.5556,23.7778c0,.3068-.2488.5556-.5556.5556h-2.2222c-.3068,0-.5556-.2488-.5556-.5556v-1.1111c0-.3069.2488-.5556.5556-.5556h2.2222c.3068,0,.5556.2487.5556.5556v1.1111ZM19.5556,19.3333c0,.3068-.2488.5556-.5556.5556h-2.2222c-.3068,0-.5556-.2488-.5556-.5556v-1.1111c0-.3069.2488-.5556.5556-.5556h2.2222c.3068,0,.5556.2487.5556.5556v1.1111ZM26.2222,28.2222c0,.3068-.2488.5556-.5556.5556h-3.3333c-.3068,0-.5556-.2488-.5556-.5556v-1.1111c0-.3069.2488-.5556.5556-.5556h3.3333c.3068,0,.5556.2487.5556.5556v1.1111ZM26.2222,23.7778c0,.3068-.2488.5556-.5556.5556h-3.3333c-.3068,0-.5556-.2488-.5556-.5556v-1.1111c0-.3069.2488-.5556.5556-.5556h3.3333c.3068,0,.5556.2487.5556.5556v1.1111ZM26.2222,19.3333c0,.3068-.2488.5556-.5556.5556h-3.3333c-.3068,0-.5556-.2488-.5556-.5556v-1.1111c0-.3069.2488-.5556.5556-.5556h3.3333c.3068,0,.5556.2487.5556.5556v1.1111ZM26.2222,14.8889c0,.3068-.2488.5556-.5556.5556h-3.3333c-.3068,0-.5556-.2488-.5556-.5556v-1.1111c0-.3069.2488-.5556.5556-.5556h3.3333c.3068,0,.5556.2487.5556.5556v1.1111ZM31.7778,28.2222c0,.3068-.2488.5556-.5556.5556h-2.2222c-.3068,0-.5556-.2488-.5556-.5556v-1.1111c0-.3069.2488-.5556.5556-.5556h2.2222c.3068,0,.5556.2487.5556.5556v1.1111ZM31.7778,23.7778c0,.3068-.2488.5556-.5556.5556h-2.2222c-.3068,0-.5556-.2488-.5556-.5556v-1.1111c0-.3069.2488-.5556.5556-.5556h2.2222c.3068,0,.5556.2487.5556.5556v1.1111ZM31.7778,19.3333c0,.3068-.2488.5556-.5556.5556h-2.2222c-.3068,0-.5556-.2488-.5556-.5556v-1.1111c0-.3069.2488-.5556.5556-.5556h2.2222c.3068,0,.5556.2487.5556.5556v1.1111Z" fill="#fff" stroke-width="0"/></svg>