<?xml version="1.0" encoding="UTF-8"?><svg id="a" xmlns="http://www.w3.org/2000/svg" width="48" height="48" viewBox="0 0 48 48"><rect x="4" y="6" width="30" height="26" rx="2" ry="2" fill="#fafafa" stroke-width="0"/><path d="M34,20.25c.1382,0,.25-.1118.25-.25s-.1118-.25-.25-.25h-1.75v-3.5h1.75c.1382,0,.25-.1118.25-.25s-.1118-.25-.25-.25H4c-.1382,0-.25.1118-.25.25s.1118.25.25.25h3.75v3.5h-3.75c-.1382,0-.25.1118-.25.25s.1118.25.25.25h3.75v3.5h-3.75c-.1382,0-.25.1118-.25.25s.1118.25.25.25h3.75v3.5h-3.75c-.1382,0-.25.1123-.25.25s.1118.25.25.25h3.75v3.75c0,.1377.1118.25.25.25s.25-.1123.25-.25v-3.75h7.5v3.75c0,.1377.1118.25.25.25s.25-.1123.25-.25v-3.75h7.5v3.75c0,.1377.1118.25.25.25s.25-.1123.25-.25v-3.75h7.5v3.75c0,.1377.1118.25.25.25s.25-.1123.25-.25v-3.75h1.75c.1382,0,.25-.1123.25-.25s-.1118-.25-.25-.25h-1.75v-3.5h1.75c.1382,0,.25-.1118.25-.25s-.1118-.25-.25-.25h-1.75v-3.5h1.75ZM15.75,27.75h-7.5v-3.5h7.5v3.5ZM15.75,23.75h-7.5v-3.5h7.5v3.5ZM15.75,19.75h-7.5v-3.5h7.5v3.5ZM23.75,27.75h-7.5v-3.5h7.5v3.5ZM23.75,23.75h-7.5v-3.5h7.5v3.5ZM23.75,19.75h-7.5v-3.5h7.5v3.5ZM31.75,27.75h-7.5v-3.5h7.5v3.5ZM31.75,23.75h-7.5v-3.5h7.5v3.5ZM31.75,19.75h-7.5v-3.5h7.5v3.5Z" fill="#e4e4e7" stroke-width="0"/><path d="M32,6H6c-1.1046,0-2,.8954-2,2v4h30v-4c0-1.1046-.8954-2-2-2Z" fill="#42ba96" stroke-width="0"/><path d="M9,9.5h-2c-.2764,0-.5-.2236-.5-.5s.2236-.5.5-.5h2c.2764,0,.5.2236.5.5s-.2236.5-.5.5ZM13.5,9c0-.2764-.2236-.5-.5-.5h-2c-.2764,0-.5.2236-.5.5s.2236.5.5.5h2c.2764,0,.5-.2236.5-.5ZM17.5,9c0-.2764-.2236-.5-.5-.5h-2c-.2764,0-.5.2236-.5.5s.2236.5.5.5h2c.2764,0,.5-.2236.5-.5ZM21.5,9c0-.2764-.2236-.5-.5-.5h-2c-.2764,0-.5.2236-.5.5s.2236.5.5.5h2c.2764,0,.5-.2236.5-.5Z" fill="#059669" stroke-width="0"/><path d="M32,5.5H6c-1.3784,0-2.5,1.1216-2.5,2.5v22c0,1.3789,1.1216,2.5,2.5,2.5h26c1.3784,0,2.5-1.1211,2.5-2.5V8c0-1.3784-1.1216-2.5-2.5-2.5ZM33.5,30c0,.8271-.6729,1.5-1.5,1.5H6c-.8271,0-1.5-.6729-1.5-1.5V12.5h29v17.5ZM33.5,11.5H4.5v-3.5c0-.8271.6729-1.5,1.5-1.5h26c.8271,0,1.5.6729,1.5,1.5v3.5Z" fill="#09090b" stroke-width="0"/><rect x="20" y="24" width="24" height="18" rx="2" ry="2" fill="#fef3c7" stroke-width="0"/><path d="M42,24h-20c-1.1046,0-2,.8954-2,2v14c0,1.1046.8954,2,2,2h20c1.1046,0,2-.8954,2-2v-14c0-1.1046-.8954-2-2-2ZM42,39.5c0,.2761-.2239.5-.5.5h-19c-.2761,0-.5-.2239-.5-.5v-13c0-.2762.2239-.5.5-.5h19c.2761,0,.5.2238.5.5v13Z" fill="#10b981" stroke-width="0"/><path d="M42,42.5h-20c-1.3784,0-2.5-1.1211-2.5-2.5v-14c0-1.3784,1.1216-2.5,2.5-2.5h20c1.3784,0,2.5,1.1216,2.5,2.5v14c0,1.3789-1.1216,2.5-2.5,2.5ZM22,24.5c-.8271,0-1.5.6729-1.5,1.5v14c0,.8271.6729,1.5,1.5,1.5h20c.8271,0,1.5-.6729,1.5-1.5v-14c0-.8271-.6729-1.5-1.5-1.5h-20Z" fill="#09090b" stroke-width="0"/><rect x="37" y="29" width="2" height="8" rx=".2" ry=".2" fill="#10b981" stroke-width="0"/><rect x="33" y="34" width="2" height="3" rx=".2" ry=".2" fill="#ef4444" stroke-width="0"/><rect x="29" y="32" width="2" height="5" rx=".2" ry=".2" fill="#f97316" stroke-width="0"/><rect x="25" y="35" width="2" height="2" rx=".2" ry=".2" fill="#3b82f6" stroke-width="0"/><circle cx="20" cy="35" r="7" fill="#fbbf24" stroke-width="0"/><path d="M20,27.5c-4.1357,0-7.5,3.3643-7.5,7.5s3.3643,7.5,7.5,7.5,7.5-3.3643,7.5-7.5-3.3643-7.5-7.5-7.5ZM20,41.5c-3.584,0-6.5-2.916-6.5-6.5s2.916-6.5,6.5-6.5,6.5,2.916,6.5,6.5-2.916,6.5-6.5,6.5Z" stroke-width="0"/><path d="M20.75,34.5h-1.5c-.3032,0-.5498-.2471-.5498-.5498s.2466-.5498.5498-.5498h2.25c.2764,0,.5-.2236.5-.5s-.2236-.5-.5-.5h-1v-.4004c0-.2764-.2236-.5-.5-.5s-.5.2236-.5.5v.4004h-.25c-.8545,0-1.5498.6953-1.5498,1.5498s.6953,1.5498,1.5498,1.5498h1.5c.3032,0,.5498.2471.5498.5498s-.2466.5498-.5498.5498h-2.25c-.2764,0-.5.2236-.5.5s.2236.5.5.5h1v.4004c0,.2764.2236.5.5.5s.5-.2236.5-.5v-.4004h.25c.8545,0,1.5498-.6953,1.5498-1.5498s-.6953-1.5498-1.5498-1.5498Z" fill="#fff" stroke-width="0"/></svg>