<?xml version="1.0" encoding="UTF-8"?><svg id="a" xmlns="http://www.w3.org/2000/svg" width="64" height="64" xmlns:xlink="http://www.w3.org/1999/xlink" viewBox="0 0 64 64"><defs><filter id="b" filterUnits="userSpaceOnUse"><feOffset dx="0" dy="0"/><feGaussianBlur result="c" stdDeviation="1"/><feFlood flood-color="#e4e4e7" flood-opacity="1"/><feComposite in2="c" operator="in"/><feComposite in="SourceGraphic"/></filter><linearGradient id="d" x1="32" y1="31.56797" x2="32" y2="6.22199" gradientUnits="userSpaceOnUse"><stop offset="0" stop-color="#fff" stop-opacity="0"/><stop offset="1" stop-color="#fff"/></linearGradient><clipPath id="e"><circle cx="32" cy="32" r="24" fill="none" stroke-width="0"/></clipPath><linearGradient id="f" x1="32" y1="59.37037" x2="32" y2="49.19873" gradientUnits="userSpaceOnUse"><stop offset="0" stop-color="#ecfdf5" stop-opacity="0"/><stop offset="1" stop-color="#c4b5fd"/></linearGradient><linearGradient id="g" x1="32" y1="59.44444" x2="32" y2="48.99941" gradientUnits="userSpaceOnUse"><stop offset="0" stop-color="#ecfdf5" stop-opacity="0"/><stop offset="1" stop-color="#a78bfa"/></linearGradient></defs><circle cx="32" cy="32" r="26" fill="#fff" filter="url(#b)" stroke-width="0"/><circle cx="32" cy="32" r="26" fill="#fff" stroke-width="0"/><circle cx="32" cy="32" r="24" fill="#f3e8ff" stroke-width="0"/><circle cx="32" cy="32" r="20" fill="url(#d)" stroke-width="0"/><circle cx="32" cy="32" r="20" fill="none" stroke="#e9d5ff" stroke-miterlimit="10" stroke-width=".25"/><g clip-path="url(#e)"><circle cx="32" cy="30" r="10" fill="#c4b5fd" stroke-width="0"/><path d="M42,48h-20c-4.41827,0-8,3.58173-8,8v2c0,1.10455.89545,2,2,2h32c1.10455,0,2-.89545,2-2v-2c0-4.41827-3.58173-8-8-8Z" fill="url(#f)" stroke-width="0"/><circle cx="32" cy="30" r="10" fill="none" stroke="#9333ea" stroke-miterlimit="10" stroke-width=".5"/><path d="M48,60.25H16c-1.24023,0-2.25-1.00977-2.25-2.25v-2c0-4.54883,3.70117-8.25,8.25-8.25h20c4.54883,0,8.25,3.70117,8.25,8.25v2c0,1.24023-1.00977,2.25-2.25,2.25ZM22,48.25c-4.27344,0-7.75,3.47656-7.75,7.75v2c0,.96484.78516,1.75,1.75,1.75h32c.96484,0,1.75-.78516,1.75-1.75v-2c0-4.27344-3.47656-7.75-7.75-7.75h-20Z" fill="url(#g)" stroke-width="0"/></g></svg>