<svg width="24" height="24" viewBox="0 0 24 24" fill="none" xmlns="http://www.w3.org/2000/svg">
<path d="M22 20C22 21.1046 21.1046 22 20 22C18.8955 22 18 21.1046 18 20C18 18.8954 18.8955 18 20 18C21.1046 18 22 18.8954 22 20ZM4.00001 15C2.89546 15 2.00001 15.8954 2.00001 17C2.00001 18.1046 2.89546 19 4.00001 19C5.10456 19 6.00001 18.1046 6.00001 17C6.00001 15.8954 5.10456 15 4.00001 15ZM20 6.00001C21.1046 6.00001 22 5.10456 22 4.00001C22 2.8954 21.1046 2.00001 20 2.00001C18.8955 2.00001 18 2.8954 18 4.00001C18 5.10456 18.8955 6.00001 20 6.00001ZM15.3079 14.2474C15.7441 13.6067 16 12.8335 16 12C16 11.1665 15.7441 10.3933 15.3079 9.75263L18.1188 6.94172C17.6927 6.66828 17.3317 6.30726 17.0583 5.88117L14.2474 8.69208C13.6067 8.25592 12.8335 8 12 8C11.1665 8 10.3933 8.25592 9.75262 8.69208L7.57568 6.51514C7.83874 6.06903 8 5.55542 8 5C8 3.34314 6.65686 2 5 2C3.34314 2 2 3.34314 2 5C2 6.65686 3.34314 8 5 8C5.55542 8 6.06903 7.83875 6.51514 7.57568L8.69208 9.75262C8.25592 10.3933 8 11.1665 8 12C8 12.5099 8.10461 12.9934 8.27856 13.4418L6.49737 14.5551C6.8482 14.9134 7.11236 15.3501 7.28436 15.8315L9.0755 14.712C9.80603 15.4996 10.8411 16 12 16C12.8335 16 13.6066 15.744 14.2473 15.3078L17.0583 18.1188C17.3317 17.6927 17.6927 17.3317 18.1188 17.0583L15.3079 14.2474Z" fill="#325EEA"/>
</svg>
