<?xml version="1.0" encoding="UTF-8"?><svg id="a" xmlns="http://www.w3.org/2000/svg" width="128" height="128" viewBox="0 0 128 128"><circle cx="64" cy="64" r="64" fill="#e9f2ff"/><path d="m44.00515,54.13773s7.98313,15.13622,19.79273,20.35073c11.8096,5.21451-3.91519-14.83572-3.91519-14.83572l-15.87753-5.51501Z" fill="#374151"/><path d="m70.55981,49.78528c1.98934-1.02627,4.3655-1.54089,7.12678-1.54089,2.24664,0,4.55804.33698,6.9342,1.01122,2.37461.6741,4.39704,1.65379,6.06729,2.93737l5.77859-10.2087c-1.28514-.83357-2.9375-1.68531-4.95994-2.55211s-4.25403-1.55594-6.69337-2.07057l2.69666-10.59382-11.96418-10.76776-5.56375,10.76776-16.25472,8.03067-2.60238,10.38332,3.17423,4.10084c-.71567,1.9528-1.07469,3.95004-1.07469,5.99215,0,3.33924.91493,6.54897,2.7448,9.63074,1.82987,3.08193,4.79876,5.65064,8.90836,7.70474l2.50404,1.25192c.47097.23617.93791.47635,1.40255.71887.30722,3.47348-.17631,6.56683-2.65701,7.19197-6.16461,1.5535-21.81602.36077-22.62977.95713-.81376.59636-11.96418,1.45562-11.96418,1.45562l11.96418,10.76776c.73572.53176,1.73243,1.11555,2.9886,1.75092l-3.58859,4.52783,11.96418,10.76776h12.13478l2.79295-11.55689c3.01717-.3205,5.76184-.9466,8.23427-1.87801,2.47088-.92999,4.58974-2.19851,6.35626-3.80416,1.76513-1.60408,3.13007-3.53023,4.09315-5.77844.96306-2.24666,1.44461-4.87857,1.44461-7.8973,0-2.43921-.40188-4.55806-1.20393-6.35626-.80346-1.79679-1.86295-3.40243-3.17804-4.81538-1.31682-1.41152-2.82604-2.64852-4.52656-3.70787-1.70192-1.05935-3.48363-2.07057-5.34503-3.03365-1.60564-.77052-2.92232-1.49275-3.94859-2.16699-1.02782-.6741-1.84647-1.33172-2.45581-1.97429-.61106-.64101-1.04444-1.31524-1.3002-2.02242-.25731-.70577-.38526-1.50781-.38526-2.40769,0-2.18204.99474-3.78768,2.98551-4.81537Z" fill="#374151"/><path d="m52.14315,78.31101c1.34833,0,2.7115-.07981,4.09292-.24084,1.38-.15947,2.61544-.48154,3.70788-.96307,1.09102-.48154,1.97429-1.18716,2.64853-2.11871.6741-.92999,1.01121-2.16685,1.01121-3.70788,0-1.02627-.22579-1.92615-.67424-2.69652-.44987-.77052-1.05935-1.47628-1.82973-2.11885-.77052-.64101-1.65378-1.23544-2.64853-1.78173-.99616-.54473-2.00738-1.07441-3.03364-1.58903l-2.50404-1.25191c-4.10961-2.0541-7.0785-4.62281-8.90837-7.70474-1.82987-3.08178-2.7448-6.29151-2.7448-9.63074,0-2.11871.38526-4.18927,1.15563-6.21184.77052-2.02243,1.9412-3.86735,3.51532-5.53761,1.57256-1.66884,3.59499-3.06531,6.06743-4.18942,2.47081-1.12255,5.40817-1.87801,8.81202-2.26327l2.60024-10.30484h12.13485l-2.69667,10.59382c2.43935.51462,4.67095,1.20377,6.69338,2.07057s3.67479,1.71854,4.95993,2.5521l-5.77859,10.2087c-1.67026-1.28358-3.69268-2.26327-6.06728-2.93736-2.37616-.67424-4.68757-1.01121-6.93422-1.01121-2.76128,0-5.13744.51462-7.12678,1.54089-1.99076,1.02769-2.9855,2.63333-2.9855,4.81537,0,.89988.12795,1.70192.38526,2.40769.25575.70718.68915,1.38142,1.30019,2.02243.60934.64257,1.428,1.30019,2.45583,1.97429,1.02627.67424,2.34293,1.39647,3.94858,2.16699,1.86139.96307,3.64313,1.97429,5.34505,3.03364,1.7005,1.05935,3.20973,2.29635,4.52654,3.70788,1.3151,1.41294,2.3746,3.01859,3.17806,4.81537.80204,1.7982,1.20391,3.91705,1.20391,6.35626,0,3.01873-.48154,5.65064-1.44461,7.8973-.96307,2.24822-2.32802,4.17436-4.09314,5.77845-1.76654,1.60564-3.88538,2.87417-6.35626,3.80416-2.47244.93141-5.2171,1.55751-8.23427,1.87801l-2.79294,11.55689h-12.13478l2.88937-11.74959c-3.46718-.51306-6.42102-1.3151-8.86037-2.40769-2.44077-1.09088-4.23756-2.05395-5.39319-2.88922l5.87473-10.59382c.70576.51462,1.57256,1.0443,2.60024,1.58903,1.02641.54629,2.18204,1.04444,3.46718,1.49289,1.28358.44987,2.66344.83513,4.14114,1.15563,1.47628.32207,2.98564.48154,4.52654.48154Z" fill="#fcd34d"/><polygon points="84.50249 31.2165 78.7239 41.4252 90.68809 52.19296 96.46667 41.98426 84.50249 31.2165" fill="#f59e0b"/><polygon points="57.82524 89.67534 55.0323 101.23224 66.99648 112 69.78943 100.44311 57.82524 89.67534" fill="#f59e0b"/></svg>