<?xml version="1.0" encoding="UTF-8"?><svg id="a" xmlns="http://www.w3.org/2000/svg" width="48" height="48" viewBox="0 0 48 48"><rect x="4" y="6" width="30" height="26" rx="2" ry="2" fill="#fafafa" stroke-width="0"/><path d="M34,20.25c.1382,0,.25-.1118.25-.25s-.1118-.25-.25-.25h-1.75v-3.5h1.75c.1382,0,.25-.1118.25-.25s-.1118-.25-.25-.25H4c-.1382,0-.25.1118-.25.25s.1118.25.25.25h3.75v3.5h-3.75c-.1382,0-.25.1118-.25.25s.1118.25.25.25h3.75v3.5h-3.75c-.1382,0-.25.1118-.25.25s.1118.25.25.25h3.75v3.5h-3.75c-.1382,0-.25.1123-.25.25s.1118.25.25.25h3.75v3.75c0,.1377.1118.25.25.25s.25-.1123.25-.25v-3.75h7.5v3.75c0,.1377.1118.25.25.25s.25-.1123.25-.25v-3.75h7.5v3.75c0,.1377.1118.25.25.25s.25-.1123.25-.25v-3.75h7.5v3.75c0,.1377.1118.25.25.25s.25-.1123.25-.25v-3.75h1.75c.1382,0,.25-.1123.25-.25s-.1118-.25-.25-.25h-1.75v-3.5h1.75c.1382,0,.25-.1118.25-.25s-.1118-.25-.25-.25h-1.75v-3.5h1.75ZM15.75,27.75h-7.5v-3.5h7.5v3.5ZM15.75,23.75h-7.5v-3.5h7.5v3.5ZM15.75,19.75h-7.5v-3.5h7.5v3.5ZM23.75,27.75h-7.5v-3.5h7.5v3.5ZM23.75,23.75h-7.5v-3.5h7.5v3.5ZM23.75,19.75h-7.5v-3.5h7.5v3.5ZM31.75,27.75h-7.5v-3.5h7.5v3.5ZM31.75,23.75h-7.5v-3.5h7.5v3.5ZM31.75,19.75h-7.5v-3.5h7.5v3.5Z" fill="#e4e4e7" stroke-width="0"/><path d="M32,6H6c-1.1046,0-2,.8954-2,2v4h30v-4c0-1.1046-.8954-2-2-2Z" fill="#42ba96" stroke-width="0"/><path d="M9,9.5h-2c-.2764,0-.5-.2236-.5-.5s.2236-.5.5-.5h2c.2764,0,.5.2236.5.5s-.2236.5-.5.5ZM13.5,9c0-.2764-.2236-.5-.5-.5h-2c-.2764,0-.5.2236-.5.5s.2236.5.5.5h2c.2764,0,.5-.2236.5-.5ZM17.5,9c0-.2764-.2236-.5-.5-.5h-2c-.2764,0-.5.2236-.5.5s.2236.5.5.5h2c.2764,0,.5-.2236.5-.5ZM21.5,9c0-.2764-.2236-.5-.5-.5h-2c-.2764,0-.5.2236-.5.5s.2236.5.5.5h2c.2764,0,.5-.2236.5-.5Z" fill="#059669" stroke-width="0"/><path d="M32,5.5H6c-1.3784,0-2.5,1.1216-2.5,2.5v22c0,1.3789,1.1216,2.5,2.5,2.5h26c1.3784,0,2.5-1.1211,2.5-2.5V8c0-1.3784-1.1216-2.5-2.5-2.5ZM33.5,30c0,.8271-.6729,1.5-1.5,1.5H6c-.8271,0-1.5-.6729-1.5-1.5V12.5h29v17.5ZM33.5,11.5H4.5v-3.5c0-.8271.6729-1.5,1.5-1.5h26c.8271,0,1.5.6729,1.5,1.5v3.5Z" fill="#09090b" stroke-width="0"/><path d="M20,29v11c0,1.1046.8954,2,2,2h20c1.1046,0,2-.8954,2-2v-11h-24Z" fill="#f59e0b" stroke-width="0"/><path d="M44,40v-13h-12l1,6,9.893,8.7807c.6539-.3289,1.107-.9988,1.107-1.7807Z" fill="#fbbf24" stroke-width="0"/><path d="M20,40v-13h12s-1,6-1,6l-9.893,8.7807c-.6539-.3289-1.107-.9988-1.107-1.7807Z" fill="#fbbf24" stroke-width="0"/><path d="M44,26c0-1.1046-.8954-2-2-2h-20c-1.1046,0-2,.8954-2,2v2.473l10.4883,6.1188c.4668.2715.9893.4072,1.5117.4072s1.0459-.1357,1.5117-.4072l10.4883-6.1188v-2.473Z" fill="#fde68a" stroke-width="0"/><path d="M42,24h-20c-1.1046,0-2,.8954-2,2v1.3155l10.9923,6.4121c.6227.3633,1.3928.3633,2.0155,0l10.9923-6.4121v-1.3155c0-1.1046-.8954-2-2-2Z" fill="#fcd34d" stroke-width="0"/><path d="M42,42.5h-20c-1.3784,0-2.5-1.1211-2.5-2.5v-14c0-1.3784,1.1216-2.5,2.5-2.5h20c1.3789,0,2.5,1.1216,2.5,2.5v14c0,1.3789-1.1211,2.5-2.5,2.5ZM22,24.5c-.8271,0-1.5.6729-1.5,1.5v14c0,.8271.6729,1.5,1.5,1.5h20c.8271,0,1.5-.6729,1.5-1.5v-14c0-.8271-.6729-1.5-1.5-1.5h-20Z" fill="#09090b" stroke-width="0"/><circle cx="20" cy="25" r="7" fill="#3b82f6" stroke-width="0"/><path d="M20,32.5c-4.1357,0-7.5-3.3643-7.5-7.5s3.3643-7.5,7.5-7.5,7.5,3.3643,7.5,7.5-3.3643,7.5-7.5,7.5ZM20,18.5c-3.584,0-6.5,2.916-6.5,6.5s2.916,6.5,6.5,6.5,6.5-2.916,6.5-6.5-2.916-6.5-6.5-6.5Z" fill="#09090b" stroke-width="0"/><path d="M22.74,26.0841l-1.0323-.3416c-.137-.0454-.2883-.0092-.3907.0932l-.7217.6595s-.7329.2569-1.5402-.5503c-.8073-.8073-.5503-1.5402-.5503-1.5402l.6595-.7217c.1025-.1025.1386-.2537.0932-.3907l-.3416-1.0323c-.0661-.1997-.2819-.3072-.482-.24l-.8519.286c-.2698.0906-.4662.3207-.514.601-.1355.7964-.2043,2.4697,1.1755,3.8495s3.053,1.311,3.8495,1.1755c.2803-.0477.5105-.2442.601-.5139l.286-.8519c.0672-.2001-.0403-.4159-.24-.482Z" fill="#fff" stroke-width="0"/></svg>