<?xml version="1.0" encoding="UTF-8"?><svg id="a" xmlns="http://www.w3.org/2000/svg" width="64" height="64" xmlns:xlink="http://www.w3.org/1999/xlink" viewBox="0 0 64 64"><defs><filter id="b" filterUnits="userSpaceOnUse"><feOffset dx="0" dy="0"/><feGaussianBlur result="c" stdDeviation="1"/><feFlood flood-color="#e4e4e7" flood-opacity="1"/><feComposite in2="c" operator="in"/><feComposite in="SourceGraphic"/></filter><linearGradient id="d" x1="32" y1="31.56797" x2="32" y2="6.22199" gradientUnits="userSpaceOnUse"><stop offset="0" stop-color="#fff" stop-opacity="0"/><stop offset="1" stop-color="#fff"/></linearGradient><clipPath id="e"><circle cx="32" cy="32" r="24" fill="none" stroke-width="0"/></clipPath><linearGradient id="f" x1="32" y1="54.77778" x2="32" y2="32.9995" gradientUnits="userSpaceOnUse"><stop offset="0" stop-color="#ecfdf5" stop-opacity="0"/><stop offset="1" stop-color="#f3f4f6"/></linearGradient><linearGradient id="g" x1="32" y1="56.55556" x2="32" y2="47.16654" gradientUnits="userSpaceOnUse"><stop offset="0" stop-color="#ecfdf5" stop-opacity="0"/><stop offset="1" stop-color="#d4d4d8"/></linearGradient></defs><circle cx="32" cy="32" r="26" fill="#fff" filter="url(#b)" stroke-width="0"/><circle cx="32" cy="32" r="26" fill="#fff" stroke-width="0"/><circle cx="32" cy="32" r="24" fill="#d1fae5" stroke-width="0"/><circle cx="32" cy="32" r="20" fill="url(#d)" stroke-width="0"/><circle cx="32" cy="32" r="20" fill="none" stroke="#a7f3d0" stroke-miterlimit="10" stroke-width=".25"/><g clip-path="url(#e)"><rect x="8" y="26" width="48" height="32" rx="4" ry="4" fill="#fff" stroke-width="0"/><path d="M52,39.0498c.1377,0,.25-.1123.25-.25s-.1123-.25-.25-.25h-3.75v-5.8999h3.75c.1377,0,.25-.11182.25-.25s-.1123-.25-.25-.25h-3.75v-2.1499c0-.13818-.1123-.25-.25-.25s-.25.11182-.25.25v2.1499h-5.90039v-2.1499c0-.13818-.1123-.25-.25-.25s-.25.11182-.25.25v2.1499h-5.89941v-2.1499c0-.13818-.1123-.25-.25-.25s-.25.11182-.25.25v2.1499h-5.90039v-2.1499c0-.13818-.1123-.25-.25-.25s-.25.11182-.25.25v2.1499h-5.89941v-2.1499c0-.13818-.1123-.25-.25-.25s-.25.11182-.25.25v2.1499h-5.90039v-2.1499c0-.13818-.1123-.25-.25-.25s-.25.11182-.25.25v2.1499h-3.75c-.1377,0-.25.11182-.25.25s.1123.25.25.25h3.75v5.8999h-3.75c-.1377,0-.25.1123-.25.25s.1123.25.25.25h3.75v5.90039h-3.75c-.1377,0-.25.1123-.25.25s.1123.25.25.25h3.75v5.89941h-3.75c-.1377,0-.25.1123-.25.25s.1123.25.25.25h3.75v2.15039c0,.1377.1123.25.25.25s.25-.1123.25-.25v-2.15039h5.90039v2.15039c0,.1377.1123.25.25.25s.25-.1123.25-.25v-2.15039h5.89941v2.15039c0,.1377.1123.25.25.25s.25-.1123.25-.25v-2.15039h5.90039v2.15039c0,.1377.1123.25.25.25s.25-.1123.25-.25v-2.15039h5.89941v2.15039c0,.1377.1123.25.25.25s.25-.1123.25-.25v-2.15039h5.90039v2.15039c0,.1377.1123.25.25.25s.25-.1123.25-.25v-2.15039h3.75c.1377,0,.25-.1123.25-.25s-.1123-.25-.25-.25h-3.75v-5.89941h3.75c.1377,0,.25-.1123.25-.25s-.1123-.25-.25-.25h-3.75v-5.90039h3.75ZM47.75,32.6499v5.8999h-5.90039v-5.8999h5.90039ZM41.34961,32.6499v5.8999h-5.89941v-5.8999h5.89941ZM29.0498,39.0498h5.90039v5.90039h-5.90039v-5.90039ZM28.5498,44.9502h-5.89941v-5.90039h5.89941v5.90039ZM35.4502,39.0498h5.89941v5.90039h-5.89941v-5.90039ZM34.9502,32.6499v5.8999h-5.90039v-5.8999h5.90039ZM28.5498,32.6499v5.8999h-5.89941v-5.8999h5.89941ZM16.25,32.6499h5.90039v5.8999h-5.90039v-5.8999ZM16.25,39.0498h5.90039v5.90039h-5.90039v-5.90039ZM16.25,51.34961v-5.89941h5.90039v5.89941h-5.90039ZM22.65039,51.34961v-5.89941h5.89941v5.89941h-5.89941ZM29.0498,51.34961v-5.89941h5.90039v5.89941h-5.90039ZM35.4502,51.34961v-5.89941h5.89941v5.89941h-5.89941ZM47.75,51.34961h-5.90039v-5.89941h5.90039v5.89941ZM47.75,44.9502h-5.90039v-5.90039h5.90039v5.90039Z" fill="url(#f)" stroke-width="0"/><rect x="8" y="26" width="48" height="32" rx="4" ry="4" fill="none" stroke="#f3f4f6" stroke-linecap="round" stroke-linejoin="round" stroke-width=".5"/><path d="M27,50v2c0,.55273-.44727,1-1,1s-1-.44727-1-1v-2c0-.55273.44727-1,1-1s1,.44727,1,1ZM32,45c-.55273,0-1,.44727-1,1v6c0,.55273.44727,1,1,1s1-.44727,1-1v-6c0-.55273-.44727-1-1-1ZM38,41c-.55273,0-1,.44775-1,1v10c0,.55273.44727,1,1,1s1-.44727,1-1v-10c0-.55225-.44727-1-1-1Z" fill="url(#g)" stroke-width="0"/><path d="M40,31h-4c-.55273,0-1,.44775-1,1s.44727,1,1,1h1.58594l-5.58594,5.58594-3.29297-3.29297c-.39062-.39062-1.02344-.39062-1.41406,0l-4,4c-.39062.39062-.39062,1.02344,0,1.41406s1.02344.39062,1.41406,0l3.29297-3.29297,3.29297,3.29297c.19531.19531.45117.29297.70703.29297s.51172-.09766.70703-.29297l6.29297-6.29297v1.58594c0,.55225.44727,1,1,1s1-.44775,1-1v-4c0-.55225-.44727-1-1-1Z" fill="#6ee7b7" stroke-width="0"/><path d="M40,31h-4c-.55273,0-1,.44775-1,1s.44727,1,1,1h1.58594l-5.58594,5.58594-3.29297-3.29297c-.39062-.39062-1.02344-.39062-1.41406,0l-4,4c-.39062.39062-.39062,1.02344,0,1.41406s1.02344.39062,1.41406,0l3.29297-3.29297,3.29297,3.29297c.19531.19531.45117.29297.70703.29297s.51172-.09766.70703-.29297l6.29297-6.29297v1.58594c0,.55225.44727,1,1,1s1-.44775,1-1v-4c0-.55225-.44727-1-1-1Z" fill="none" stroke="#34d399" stroke-linecap="round" stroke-linejoin="round" stroke-width=".5"/></g></svg>