<?xml version="1.0" encoding="UTF-8"?><svg id="a" xmlns="http://www.w3.org/2000/svg" width="64" height="64" xmlns:xlink="http://www.w3.org/1999/xlink" viewBox="0 0 64 64"><defs><filter id="b" filterUnits="userSpaceOnUse"><feOffset dx="0" dy="0"/><feGaussianBlur result="c" stdDeviation="1"/><feFlood flood-color="#e4e4e7" flood-opacity="1"/><feComposite in2="c" operator="in"/><feComposite in="SourceGraphic"/></filter><linearGradient id="d" x1="32" y1="31.56797" x2="32" y2="6.22199" gradientUnits="userSpaceOnUse"><stop offset="0" stop-color="#fff" stop-opacity="0"/><stop offset="1" stop-color="#fff"/></linearGradient><clipPath id="e"><circle cx="32" cy="32" r="24" fill="none" stroke-width="0"/></clipPath><linearGradient id="f" x1="32" y1="65.44444" x2="32" y2="44.26153" gradientUnits="userSpaceOnUse"><stop offset="0" stop-color="#ecfdf5" stop-opacity="0"/><stop offset="1" stop-color="#34d399"/></linearGradient><linearGradient id="g" y1="57" x2="32" y2="50.20767" xlink:href="#d"/></defs><circle cx="32" cy="32" r="26" fill="#fff" filter="url(#b)" stroke-width="0"/><circle cx="32" cy="32" r="26" fill="#fff" stroke-width="0"/><circle cx="32" cy="32" r="24" fill="#fef3c7" stroke-width="0"/><circle cx="32" cy="32" r="20" fill="url(#d)" stroke-width="0"/><circle cx="32" cy="32" r="20" fill="none" stroke="#fde68a" stroke-miterlimit="10" stroke-width=".25"/><g clip-path="url(#e)"><path d="M42.89001,23.29872c-1.84998.12646-5.53381.59753-7.29004,2.35376-1.35327,1.35327-2.55664,4.01245-3.17017,5.5238-.13794.33997-.61816.32324-.72925-.02649-.57568-1.81348-1.69543-3.89221-3.30054-5.49731-1.75623-1.75623-5.44006-2.22729-7.29004-2.35376-.60864-.0415-1.10522.45496-1.0636,1.06372.12634,1.84998.59741,5.53381,2.35364,7.29004,1.03442,1.0343,2.95667,1.84436,4.81091,2.43188,1.66187.52661,2.78967,2.06567,2.78967,3.80896v11.3811h4v-11.38147c0-1.74329,1.12769-3.28223,2.78955-3.80884,1.85388-.58765,3.77563-1.39758,4.80981-2.43164,1.75623-1.75623,2.22729-5.44006,2.35364-7.29004.04163-.60876-.45496-1.10522-1.0636-1.06372Z" fill="#bef264" stroke-width="0"/><path d="M34.25049,49.52441h-4.5v-11.63086c0-1.64062-1.05078-3.0752-2.61523-3.5708-2.34863-.74414-4.00146-1.58301-4.91211-2.49365-1.79004-1.78955-2.28857-5.43555-2.42627-7.44971-.02441-.3623.10693-.71533.36084-.96924.25342-.25439.60693-.38281.96924-.36084,2.01367.1377,5.65869.63574,7.44971,2.42627,1.47607,1.47656,2.70166,3.51709,3.3623,5.59863.02832.09033.10107.09473.12988.09766.03223,0,.09717-.01025.12891-.08936.6084-1.49805,1.83643-4.21777,3.22559-5.60693,1.79102-1.79053,5.43604-2.28857,7.44971-2.42627h0c.36182-.02197.71533.10645.96924.36084.25391.25391.38525.60693.36084.96924-.1377,2.01416-.63623,5.66016-2.42627,7.44971-.91016.91016-2.5625,1.74902-4.91113,2.49316-1.56445.49609-2.61523,1.93115-2.61523,3.5708v11.63135ZM30.25049,49.02441h3.5v-11.13135c0-1.85889,1.19092-3.48535,2.96387-4.04736,2.27148-.71973,3.85596-1.51709,4.70898-2.37012,1.6748-1.67432,2.14795-5.18604,2.28076-7.13037.01514-.22119-.06152-.42773-.21533-.58154s-.36035-.23096-.58154-.21533h0c-1.56494.10693-5.39258.54346-7.13037,2.28076-1.32715,1.32715-2.52148,3.97852-3.11572,5.44141-.10254.25488-.34863.41699-.61719.40088-.27051-.01074-.49902-.18555-.58154-.4458-.63721-2.00781-1.81787-3.97461-3.23926-5.39648-1.73779-1.7373-5.56543-2.17383-7.13037-2.28076-.21631-.01709-.42773.06152-.58154.21533s-.23047.36035-.21533.58154c.13281,1.94434.60596,5.45605,2.28076,7.13037.85352.85352,2.43799,1.65088,4.70996,2.37061,1.77246.56152,2.96387,2.18799,2.96387,4.04736v11.13086Z" fill="#a3e635" stroke-width="0"/><rect x="12" y="41.35946" width="40" height="22" rx="4" ry="4" fill="url(#f)" stroke-width="0"/><path d="M36,52.35946c0,2.20914-1.79086,4-4,4s-4-1.79086-4-4,1.79086-4,4-4,4,1.79086,4,4ZM47,52.35946c0-.55273-.44727-1-1-1h-4c-.55273,0-1,.44727-1,1s.44727,1,1,1h4c.55273,0,1-.44727,1-1ZM23,52.35946c0-.55273-.44727-1-1-1h-4c-.55273,0-1,.44727-1,1s.44727,1,1,1h4c.55273,0,1-.44727,1-1Z" fill="url(#g)" stroke-width="0"/><path d="M48,63.60938H16c-2.34326,0-4.25-1.90674-4.25-4.25v-14c0-2.34326,1.90674-4.25,4.25-4.25h32c2.34326,0,4.25,1.90674,4.25,4.25v14c0,2.34326-1.90674,4.25-4.25,4.25ZM16,41.60938c-2.06787,0-3.75,1.68213-3.75,3.75v14c0,2.06787,1.68213,3.75,3.75,3.75h32c2.06787,0,3.75-1.68213,3.75-3.75v-14c0-2.06787-1.68213-3.75-3.75-3.75H16Z" fill="#10b981" stroke-width="0"/></g></svg>